<svg width="113" height="123" viewBox="0 0 113 123" fill="none" xmlns="http://www.w3.org/2000/svg">
<g clip-path="url(#clip0_221_6)">
<path d="M44.1303 102.06C42.9903 102.09 41.9903 101.25 41.8303 100.1C41.6603 98.9002 42.4703 97.7902 43.6503 97.5602C42.3503 90.1902 38.8003 86.1302 35.0503 81.8402C32.1303 78.5002 29.1003 75.0302 26.7103 69.9202C24.3603 64.8902 23.0703 59.6902 23.1103 54.2902C23.1603 48.8902 24.5303 43.3302 27.5103 37.5802C27.5303 37.5402 27.5503 37.5102 27.5703 37.4702C31.4803 30.8502 36.9503 26.4302 43.0403 23.9502C48.1503 21.8602 53.7003 21.1502 59.1403 21.6502C64.5603 22.1502 69.8703 23.8502 74.5103 26.5902C80.4103 30.0802 85.2603 35.2602 87.9303 41.8002C89.3703 45.3402 90.3503 49.2902 90.4703 53.6202C90.5903 57.9302 89.8503 62.5802 87.8603 67.5002C85.2003 74.0902 81.6803 78.1802 78.3903 82.0102C75.3603 85.5402 72.5403 88.8202 70.9703 93.8502C71.8603 94.0602 72.5603 94.7902 72.7003 95.7502C72.8703 96.9902 72.0003 98.1402 70.7603 98.3102L69.9903 98.4202C69.8503 99.5102 69.7603 100.68 69.7203 101.93L69.9703 101.89C71.2103 101.72 72.3603 102.59 72.5303 103.83C72.7003 105.07 71.8303 106.22 70.5903 106.39L69.8103 106.5C69.8203 106.65 69.8303 106.8 69.8403 106.95C69.9103 107.83 69.9203 108.68 69.8703 109.49L70.0003 109.47C71.2503 109.32 72.3803 110.21 72.5403 111.45C72.6903 112.7 71.8003 113.83 70.5603 113.99L68.8803 114.2C67.6803 117.31 65.5403 119.67 63.0103 121.14C61.2703 122.15 59.3403 122.73 57.4003 122.85C55.4303 122.97 53.4403 122.6 51.6203 121.72C49.5403 120.7 47.6803 119.01 46.3303 116.58C45.6803 116.25 45.2003 115.61 45.1003 114.83C45.0603 114.52 45.0903 114.22 45.1703 113.94C44.7803 112.78 44.4803 111.51 44.3003 110.11L44.2303 110.12C42.9903 110.29 41.8403 109.42 41.6703 108.18C41.5003 106.94 42.3703 105.79 43.6103 105.62L44.1503 105.54C44.1903 104.32 44.1803 103.16 44.1303 102.06ZM66.4103 40.3402C66.9903 40.3502 67.5803 40.4602 68.1503 40.6502C69.3503 41.0602 70.5003 41.8502 71.3903 42.9002C72.2803 43.9602 72.9203 45.2902 73.0803 46.7702C73.1503 47.4202 73.1303 48.0902 73.0003 48.7802C73.6203 49.3502 74.1403 49.9802 74.5303 50.6602C75.1703 51.7502 75.5003 52.9602 75.4603 54.1902C75.4203 55.4302 75.0203 56.6702 74.1703 57.8102C73.6603 58.5002 72.9903 59.1502 72.1503 59.7402C72.2103 61.5802 71.6603 63.2402 70.7703 64.5202C69.7803 65.9502 68.3603 66.9402 66.8703 67.2502C66.5103 68.5402 65.6403 69.6802 64.5403 70.4702C63.1003 71.5002 61.2203 71.9802 59.5003 71.5102C58.3203 71.1902 57.2403 70.4402 56.4603 69.1602C55.5203 70.5802 54.2803 71.3402 52.9803 71.6102C51.3203 71.9602 49.6003 71.4502 48.3003 70.4402C47.3003 69.6602 46.5403 68.5702 46.2403 67.3302C45.7603 67.2902 45.2703 67.1902 44.8003 67.0302C43.6303 66.6302 42.5003 65.8702 41.6303 64.8502C40.7503 63.8302 40.1003 62.5502 39.9003 61.1202C39.8003 60.4102 39.8103 59.6602 39.9603 58.9002C39.4203 58.4002 38.9603 57.8402 38.5803 57.2302C37.9103 56.1402 37.5303 54.9102 37.5503 53.6402C37.5703 52.3602 37.9703 51.0702 38.8503 49.8702C39.3403 49.2002 39.9903 48.5602 40.8003 47.9702C40.7903 47.7702 40.7903 47.5702 40.8003 47.3802C40.8703 45.5202 41.5503 43.8902 42.5403 42.6802C42.5703 42.6502 42.5903 42.6202 42.6203 42.5902C43.6103 41.4202 44.9003 40.6402 46.2403 40.4102C46.2903 40.2302 46.3403 40.0602 46.4003 39.8802C46.8703 38.6202 47.8203 37.5402 48.9903 36.8602C50.1703 36.1702 51.5903 35.8702 52.9703 36.1602C54.2103 36.4202 55.4003 37.1302 56.3203 38.4302C57.2403 37.1302 58.4303 36.4202 59.6703 36.1602C60.9303 35.9002 62.2203 36.1202 63.3303 36.6802C64.4203 37.2302 65.3603 38.1202 65.9303 39.1802C66.1503 39.5602 66.3103 39.9402 66.4103 40.3402ZM66.7903 64.3502C67.4103 64.0902 68.0103 63.5902 68.4703 62.9202C69.1203 61.9702 69.4903 60.7002 69.3103 59.2702L69.3003 59.2302V59.2002C69.2303 58.6602 69.4803 58.1002 69.9803 57.8002C70.8503 57.2902 71.4803 56.7302 71.9203 56.1302C72.4003 55.4702 72.6403 54.7802 72.6603 54.1002C72.6803 53.4102 72.4803 52.7202 72.1003 52.0702C71.7503 51.4702 71.2503 50.9202 70.6403 50.4502C70.1203 50.1102 69.8803 49.4502 70.0903 48.8302C70.3003 48.2102 70.3503 47.6202 70.2903 47.0502C70.1903 46.1702 69.8003 45.3602 69.2503 44.7002C68.6903 44.0402 67.9803 43.5502 67.2603 43.3002C66.9503 43.2002 66.6403 43.1402 66.3503 43.1402C66.1303 43.8002 65.7703 44.4602 65.2303 45.1002C64.7303 45.6902 63.8503 45.7702 63.2603 45.2702C62.6703 44.7702 62.5903 43.8902 63.0903 43.3002C63.9103 42.3302 63.9203 41.3102 63.4903 40.5202C63.1903 39.9602 62.6903 39.4902 62.1003 39.2002C61.5303 38.9102 60.8903 38.7902 60.2803 38.9202C59.3903 39.1002 58.5303 39.8502 57.9703 41.4102V65.1102C58.0803 65.2702 58.1503 65.4502 58.1803 65.6602C58.5003 67.6202 59.3303 68.5602 60.2603 68.8202C61.1203 69.0602 62.1203 68.7702 62.9203 68.2002C63.7003 67.6402 64.2603 66.8302 64.2703 65.9802C64.2803 65.0102 63.5403 63.9002 61.5703 62.8902C60.8803 62.5402 60.6003 61.6902 60.9503 61.0002C61.3003 60.3102 62.1503 60.0302 62.8403 60.3802C65.0703 61.5102 66.2903 62.9202 66.7903 64.3502ZM46.3703 43.2702C45.8003 43.4602 45.2403 43.8502 44.7703 44.3902C44.7503 44.4202 44.7303 44.4402 44.7103 44.4602C44.0703 45.2402 43.6403 46.2802 43.5903 47.4802C43.5803 47.8002 43.5903 48.1402 43.6403 48.4902C43.7103 49.0202 43.4703 49.5702 42.9903 49.8802C42.1503 50.4002 41.5303 50.9602 41.1003 51.5502C40.5803 52.2502 40.3503 52.9902 40.3403 53.6902C40.3303 54.4102 40.5503 55.1202 40.9503 55.7702C41.2903 56.3202 41.7503 56.8202 42.3203 57.2402C42.8303 57.5902 43.0603 58.2402 42.8603 58.8502C42.6403 59.5102 42.5903 60.1502 42.6703 60.7502C42.7903 61.6102 43.1903 62.3902 43.7403 63.0302C44.2903 63.6702 44.9803 64.1402 45.6903 64.3802C45.9203 64.4602 46.1503 64.5102 46.3703 64.5302C46.8803 63.0402 48.1603 61.5702 50.4903 60.3802C51.1803 60.0302 52.0203 60.3002 52.3803 60.9902C52.7303 61.6802 52.4603 62.5202 51.7703 62.8802C49.6803 63.9402 48.9003 65.1402 48.9003 66.1802C48.9003 66.9702 49.3603 67.7202 50.0303 68.2402C50.7103 68.7702 51.5903 69.0402 52.4103 68.8702C53.4403 68.6602 54.4403 67.6802 54.9703 65.5402C55.0003 65.4002 55.0603 65.2702 55.1303 65.1502V42.6402C55.1003 42.5902 55.0703 42.5302 55.0403 42.4702L55.0303 42.4502L55.0203 42.4302L55.0103 42.4102V42.4002V42.3902L55.0003 42.3702V42.3602V42.3502C54.9903 42.3102 54.9803 42.2702 54.9703 42.2302C54.4403 40.1002 53.4403 39.1302 52.4103 38.9202C51.7403 38.7802 51.0203 38.9402 50.4103 39.3002C49.7903 39.6602 49.2903 40.2202 49.0503 40.8602C48.7403 41.7002 48.9303 42.7402 50.0003 43.7302C50.5703 44.2602 50.6003 45.1402 50.0803 45.7102C49.5503 46.2802 48.6703 46.3102 48.1003 45.7902C47.2303 44.9702 46.6703 44.1202 46.3703 43.2702ZM46.6603 47.9002C47.2103 47.3602 48.1003 47.3602 48.6503 47.9202C49.1903 48.4702 49.1903 49.3602 48.6303 49.9102C47.6603 50.8602 47.1503 52.1002 47.1003 53.3502C47.0503 54.6502 47.4703 55.9902 48.3603 57.0902C48.8503 57.6902 48.7503 58.5802 48.1503 59.0602C47.5503 59.5502 46.6603 59.4502 46.1803 58.8502C44.8503 57.2002 44.2203 55.2002 44.3003 53.2402C44.3703 51.2902 45.1503 49.3802 46.6603 47.9002ZM63.4303 49.3802C62.8003 48.9202 62.6603 48.0502 63.1203 47.4202C63.5803 46.7902 64.4503 46.6502 65.0803 47.1102C65.3203 47.2902 65.5503 47.4702 65.7603 47.6602C67.3403 49.0902 68.2103 50.9702 68.3703 52.9202C68.5303 54.8502 67.9903 56.8402 66.7703 58.5102C66.7503 58.5402 66.7203 58.5802 66.6903 58.6102C66.5203 58.8402 66.3503 59.0402 66.1903 59.2302C65.6703 59.8102 64.7803 59.8502 64.2003 59.3302C63.6203 58.8102 63.5803 57.9202 64.1003 57.3402C64.2303 57.1902 64.3403 57.0602 64.4403 56.9302C64.4603 56.9002 64.4703 56.8802 64.4903 56.8502C65.3003 55.7302 65.6603 54.4102 65.5603 53.1302C65.4603 51.8702 64.9003 50.6602 63.8803 49.7402C63.7403 49.6202 63.5903 49.5002 63.4303 49.3802ZM2.18028 58.8602C1.01028 58.8902 0.0402799 57.9802 0.000279933 56.8102C-0.0397201 55.6402 0.88028 54.6702 2.05028 54.6302L10.7503 54.3302C11.9203 54.2902 12.8903 55.2102 12.9303 56.3802C12.9703 57.5502 12.0503 58.5202 10.8803 58.5602L2.18028 58.8602ZM110.68 50.2502C111.84 50.1302 112.88 50.9802 113 52.1402C113.12 53.3002 112.27 54.3402 111.11 54.4602L102.45 55.3702C101.29 55.4902 100.25 54.6402 100.13 53.4802C100.01 52.3202 100.86 51.2802 102.02 51.1602L110.68 50.2502ZM94.9103 14.7802C95.5603 13.8102 96.8703 13.5502 97.8403 14.2002C98.8103 14.8502 99.0703 16.1602 98.4203 17.1302L93.5803 24.3702C92.9303 25.3402 91.6203 25.6002 90.6503 24.9502C89.6803 24.3002 89.4203 22.9902 90.0703 22.0202L94.9103 14.7802ZM57.6303 2.06023C57.6603 0.890225 58.6303 -0.029775 59.7903 0.000225025C60.9603 0.030225 61.8803 1.00023 61.8503 2.16023L61.6303 10.8602C61.6003 12.0302 60.6303 12.9502 59.4703 12.9202C58.3003 12.8902 57.3803 11.9202 57.4103 10.7602L57.6303 2.06023ZM13.8803 15.5302C13.0203 14.7302 12.9803 13.3902 13.7703 12.5402C14.5703 11.6802 15.9103 11.6402 16.7603 12.4302L23.1303 18.3702C23.9903 19.1702 24.0303 20.5102 23.2403 21.3602C22.4403 22.2202 21.1003 22.2602 20.2503 21.4702L13.8803 15.5302ZM47.8803 96.9502L66.3703 94.3302C67.9603 87.6302 71.4203 83.6002 75.1703 79.2502C78.2503 75.6702 81.5303 71.8502 83.9303 65.9102C85.6903 61.5602 86.3403 57.4802 86.2403 53.7202C86.1403 49.9702 85.2803 46.5102 84.0003 43.3802C81.7003 37.7502 77.4903 33.2702 72.3603 30.2302C68.2503 27.8002 63.5603 26.2902 58.7703 25.8602C54.0003 25.4202 49.1303 26.0502 44.6403 27.8802C39.3803 30.0302 34.6503 33.8502 31.2503 39.6002C28.6103 44.7202 27.3903 49.6202 27.3503 54.3302C27.3103 59.0702 28.4603 63.6602 30.5503 68.1302C32.6803 72.6902 35.5203 75.9302 38.2403 79.0502C42.4703 83.9002 46.4803 88.4902 47.8803 96.9502ZM65.6203 99.0202L48.3503 101.47C48.4003 102.57 48.4203 103.72 48.4003 104.94L65.4503 102.52C65.4703 101.29 65.5203 100.12 65.6203 99.0202ZM48.4903 109.52C48.6103 110.44 48.7903 111.28 49.0203 112.06L65.5703 110.02C65.6803 109.16 65.7003 108.25 65.6203 107.28V107.26L65.6103 107.09L48.4903 109.52ZM51.3703 116.36C52.0103 117.03 52.7203 117.55 53.4703 117.91C54.6203 118.47 55.8903 118.7 57.1403 118.63C58.4203 118.55 59.7103 118.16 60.8803 117.48C61.9803 116.84 62.9703 115.95 63.7603 114.83L51.3703 116.36Z" fill="white"/>
</g>
<defs>
<clipPath id="clip0_221_6">
<rect width="113.01" height="122.88" fill="white"/>
</clipPath>
</defs>
</svg>
