<svg width="512" height="512" viewBox="0 0 512 512" fill="none" xmlns="http://www.w3.org/2000/svg">
<path d="M33.4942 23.4938C34.6178 23.4828 35.7415 23.4717 36.8992 23.4604C38.1338 23.4686 39.3685 23.4768 40.6405 23.4853C42.6076 23.4749 42.6076 23.4749 44.6145 23.4643C48.2577 23.4456 51.9006 23.452 55.5439 23.4624C59.4717 23.4694 63.3995 23.4534 67.3273 23.4404C75.0231 23.4188 82.7187 23.4189 90.4145 23.4271C96.6678 23.4334 102.921 23.4322 109.174 23.4258C110.508 23.4244 110.508 23.4244 111.869 23.4231C113.675 23.4212 115.481 23.4193 117.287 23.4175C134.234 23.4009 151.18 23.4096 168.127 23.4265C183.641 23.4412 199.154 23.4265 214.667 23.3977C230.587 23.3683 246.507 23.3573 262.427 23.3669C264.226 23.3679 266.026 23.3689 267.826 23.3699C268.711 23.3703 269.597 23.3708 270.509 23.3713C276.757 23.3735 283.004 23.3636 289.251 23.3491C296.863 23.3316 304.473 23.3316 312.085 23.3544C315.97 23.3656 319.854 23.3687 323.739 23.3501C327.946 23.3303 332.152 23.349 336.359 23.3718C338.211 23.354 338.211 23.354 340.101 23.3359C348.328 23.4269 348.328 23.4269 351.759 26.3518C353.284 29.607 353.592 31.4451 353 35C351.485 37.652 351.485 37.652 349 40C346.052 40.4781 343.686 40.6354 340.743 40.5676C339.913 40.5684 339.084 40.5691 338.229 40.5698C335.491 40.5664 332.754 40.5275 330.016 40.4883C328.116 40.4789 326.216 40.4718 324.316 40.4668C319.318 40.4478 314.32 40.3986 309.323 40.3433C304.222 40.2921 299.121 40.2693 294.02 40.2441C284.013 40.1905 274.006 40.1052 264 40C264.011 40.9558 264.022 41.9116 264.034 42.8963C264.135 51.9012 264.21 60.906 264.259 69.9114C264.285 74.5413 264.321 79.1707 264.377 83.8003C264.431 88.2677 264.461 92.7347 264.474 97.2025C264.484 98.9074 264.502 100.612 264.529 102.317C264.565 104.704 264.57 107.09 264.568 109.478C264.595 110.536 264.595 110.536 264.622 111.616C264.583 115.326 264.262 116.732 261.628 119.429C258.815 121.11 256.923 121.596 253.687 121.937C246.468 123.065 241.45 125.713 237.062 131.625C233.233 137.891 233.413 143.818 234 151C235.512 156.971 238.997 160.414 243.996 163.82C247.307 165.77 250.518 166.706 254.266 167.449C255.464 167.691 255.464 167.691 256.687 167.938C257.434 168.07 258.18 168.203 258.949 168.34C261.534 169.172 262.393 169.79 264 172C264.28 174.523 264.379 176.796 264.341 179.317C264.341 180.059 264.341 180.801 264.342 181.565C264.34 184.016 264.316 186.467 264.293 188.918C264.287 190.618 264.283 192.317 264.28 194.017C264.269 198.49 264.239 202.963 264.206 207.437C264.17 212.804 264.156 218.171 264.139 223.539C264.11 231.693 264.052 239.846 264 248C285.12 247.67 306.24 247.34 328 247C329.32 243.37 330.64 239.74 332 236C339.456 224.889 348.322 218.269 361.5 215.469C373.166 213.823 383.966 216.882 393.41 223.754C401.288 230.264 405.209 237.23 408 247C439.68 247.495 439.68 247.495 472 248C472 179.36 472 110.72 472 40C446.92 40 421.84 40 396 40C392 35 392 35 391.5 32C392.145 28.1313 393.142 26.6912 396 24C399.011 23.5016 401.458 23.325 404.469 23.3689C405.321 23.3617 406.174 23.3546 407.052 23.3472C409.869 23.3303 412.683 23.3497 415.5 23.3711C417.458 23.3703 419.415 23.3678 421.373 23.3638C425.475 23.3609 429.577 23.3756 433.68 23.4031C438.939 23.4372 444.198 23.4311 449.457 23.4124C453.5 23.4018 457.542 23.4108 461.584 23.4258C463.523 23.431 465.463 23.4305 467.402 23.4242C470.112 23.4188 472.821 23.4392 475.531 23.4665C476.735 23.4568 476.735 23.4568 477.962 23.4468C481.335 23.5047 483.488 23.6061 486.206 25.6966C488.389 28.4988 488.502 29.85 488.506 33.3692C488.523 35.0129 488.523 35.0129 488.54 36.6899C488.527 38.4951 488.527 38.4951 488.515 40.3368C488.522 41.6155 488.529 42.8943 488.536 44.2118C488.554 47.7638 488.548 51.3155 488.538 54.8676C488.531 58.6972 488.547 62.5268 488.56 66.3565C488.581 73.8597 488.581 81.3629 488.573 88.8662C488.567 94.9631 488.568 101.06 488.574 107.157C488.575 108.024 488.576 108.891 488.577 109.784C488.579 111.545 488.581 113.306 488.582 115.067C488.599 131.591 488.59 148.113 488.574 164.637C488.559 179.762 488.573 194.887 488.602 210.013C488.632 225.535 488.643 241.057 488.633 256.579C488.632 258.334 488.631 260.089 488.63 261.843C488.63 262.707 488.629 263.57 488.629 264.46C488.626 270.551 488.636 276.642 488.651 282.733C488.668 290.154 488.668 297.574 488.646 304.995C488.634 308.783 488.631 312.571 488.65 316.358C488.67 320.46 488.651 324.561 488.628 328.663C488.64 329.867 488.652 331.07 488.664 332.31C488.573 340.332 488.573 340.332 485.648 343.74C482.392 345.289 480.565 345.594 477 345C474.348 343.439 474.348 343.439 472 341C471.52 338.281 471.363 336.19 471.432 333.478C471.432 332.726 471.431 331.974 471.43 331.2C471.434 328.721 471.472 326.244 471.512 323.766C471.521 322.045 471.528 320.324 471.533 318.604C471.552 314.079 471.601 309.555 471.657 305.031C471.708 300.413 471.731 295.794 471.756 291.176C471.809 282.117 471.895 273.058 472 264C471.057 264.009 470.113 264.018 469.142 264.027C460.254 264.108 451.367 264.168 442.48 264.207C437.91 264.228 433.342 264.256 428.772 264.302C424.363 264.345 419.955 264.369 415.545 264.38C413.863 264.387 412.18 264.401 410.498 264.423C408.142 264.452 405.787 264.456 403.431 264.454C402.734 264.468 402.038 264.483 401.321 264.498C397.987 264.469 396.274 264.209 393.592 262.161C391.537 259.372 391.102 257.024 390.5 253.625C389.441 248.414 388.25 245.146 385 241C385 240.34 385 239.68 385 239C384.464 238.732 383.927 238.464 383.375 238.188C381.652 237.326 379.957 236.408 378.281 235.457C372.673 232.967 367.016 233.233 361 234C358.5 235.075 356.588 236.235 354.453 237.906C353 239 353 239 351 239C347.503 245.726 345.407 252.009 343.844 259.426C343 262 343 262 340 264C337.522 264.184 335.159 264.252 332.683 264.227C331.941 264.227 331.199 264.228 330.435 264.228C327.984 264.227 325.533 264.211 323.082 264.195C321.382 264.192 319.683 264.189 317.983 264.187C313.51 264.179 309.037 264.159 304.563 264.137C299.999 264.117 295.434 264.108 290.869 264.098C281.913 264.076 272.956 264.042 264 264C264.009 264.58 264.018 265.16 264.027 265.757C264.115 271.792 264.176 277.826 264.22 283.861C264.24 286.113 264.267 288.365 264.302 290.618C264.35 293.855 264.373 297.091 264.391 300.328C264.411 301.336 264.432 302.343 264.453 303.381C264.455 310.368 264.455 310.368 262.101 313.634C259.84 315.104 258.675 315.542 256 315.5C255.01 315.515 255.01 315.515 254 315.531C250.868 314.699 249.916 313.657 248 311C247.429 307.444 247.535 303.922 247.609 300.328C247.613 299.408 247.617 298.488 247.622 297.541C247.642 294.11 247.698 290.68 247.75 287.25C247.832 279.577 247.915 271.905 248 264C226.88 264.33 205.76 264.66 184 265C182.68 268.63 181.36 272.26 180 276C172.544 287.111 163.678 293.731 150.5 296.531C138.833 298.177 128.034 295.118 118.59 288.246C110.712 281.736 106.791 274.77 104 265C72.32 264.505 72.32 264.505 40 264C40.0262 268.462 40.0523 272.925 40.0793 277.522C40.1621 292.243 40.2176 306.963 40.259 321.683C40.2848 330.611 40.32 339.538 40.3772 348.466C40.427 356.246 40.4593 364.026 40.4704 371.807C40.4769 375.927 40.4923 380.048 40.5286 384.168C40.5625 388.046 40.573 391.922 40.5655 395.8C40.5669 397.224 40.5769 398.648 40.596 400.072C40.6209 402.014 40.6119 403.957 40.6012 405.9C40.6059 406.988 40.6105 408.076 40.6152 409.196C40 412 40 412 37.6499 414.35C34.3878 416.381 32.78 416.63 29 416C26.3516 414.374 26.3516 414.374 24 412C23.3744 409.046 23.3744 409.046 23.3736 405.522C23.3666 404.87 23.3596 404.218 23.3524 403.547C23.3351 401.353 23.3536 399.161 23.3718 396.968C23.3667 395.383 23.3595 393.799 23.3503 392.214C23.3313 387.853 23.3436 383.491 23.361 379.13C23.3743 374.429 23.359 369.728 23.3472 365.027C23.3288 355.816 23.3373 346.604 23.3553 337.392C23.3693 329.908 23.3732 322.423 23.3698 314.938C23.3694 313.874 23.3689 312.81 23.3684 311.714C23.3674 309.553 23.3663 307.391 23.3652 305.23C23.3566 286.105 23.3734 266.98 23.4031 247.855C23.4319 229.285 23.439 210.715 23.4236 192.145C23.4068 171.937 23.4027 151.73 23.4203 131.522C23.4221 129.369 23.4239 127.215 23.4258 125.062C23.4267 124.002 23.4276 122.942 23.4285 121.851C23.4341 114.372 23.4308 106.894 23.4242 99.4159C23.4165 90.3061 23.4232 81.1965 23.4484 72.0867C23.4609 67.4361 23.467 62.7858 23.4559 58.1351C23.4459 53.8814 23.4542 49.6281 23.4774 45.3745C23.4826 43.8321 23.481 42.2898 23.472 40.7475C23.4609 38.6571 23.4742 36.5683 23.4938 34.4781C23.495 33.3153 23.4962 32.1525 23.4974 30.9544C24 28 24 28 25.6882 25.6267C28.5228 23.6321 30.047 23.4981 33.4942 23.4938ZM40 40C40 77.29 40 114.58 40 153C46.0812 147.788 46.0812 147.788 51.5 142.125C52.2631 141.261 53.0262 140.398 53.8125 139.508C54.8953 138.266 54.8953 138.266 56 137C56.5981 136.317 57.1962 135.634 57.8125 134.93C58.9388 133.642 60.0638 132.353 61.1875 131.062C64.0315 127.826 66.9261 124.636 69.8125 121.437C71.7255 119.306 73.6188 117.16 75.5 115C78.1369 111.972 80.8101 108.981 83.5 106C84.2528 105.163 85.0056 104.327 85.7812 103.465C87.2158 101.871 88.6532 100.28 90.0937 98.6914C90.7228 97.9889 91.3519 97.2863 92 96.5625C92.5569 95.945 93.1137 95.3276 93.6875 94.6914C95.2102 92.9221 95.2102 92.9221 96 90C99.644 88.7853 103.246 88.0786 107 89C110.74 92.3023 113.92 96.1221 117.125 99.9375C117.6 100.501 118.075 101.065 118.565 101.645C122.383 106.203 126.072 110.854 129.724 115.545C133.34 120.184 137.031 124.756 140.75 129.312C145.242 134.818 149.686 140.353 154 146C157.118 144.626 159.119 143.082 161.426 140.586C162.058 139.907 162.69 139.227 163.342 138.527C163.992 137.817 164.642 137.107 165.312 136.375C165.951 135.688 166.59 135.001 167.248 134.293C167.884 133.606 168.52 132.919 169.176 132.211C169.816 131.524 170.456 130.836 171.116 130.128C173.035 128.02 173.035 128.02 174.724 125.692C178.724 120.46 178.724 120.46 182.083 119.249C189.208 118.614 193.887 122.902 199.125 127.187C200.836 128.536 202.547 129.883 204.258 131.23C205.463 132.196 205.463 132.196 206.692 133.181C209.721 135.568 212.838 137.793 216 140C216.329 138.749 216.329 138.749 216.664 137.473C220.076 125.365 224.939 117.641 235 110C239.29 108.35 243.58 106.7 248 105C248 83.55 248 62.1 248 40C179.36 40 110.72 40 40 40ZM99.207 112.781C98.0697 114.016 96.9385 115.255 95.8125 116.5C95.2224 117.144 94.6323 117.788 94.0244 118.452C90.5241 122.284 87.0635 126.149 83.6718 130.078C81.6424 132.411 79.5723 134.705 77.5 137C74.8101 139.981 72.1369 142.972 69.5 146C64.6285 151.59 59.641 157.075 54.6719 162.578C50.5144 167.188 46.385 171.819 42.3125 176.504C41.5645 177.357 40.802 178.198 40 179C39.9057 181.147 39.8825 183.298 39.8864 185.448C39.8863 186.121 39.8862 186.794 39.886 187.487C39.8867 189.722 39.8945 191.957 39.9023 194.191C39.9042 195.737 39.9056 197.283 39.9066 198.828C39.9104 202.904 39.9203 206.979 39.9313 211.054C39.9415 215.21 39.9461 219.366 39.9511 223.521C39.9619 231.681 39.979 239.84 40 248C40.9454 248.006 41.8909 248.012 42.865 248.018C51.7675 248.075 60.6698 248.148 69.572 248.236C74.149 248.28 78.7259 248.32 83.303 248.346C87.7187 248.372 92.134 248.413 96.5495 248.463C98.2356 248.48 99.9217 248.491 101.608 248.498C103.967 248.507 106.324 248.535 108.683 248.568C109.383 248.566 110.083 248.565 110.804 248.563C113.642 248.619 115.553 248.684 117.909 250.349C119.543 252.822 119.851 255.285 120.375 258.188C122.08 266.047 124.235 271.475 131.125 275.938C137.64 279.677 145.032 280.313 152.32 278.387C158.384 275.688 163.303 270.64 166.102 264.637C167.451 260.676 168.303 256.626 169.219 252.547C169.477 251.706 169.734 250.866 170 250C172.954 248.523 175.963 248.821 179.204 248.795C179.945 248.785 180.687 248.775 181.451 248.765C183.907 248.733 186.364 248.708 188.82 248.684C190.521 248.663 192.222 248.642 193.924 248.621C198.405 248.565 202.886 248.516 207.368 248.468C212.743 248.409 218.118 248.343 223.492 248.277C231.662 248.179 239.831 248.091 248 248C248 226.88 248 205.76 248 184C244.37 182.68 240.74 181.36 237 180C231.96 176.821 228.534 173.516 224.687 169C218.203 161.645 210.27 156.328 202.319 150.67C198.927 148.227 195.614 145.688 192.312 143.125C191.277 142.323 190.242 141.521 189.176 140.695C188.458 140.136 187.74 139.576 187 139C182.998 140.578 180.768 143.198 177.937 146.375C176.969 147.453 176 148.531 175.031 149.609C174.535 150.166 174.039 150.722 173.527 151.295C171.021 154.093 168.478 156.858 165.937 159.625C165.473 160.133 165.008 160.642 164.529 161.166C158.781 167.447 158.781 167.447 155.062 167.938C151.345 167.848 150.141 167.128 147.348 164.59C144.883 161.795 142.623 158.848 140.394 155.864C138.644 153.524 136.835 151.234 135.023 148.942C134.124 147.803 133.23 146.662 132.339 145.517C128.053 140.014 123.606 134.649 119.148 129.284C114.552 123.731 110.176 118.042 105.891 112.246C105.267 111.505 104.643 110.764 104 110C101.579 109.765 101.579 109.765 99.207 112.781Z" fill="white"/>
<path d="M328.351 279.492C329.436 279.481 330.521 279.47 331.639 279.458C333.418 279.47 333.418 279.47 335.232 279.482C336.484 279.475 337.737 279.468 339.027 279.461C342.459 279.447 345.89 279.45 349.322 279.463C352.915 279.473 356.507 279.463 360.099 279.457C366.132 279.45 372.164 279.459 378.196 279.479C385.17 279.5 392.143 279.493 399.116 279.471C405.104 279.453 411.092 279.45 417.081 279.461C420.657 279.467 424.233 279.468 427.809 279.455C431.795 279.441 435.781 279.46 439.767 279.482C440.953 279.474 442.138 279.466 443.36 279.458C444.988 279.475 444.988 279.475 446.648 279.492C447.591 279.494 448.533 279.495 449.504 279.497C452.88 280.178 454.014 281.198 456 284C456.503 287.105 456.503 287.105 456.508 290.832C456.514 291.519 456.52 292.205 456.526 292.913C456.542 295.213 456.53 297.512 456.517 299.813C456.523 301.462 456.53 303.111 456.538 304.76C456.557 309.24 456.55 313.719 456.537 318.198C456.527 322.883 456.536 327.569 456.542 332.254C456.55 340.122 456.54 347.991 456.521 355.859C456.499 364.959 456.506 374.059 456.528 383.159C456.547 390.969 456.549 398.779 456.539 406.589C456.532 411.255 456.532 415.92 456.545 420.586C456.556 424.973 456.548 429.359 456.525 433.745C456.52 435.356 456.521 436.967 456.53 438.578C456.541 440.775 456.528 442.971 456.508 445.168C456.506 446.398 456.505 447.628 456.503 448.895C456 452 456 452 454.302 454.395C451.513 456.339 450.029 456.503 446.648 456.508C445.563 456.519 444.478 456.53 443.36 456.542C442.174 456.534 440.989 456.526 439.767 456.518C437.889 456.528 437.889 456.528 435.972 456.539C432.54 456.553 429.109 456.55 425.677 456.537C422.085 456.527 418.492 456.537 414.9 456.543C408.868 456.55 402.835 456.541 396.803 456.521C389.829 456.5 382.857 456.507 375.883 456.529C369.895 456.547 363.907 456.549 357.919 456.539C354.342 456.533 350.767 456.532 347.191 456.545C343.204 456.559 339.218 456.54 335.232 456.518C334.046 456.526 332.861 456.534 331.639 456.542C330.554 456.531 329.469 456.52 328.351 456.508C327.409 456.506 326.466 456.505 325.495 456.503C322.119 455.822 320.985 454.802 319 452C318.496 448.895 318.496 448.895 318.492 445.168C318.482 444.138 318.482 444.138 318.473 443.087C318.457 440.787 318.469 438.488 318.482 436.188C318.477 434.538 318.47 432.889 318.461 431.24C318.443 426.76 318.45 422.281 318.462 417.802C318.472 413.117 318.463 408.431 318.457 403.746C318.45 395.878 318.459 388.009 318.478 380.141C318.5 371.041 318.493 361.941 318.471 352.841C318.453 345.031 318.45 337.221 318.461 329.411C318.467 324.745 318.468 320.08 318.454 315.414C318.443 311.027 318.451 306.641 318.474 302.255C318.479 300.644 318.478 299.033 318.469 297.422C318.458 295.225 318.472 293.029 318.492 290.832C318.493 289.602 318.495 288.372 318.496 287.105C319 284 319 284 320.697 281.605C323.487 279.661 324.97 279.497 328.351 279.492ZM336 296C336 303.92 336 311.84 336 320C350.19 320.33 364.38 320.66 379 321C379 312.75 379 304.5 379 296C364.81 296 350.62 296 336 296ZM396 296C396 304.25 396 312.5 396 321C410.52 321 425.04 321 440 321C440 312.75 440 304.5 440 296C425.48 296 410.96 296 396 296ZM336 337C336 344.59 336 352.18 336 360C350.19 360 364.38 360 379 360C379.02 356.391 379.041 352.781 379.062 349.062C379.071 347.923 379.08 346.784 379.09 345.61C379.092 344.719 379.095 343.828 379.097 342.91C379.103 341.994 379.108 341.077 379.113 340.133C379.239 338.016 379.239 338.016 378 337C374.897 336.911 371.817 336.885 368.714 336.902C367.784 336.904 366.853 336.905 365.894 336.907C362.908 336.912 359.923 336.925 356.937 336.938C354.918 336.943 352.899 336.947 350.88 336.951C345.92 336.961 340.96 336.981 336 337ZM396 338C396 345.26 396 352.52 396 360C410.52 360 425.04 360 440 360C440 352.74 440 345.48 440 338C425.48 338 410.96 338 396 338ZM336 376C336 383.26 336 390.52 336 398C350.19 398 364.38 398 379 398C379 390.74 379 383.48 379 376C364.81 376 350.62 376 336 376ZM396 376C396 383.26 396 390.52 396 398C410.52 398 425.04 398 440 398C440 390.74 440 383.48 440 376C425.48 376 410.96 376 396 376ZM336 414C336 422.58 336 431.16 336 440C350.19 440 364.38 440 379 440C379 431.42 379 422.84 379 414C364.81 414 350.62 414 336 414ZM396 414C396 422.58 396 431.16 396 440C410.52 440 425.04 440 440 440C440 431.42 440 422.84 440 414C425.48 414 410.96 414 396 414Z" fill="white"/>
<path d="M285 339C290.946 343.449 294.229 351.008 296 358C297.583 370.02 296.581 381.217 289.355 391.293C287.665 393.326 285.903 395.167 284 397C283.454 397.554 282.909 398.109 282.347 398.68C277.407 403.352 270.921 407 264 407C264 428.45 264 449.9 264 472C332.64 472 401.28 472 472 472C472 444.28 472 416.56 472 388C477 384 477 384 480 383.5C483.896 384.15 485.31 385.091 488 388C488.746 391.062 488.673 394.065 488.631 397.203C488.641 398.599 488.641 398.599 488.652 400.023C488.669 403.099 488.65 406.174 488.628 409.25C488.629 411.387 488.632 413.524 488.636 415.661C488.639 420.14 488.624 424.619 488.596 429.098C488.562 434.842 488.568 440.584 488.587 446.328C488.598 450.741 488.589 455.154 488.574 459.567C488.569 461.685 488.569 463.803 488.575 465.921C488.581 468.88 488.56 471.838 488.533 474.797C488.543 476.112 488.543 476.112 488.553 477.455C488.534 478.666 488.534 478.666 488.514 479.901C488.511 480.6 488.509 481.3 488.506 482.02C487.74 485.014 486.428 486.104 484 488C481.327 488.392 479.067 488.538 476.397 488.503C475.624 488.509 474.85 488.515 474.054 488.521C471.447 488.536 468.841 488.522 466.234 488.508C464.352 488.513 462.471 488.519 460.589 488.527C455.407 488.544 450.225 488.535 445.042 488.523C439.458 488.514 433.874 488.528 428.29 488.539C417.345 488.557 406.401 488.553 395.457 488.541C386.565 488.532 377.673 488.531 368.781 488.535C367.517 488.536 366.253 488.537 364.951 488.537C362.384 488.538 359.816 488.54 357.249 488.541C333.844 488.552 310.438 488.541 287.033 488.52C265.657 488.501 244.281 488.502 222.906 488.522C198.901 488.543 174.897 488.551 150.892 488.539C148.334 488.538 145.776 488.537 143.218 488.535C141.33 488.534 141.33 488.534 139.404 488.533C130.519 488.53 121.634 488.536 112.75 488.545C101.927 488.556 91.1046 488.553 80.2821 488.532C74.7566 488.522 69.2313 488.518 63.7057 488.531C58.6527 488.543 53.6 488.536 48.5469 488.515C46.7139 488.51 44.8808 488.513 43.0478 488.522C40.5654 488.534 38.0844 488.522 35.6021 488.503C34.5222 488.517 34.5222 488.517 33.4205 488.532C30.0384 488.481 28.2801 488.214 25.5577 486.136C22.4666 481.898 23.3886 476.55 23.4371 471.5C23.4132 470.359 23.3894 469.218 23.3648 468.043C23.3795 459.726 23.3795 459.726 26.3472 456.25C29.605 454.715 31.4388 454.407 34.9996 455C36.6496 456.32 38.2996 457.64 39.9996 459C39.9996 463.29 39.9996 467.58 39.9996 472C108.64 472 177.28 472 248 472C248 446.59 248 421.18 248 395C253.523 390.581 253.523 390.581 258.25 390.125C264.824 389.114 270.005 386.443 274.41 381.379C278.801 375.068 278.656 368.422 278 361C276.733 357.063 274.95 353.95 272 351C271.699 348.941 271.699 348.941 271.687 346.563C271.67 345.78 271.654 344.998 271.636 344.191C272.086 341.481 272.841 340.653 275 339C278.924 337.692 280.997 337.915 285 339Z" fill="white"/>
<path d="M88.6557 327.86C90.1658 327.851 90.1658 327.851 91.7065 327.842C92.8202 327.841 93.934 327.84 95.0815 327.839C96.8302 327.832 96.8302 327.832 98.6141 327.824C101.821 327.812 105.027 327.804 108.234 327.8C110.908 327.796 113.582 327.79 116.256 327.784C121.843 327.772 127.431 327.765 133.018 327.761C140.251 327.757 147.484 327.739 154.718 327.71C160.303 327.689 165.889 327.678 171.474 327.677C174.813 327.676 178.151 327.669 181.49 327.652C185.213 327.635 188.936 327.637 192.66 327.644C194.324 327.63 194.324 327.63 196.022 327.616C197.035 327.621 198.047 327.627 199.09 327.633C199.971 327.631 200.852 327.63 201.76 327.628C204.505 328.084 205.36 328.781 207 331C208.027 334.963 208.406 337.111 206.688 340.875C205 343 205 343 203 344C201.366 344.09 199.728 344.118 198.091 344.114C197.07 344.114 196.049 344.113 194.998 344.113C193.34 344.106 193.34 344.106 191.648 344.098C190.519 344.096 189.39 344.095 188.227 344.093C184.609 344.088 180.992 344.075 177.375 344.063C174.927 344.058 172.479 344.053 170.031 344.049C164.021 344.038 158.01 344.021 152 344C152.004 344.553 152.007 345.106 152.011 345.676C152.1 359.129 152.165 372.583 152.207 386.037C152.228 392.543 152.256 399.05 152.302 405.556C152.345 411.832 152.369 418.108 152.38 424.385C152.387 426.782 152.401 429.179 152.423 431.576C152.452 434.928 152.456 438.28 152.454 441.632C152.468 442.627 152.483 443.623 152.498 444.649C152.457 451.372 152.457 451.372 150.097 454.615C147.837 456.108 146.686 456.542 144 456.5C143.01 456.516 143.01 456.516 142 456.531C138.883 455.703 137.916 454.632 136 452C135.404 448.548 135.495 445.126 135.546 441.632C135.545 440.578 135.545 439.524 135.544 438.438C135.547 434.953 135.578 431.469 135.609 427.984C135.617 425.569 135.623 423.153 135.627 420.737C135.642 414.378 135.681 408.02 135.725 401.661C135.766 395.172 135.785 388.684 135.805 382.195C135.848 369.463 135.915 356.732 136 344C135.355 344.007 134.71 344.013 134.046 344.02C127.347 344.087 120.648 344.132 113.948 344.165C111.446 344.18 108.945 344.2 106.443 344.226C102.851 344.263 99.2599 344.28 95.668 344.293C94.546 344.309 93.4241 344.324 92.2681 344.34C90.7068 344.34 90.7068 344.34 89.114 344.341C88.1969 344.347 87.2798 344.354 86.3349 344.361C84 344 84 344 82.2351 342.69C80.1963 339.901 80.1171 337.395 80 334C82.3713 329.042 83.3051 327.878 88.6557 327.86Z" fill="white"/>
<path d="M309.503 183.492C310.622 183.481 311.741 183.47 312.894 183.458C314.728 183.47 314.728 183.47 316.6 183.482C318.537 183.472 318.537 183.472 320.513 183.461C324.052 183.443 327.591 183.45 331.13 183.463C334.835 183.473 338.539 183.463 342.244 183.457C348.464 183.45 354.685 183.46 360.906 183.479C368.097 183.5 375.288 183.493 382.48 183.471C388.655 183.453 394.83 183.451 401.005 183.461C404.693 183.467 408.38 183.468 412.068 183.455C416.179 183.441 420.289 183.46 424.4 183.482C425.623 183.474 426.846 183.466 428.106 183.458C429.785 183.475 429.785 183.475 431.497 183.492C432.469 183.494 433.441 183.495 434.442 183.497C437.729 184.144 438.924 185.428 441 188C441.531 190 441.531 190 441.5 192C441.515 192.99 441.515 192.99 441.531 194C440.756 196.919 439.31 198.094 437 200C434.442 200.503 434.442 200.503 431.497 200.508C429.819 200.525 429.819 200.525 428.106 200.542C426.272 200.53 426.272 200.53 424.4 200.518C422.463 200.528 422.463 200.528 420.487 200.539C416.948 200.557 413.409 200.55 409.87 200.537C406.165 200.527 402.461 200.537 398.756 200.543C392.536 200.55 386.315 200.541 380.094 200.522C372.903 200.5 365.712 200.507 358.52 200.529C352.345 200.547 346.17 200.55 339.995 200.539C336.307 200.533 332.62 200.532 328.932 200.545C324.821 200.559 320.711 200.54 316.6 200.518C315.377 200.526 314.154 200.534 312.894 200.542C311.775 200.531 310.656 200.52 309.503 200.508C308.531 200.506 307.559 200.505 306.558 200.503C303.271 199.857 302.076 198.573 300 196C299.469 194 299.469 194 299.5 192C299.485 191.01 299.485 191.01 299.469 190C300.851 184.795 304.556 183.5 309.503 183.492Z" fill="white"/>
<path d="M309.503 151.492C310.622 151.481 311.741 151.47 312.894 151.458C314.728 151.47 314.728 151.47 316.6 151.482C318.537 151.472 318.537 151.472 320.513 151.461C324.052 151.443 327.591 151.45 331.13 151.463C334.835 151.473 338.539 151.463 342.244 151.457C348.464 151.45 354.685 151.46 360.906 151.479C368.097 151.5 375.288 151.493 382.48 151.471C388.655 151.453 394.83 151.451 401.005 151.461C404.693 151.467 408.38 151.468 412.068 151.455C416.179 151.441 420.289 151.46 424.4 151.482C425.623 151.474 426.846 151.466 428.106 151.458C429.785 151.475 429.785 151.475 431.497 151.492C432.469 151.494 433.441 151.495 434.442 151.497C437.729 152.144 438.924 153.428 441 156C441.531 158 441.531 158 441.5 160C441.515 160.99 441.515 160.99 441.531 162C440.756 164.919 439.31 166.094 437 168C434.442 168.503 434.442 168.503 431.497 168.508C429.819 168.525 429.819 168.525 428.106 168.542C426.272 168.53 426.272 168.53 424.4 168.518C422.463 168.528 422.463 168.528 420.487 168.539C416.948 168.557 413.409 168.55 409.87 168.537C406.165 168.527 402.461 168.537 398.756 168.543C392.536 168.55 386.315 168.541 380.094 168.522C372.903 168.5 365.712 168.507 358.52 168.529C352.345 168.547 346.17 168.55 339.995 168.539C336.307 168.533 332.62 168.532 328.932 168.545C324.821 168.559 320.711 168.54 316.6 168.518C315.377 168.526 314.154 168.534 312.894 168.542C311.775 168.531 310.656 168.52 309.503 168.508C308.531 168.506 307.559 168.505 306.558 168.503C303.271 167.857 302.076 166.573 300 164C299.469 162 299.469 162 299.5 160C299.485 159.01 299.485 159.01 299.469 158C300.851 152.795 304.556 151.5 309.503 151.492Z" fill="white"/>
<path d="M309.503 119.492C310.622 119.481 311.741 119.47 312.894 119.458C314.728 119.47 314.728 119.47 316.6 119.482C318.537 119.472 318.537 119.472 320.513 119.461C324.052 119.443 327.591 119.45 331.13 119.463C334.835 119.473 338.539 119.463 342.244 119.457C348.464 119.45 354.685 119.46 360.906 119.479C368.097 119.5 375.288 119.493 382.48 119.471C388.655 119.453 394.83 119.451 401.005 119.461C404.693 119.467 408.38 119.468 412.068 119.455C416.179 119.441 420.289 119.46 424.4 119.482C425.623 119.474 426.846 119.466 428.106 119.458C429.785 119.475 429.785 119.475 431.497 119.492C432.469 119.494 433.441 119.495 434.442 119.497C437.729 120.144 438.924 121.428 441 124C441.531 126 441.531 126 441.5 128C441.515 128.99 441.515 128.99 441.531 130C440.756 132.919 439.31 134.094 437 136C434.442 136.503 434.442 136.503 431.497 136.508C429.819 136.525 429.819 136.525 428.106 136.542C426.272 136.53 426.272 136.53 424.4 136.518C422.463 136.528 422.463 136.528 420.487 136.539C416.948 136.557 413.409 136.55 409.87 136.537C406.165 136.527 402.461 136.537 398.756 136.543C392.536 136.55 386.315 136.541 380.094 136.522C372.903 136.5 365.712 136.507 358.52 136.529C352.345 136.547 346.17 136.55 339.995 136.539C336.307 136.533 332.62 136.532 328.932 136.545C324.821 136.559 320.711 136.54 316.6 136.518C315.377 136.526 314.154 136.534 312.894 136.542C311.775 136.531 310.656 136.52 309.503 136.508C308.531 136.506 307.559 136.505 306.558 136.503C303.271 135.857 302.076 134.573 300 132C299.469 130 299.469 130 299.5 128C299.485 127.01 299.485 127.01 299.469 126C300.851 120.795 304.556 119.5 309.503 119.492Z" fill="white"/>
<path d="M309.503 87.4921C310.622 87.4809 311.741 87.4696 312.894 87.458C314.728 87.4701 314.728 87.4701 316.6 87.4825C318.537 87.472 318.537 87.472 320.513 87.4612C324.052 87.443 327.591 87.4501 331.13 87.4628C334.835 87.4729 338.539 87.4635 342.244 87.4572C348.464 87.4499 354.685 87.4595 360.906 87.4786C368.097 87.5004 375.288 87.4933 382.48 87.4713C388.655 87.4531 394.83 87.4506 401.005 87.461C404.693 87.4673 408.38 87.4681 412.068 87.4549C416.179 87.4412 420.289 87.4602 424.4 87.4825C425.623 87.4744 426.846 87.4663 428.106 87.458C429.785 87.4749 429.785 87.4749 431.497 87.4921C432.469 87.4936 433.441 87.4951 434.442 87.4967C437.729 88.1436 438.924 89.4276 441 92.0001C441.531 94.0001 441.531 94.0001 441.5 96.0001C441.515 96.9901 441.515 96.9901 441.531 98.0001C440.756 100.919 439.31 102.094 437 104C434.442 104.503 434.442 104.503 431.497 104.508C429.819 104.525 429.819 104.525 428.106 104.542C426.272 104.53 426.272 104.53 424.4 104.518C422.463 104.528 422.463 104.528 420.487 104.539C416.948 104.557 413.409 104.55 409.87 104.537C406.165 104.527 402.461 104.537 398.756 104.543C392.536 104.55 386.315 104.541 380.094 104.522C372.903 104.5 365.712 104.507 358.52 104.529C352.345 104.547 346.17 104.55 339.995 104.539C336.307 104.533 332.62 104.532 328.932 104.545C324.821 104.559 320.711 104.54 316.6 104.518C315.377 104.526 314.154 104.534 312.894 104.542C311.775 104.531 310.656 104.52 309.503 104.508C308.531 104.506 307.559 104.505 306.558 104.503C303.271 103.857 302.076 102.573 300 100C299.469 98.0001 299.469 98.0001 299.5 96.0001C299.485 95.0101 299.485 95.0101 299.469 94.0001C300.851 88.7952 304.556 87.4998 309.503 87.4921Z" fill="white"/>
<path d="M309.503 55.4921C310.622 55.4809 311.741 55.4696 312.894 55.458C314.728 55.4701 314.728 55.4701 316.6 55.4825C318.537 55.472 318.537 55.472 320.513 55.4612C324.052 55.443 327.591 55.4501 331.13 55.4628C334.835 55.4729 338.539 55.4635 342.244 55.4572C348.464 55.4499 354.685 55.4595 360.906 55.4786C368.097 55.5004 375.288 55.4933 382.48 55.4713C388.655 55.4531 394.83 55.4506 401.005 55.461C404.693 55.4673 408.38 55.4681 412.068 55.4549C416.179 55.4412 420.289 55.4602 424.4 55.4825C425.623 55.4744 426.846 55.4663 428.106 55.458C429.785 55.4749 429.785 55.4749 431.497 55.4921C432.469 55.4936 433.441 55.4951 434.442 55.4967C437.729 56.1436 438.924 57.4276 441 60.0001C441.531 62.0001 441.531 62.0001 441.5 64.0001C441.515 64.9901 441.515 64.9901 441.531 66.0001C440.756 68.9185 439.31 70.0938 437 72.0001C434.442 72.5034 434.442 72.5034 431.497 72.508C429.819 72.5249 429.819 72.5249 428.106 72.5422C426.272 72.53 426.272 72.53 424.4 72.5176C422.463 72.5282 422.463 72.5282 420.487 72.5389C416.948 72.5571 413.409 72.5501 409.87 72.5374C406.165 72.5272 402.461 72.5366 398.756 72.5429C392.536 72.5502 386.315 72.5406 380.094 72.5215C372.903 72.4998 365.712 72.5068 358.52 72.5289C352.345 72.547 346.17 72.5496 339.995 72.5391C336.307 72.5329 332.62 72.532 328.932 72.5452C324.821 72.5589 320.711 72.54 316.6 72.5176C315.377 72.5257 314.154 72.5338 312.894 72.5422C311.775 72.5309 310.656 72.5196 309.503 72.508C308.531 72.5065 307.559 72.505 306.558 72.5034C303.271 71.8565 302.076 70.5726 300 68.0001C299.469 66.0001 299.469 66.0001 299.5 64.0001C299.485 63.0101 299.485 63.0101 299.469 62.0001C300.851 56.7952 304.556 55.4998 309.503 55.4921Z" fill="white"/>
<path d="M172.5 53.5626C178.063 56.9293 182.033 61.8146 184 68.0001C184.81 75.8792 185.068 83.5484 180 90.0001C175.419 95.3105 169.965 98.1406 163 99.0001C156.226 98.7182 150.144 97.6544 145 93.0001C139.943 87.5031 137.065 82.3192 136.973 74.7775C137.464 67.4277 139.931 61.58 145.438 56.6251C152.655 50.6301 163.978 49.722 172.5 53.5626ZM155.5 71.1251C153.689 73.9376 153.689 73.9376 154.375 77.1876C155.802 80.198 155.802 80.198 158.812 81.6251C162.063 82.3107 162.063 82.3107 164.875 80.5001C167.247 78.1458 167.247 78.1458 167.5 74.9376C167.194 72.0667 167.194 72.0667 165.875 70.1251C161.892 67.7353 158.959 68.1853 155.5 71.1251Z" fill="white"/>
<path d="M264 328C266.438 329.563 266.438 329.563 268 332C268.8 336.016 268.618 338.969 266.5 342.5C263.011 344.594 259.901 344.881 256 344C253 341.938 253 341.938 251 339C250.438 335.438 250.438 335.438 251 332C255.013 326.918 257.775 326.605 264 328Z" fill="white"/>
<path d="M35.0004 431C37.8754 432.438 37.8754 432.438 40.0004 435C40.7157 438.144 40.7157 440.856 40.0004 444C37.4557 447.069 35.911 447.848 32.0004 448.5C28.0898 447.848 26.5451 447.069 24.0004 444C23.285 440.856 23.285 438.144 24.0004 435C27.2291 431.107 30.0368 430.173 35.0004 431Z" fill="white"/>
<path d="M483 352C485.875 353.438 485.875 353.438 488 356C488.716 359.144 488.716 361.856 488 365C485.456 368.069 483.911 368.848 480 369.5C476.09 368.848 474.545 368.069 472 365C471.285 361.856 471.285 359.144 472 356C475.229 352.107 478.037 351.173 483 352Z" fill="white"/>
<path d="M370.871 23.5156C373 24 373 24 375.562 26.125C377.254 29.5084 377.622 31.2683 377 35C375.562 37.875 375.562 37.875 373 40C369.856 40.7154 367.144 40.7154 364 40C360.931 37.4553 360.152 35.9106 359.5 32C360.664 25.0161 364.218 23.1211 370.871 23.5156Z" fill="white"/>
</svg>
