<svg width="512" height="512" viewBox="0 0 512 512" fill="none" xmlns="http://www.w3.org/2000/svg">
<path d="M288 52.0002C288.644 52.2199 289.288 52.4395 289.952 52.6658C315.781 61.6772 337.909 80.3666 350.031 105.016C362.184 131.041 364.125 160.767 354.644 187.934C350.096 200.354 343.492 210.908 335 221C334.237 222.011 333.474 223.021 332.687 224.063C318.97 239.056 300.385 248.713 281 254C280.67 259.94 280.34 265.88 280 272C281.98 272.33 283.96 272.66 286 273C288.123 276.184 288.28 277.206 288.414 280.887C288.453 281.825 288.491 282.763 288.531 283.729C288.578 285.193 288.578 285.193 288.625 286.688C288.664 287.676 288.702 288.664 288.742 289.682C288.836 292.121 288.922 294.56 289 297C289.987 296.757 289.987 296.757 290.994 296.509C294.705 295.881 298.34 295.852 302.091 295.853C302.901 295.849 303.711 295.846 304.546 295.842C307.257 295.831 309.968 295.827 312.68 295.823C314.625 295.817 316.57 295.81 318.515 295.803C324.896 295.782 331.278 295.772 337.66 295.762C339.857 295.758 342.054 295.754 344.251 295.75C354.565 295.731 364.88 295.716 375.194 295.708C387.109 295.698 399.023 295.672 410.938 295.631C420.145 295.601 429.351 295.587 438.558 295.583C444.059 295.581 449.56 295.572 455.061 295.547C460.231 295.524 465.401 295.519 470.571 295.53C472.471 295.53 474.371 295.524 476.27 295.51C478.859 295.492 481.447 295.499 484.036 295.512C484.791 295.502 485.546 295.491 486.325 295.479C489.651 295.52 491.68 295.785 494.466 297.661C496.404 300.617 496.503 302.395 496.508 305.921C496.525 307.738 496.525 307.738 496.542 309.592C496.534 310.931 496.526 312.27 496.517 313.61C496.523 315.022 496.53 316.435 496.539 317.848C496.557 321.683 496.55 325.517 496.537 329.352C496.527 333.365 496.536 337.377 496.543 341.39C496.55 348.129 496.54 354.867 496.521 361.606C496.5 369.397 496.507 377.188 496.529 384.979C496.547 391.668 496.549 398.357 496.539 405.046C496.533 409.041 496.532 413.036 496.545 417.031C496.557 420.788 496.549 424.543 496.526 428.299C496.52 429.678 496.522 431.057 496.531 432.435C496.541 434.317 496.525 436.198 496.508 438.079C496.506 439.659 496.506 439.659 496.503 441.27C496 444 496 444 494.482 446.34C490.997 448.671 487.825 448.542 483.774 448.481C482.938 448.485 482.101 448.488 481.24 448.492C478.432 448.498 475.626 448.476 472.819 448.454C470.809 448.453 468.798 448.454 466.788 448.456C461.325 448.457 455.863 448.434 450.401 448.406C444.694 448.381 438.987 448.378 433.28 448.374C422.471 448.361 411.663 448.328 400.854 448.288C388.549 448.244 376.245 448.222 363.94 448.202C338.627 448.16 313.313 448.089 288 448C288.008 448.6 288.017 449.2 288.025 449.818C288.059 452.567 288.08 455.317 288.1 458.066C288.121 459.482 288.121 459.482 288.141 460.925C288.184 468.504 287.094 474.498 284.25 481.563C283.902 482.531 283.554 483.5 283.195 484.498C279.95 493.169 279.95 493.169 276 496C272.999 496.587 270.05 496.561 267 496.531C266.127 496.535 265.255 496.539 264.355 496.543C262.513 496.546 260.67 496.538 258.828 496.522C256.009 496.5 253.193 496.522 250.375 496.547C248.583 496.544 246.792 496.539 245 496.531C244.158 496.54 243.316 496.548 242.449 496.556C236.646 496.463 236.646 496.463 233.571 494.26C230.827 490.313 229.348 486.073 227.75 481.563C227.392 480.555 227.034 479.546 226.666 478.508C223.311 468.26 223.208 458.66 224 448C223.01 448.047 222.02 448.093 221 448.141C206.638 448.621 206.638 448.621 201 444C195.958 439.189 192.395 434.843 191.664 427.731C191.546 417.004 191.546 417.004 194.125 412.438C196.368 409.232 196.368 409.232 195.375 406.313C194.694 405.168 194.694 405.168 194 404C191.087 397.918 191.342 391.606 192 385C192.969 382.485 192.969 382.485 194.125 380.438C196.368 377.232 196.368 377.232 195.375 374.313C194.694 373.168 194.694 373.168 194 372C191.087 365.918 191.342 359.606 192 353C192.969 350.485 192.969 350.485 194.125 348.438C196.368 345.232 196.368 345.232 195.375 342.313C194.694 341.168 194.694 341.168 194 340C190.866 333.457 190.854 325.541 192.617 318.555C195.297 312.507 200.464 307.853 206.266 304.813C209.805 303.761 213.16 303.784 216.812 303.875C217.505 303.884 218.198 303.893 218.912 303.903C220.608 303.926 222.304 303.962 224 304C223.968 302.759 223.968 302.759 223.936 301.493C223.853 297.746 223.801 293.998 223.75 290.25C223.716 288.948 223.683 287.646 223.648 286.305C223.629 284.429 223.629 284.429 223.609 282.516C223.578 280.788 223.578 280.788 223.546 279.025C224 276 224 276 225.774 273.593C228 272 228 272 232 272C231.505 263.09 231.505 263.09 231 254C228.298 253.155 225.596 252.309 222.812 251.438C209.612 247.114 198.891 240.67 188 232C187.091 231.306 187.091 231.306 186.164 230.598C167.21 215.705 155.363 190.462 152 167C150.338 134.982 155.934 109.356 176 84.0002C176.503 83.3415 177.005 82.6828 177.523 82.0041C202.307 50.9888 251.161 39.3688 288 52.0002ZM196 88.0002C195.368 88.5507 194.737 89.1011 194.086 89.6682C179.076 103.547 169.592 125.007 168.621 145.231C167.926 170.513 174.304 191.777 191 211C191.646 211.747 192.292 212.493 192.957 213.262C208.023 229.406 230.64 238.949 252.535 240.031C276.611 239.814 298.082 232.281 316 216C316.632 215.45 317.263 214.899 317.914 214.332C332.924 200.454 342.408 178.993 343.379 158.77C344.073 133.487 337.696 112.224 321 93.0002C320.354 92.2539 319.708 91.5075 319.043 90.7385C303.384 73.959 280.42 64.9194 257.777 63.969C234.475 64.1618 213.257 72.3194 196 88.0002ZM248 256C248 261.28 248 266.56 248 272C253.28 272 258.56 272 264 272C264 266.72 264 261.44 264 256C258.72 256 253.44 256 248 256ZM240 288C240 293.28 240 298.56 240 304C250.56 304 261.12 304 272 304C272 298.72 272 293.44 272 288C261.44 288 250.88 288 240 288ZM257.504 337.831C255.43 339.883 253.328 341.904 251.225 343.926C249.897 345.238 248.57 346.552 247.246 347.867C246.618 348.464 245.99 349.06 245.343 349.674C242.291 352.775 240.616 354.835 240.516 359.29C240.742 362.947 240.742 362.947 242.5 365.5C246.125 367.675 248.975 367.983 253 367C260.086 363.546 266.129 358.363 272.284 353.503C280.673 347.001 288.243 344.9 298.703 344.684C299.541 344.663 300.379 344.642 301.242 344.621C303.911 344.556 306.58 344.497 309.25 344.438C311.062 344.395 312.875 344.351 314.687 344.307C319.125 344.2 323.562 344.099 328 344C328 349.28 328 354.56 328 360C326.011 359.977 324.022 359.954 321.973 359.93C320.016 359.916 318.06 359.902 316.104 359.89C314.103 359.876 312.101 359.85 310.1 359.824C298.739 359.666 298.739 359.666 288 363C288 385.77 288 408.54 288 432C314.4 432 340.8 432 368 432C368 392.4 368 352.8 368 312C353.088 311.938 353.088 311.938 337.875 311.875C334.766 311.857 331.656 311.839 328.453 311.82C325.945 311.814 323.437 311.809 320.93 311.805C319.029 311.79 319.029 311.79 317.09 311.774C291.113 311.769 275.481 319.954 257.504 337.831ZM384 312C384 351.6 384 391.2 384 432C415.68 432 447.36 432 480 432C480 392.4 480 352.8 480 312C448.32 312 416.64 312 384 312ZM210 323C208.579 325.841 208.685 327.855 209 331C212.141 335.008 215.23 336.015 220.141 336.625C227.843 337.325 234.408 337.824 240.656 332.692C244.423 329.101 247.98 325.248 251 321C251 320.67 251 320.34 251 320C246.125 319.926 241.251 319.872 236.376 319.835C234.719 319.82 233.063 319.8 231.406 319.774C229.018 319.737 226.63 319.72 224.242 319.707C223.507 319.692 222.773 319.676 222.016 319.66C217.265 319.659 214.024 320.462 210 323ZM210 355C208.579 357.841 208.685 359.855 209 363C211.232 365.848 212.55 366.85 216 368C217.561 368.068 219.125 368.085 220.687 368.063C222.111 368.042 223.534 368.021 225 368C224.67 362.72 224.34 357.44 224 352C216.214 351.836 216.214 351.836 210 355ZM210 387C208.579 389.841 208.685 391.855 209 395C211.232 397.848 212.55 398.85 216 400C218.952 400.122 221.879 400.188 224.832 400.203C225.701 400.209 226.571 400.215 227.466 400.221C229.306 400.23 231.146 400.237 232.986 400.24C235.791 400.25 238.596 400.281 241.4 400.313C243.19 400.319 244.98 400.325 246.769 400.328C247.604 400.341 248.439 400.353 249.298 400.366C254.268 400.347 257.7 399.776 262 397C263.42 394.159 263.314 392.145 263 389C260.768 386.152 259.45 385.15 256 384C253.048 383.879 250.121 383.812 247.168 383.797C246.299 383.791 245.429 383.786 244.533 383.78C242.693 383.77 240.853 383.764 239.013 383.76C236.208 383.75 233.404 383.719 230.6 383.688C228.81 383.681 227.02 383.676 225.23 383.672C224.396 383.66 223.561 383.647 222.701 383.635C217.732 383.654 214.3 384.225 210 387ZM266.937 413C266.204 413.371 265.47 413.743 264.715 414.125C264.149 414.414 263.583 414.703 263 415C263.046 416.062 263.093 417.125 263.141 418.219C263.614 433.442 263.614 433.442 259 439C253.318 444.978 248.187 447.037 240 448C240 450.64 240 453.28 240 456C250.56 456 261.12 456 272 456C272 441.15 272 426.3 272 411C270.156 411 268.55 412.181 266.937 413ZM210 419C208.579 421.841 208.685 423.855 209 427C211.232 429.848 212.55 430.85 216 432C219.933 432.259 223.872 432.232 227.812 432.25C229.434 432.281 229.434 432.281 231.088 432.313C238.968 432.357 238.968 432.357 246 429C247.42 426.159 247.314 424.145 247 421C244.768 418.152 243.45 417.15 240 416C236.067 415.741 232.128 415.769 228.187 415.75C227.107 415.73 226.026 415.709 224.912 415.688C217.032 415.644 217.032 415.644 210 419ZM244 472C244.66 474.64 245.32 477.28 246 480C252.6 480 259.2 480 266 480C266.66 477.36 267.32 474.72 268 472C260.08 472 252.16 472 244 472Z" fill="white"/>
<path d="M40.5585 15.7429C41.3149 15.7394 42.0713 15.7359 42.8506 15.7323C45.3937 15.723 47.9365 15.7279 50.4796 15.7328C52.3179 15.729 54.1561 15.7244 55.9944 15.7191C61.0528 15.7068 66.1111 15.7071 71.1695 15.7094C76.6222 15.7098 82.075 15.6988 87.5277 15.6893C98.2132 15.6727 108.899 15.6672 119.584 15.6661C128.268 15.6652 136.952 15.661 145.636 15.6547C170.247 15.6371 194.857 15.6278 219.468 15.6294C220.463 15.6294 220.463 15.6294 221.478 15.6295C222.82 15.6296 224.161 15.6296 225.503 15.6297C246.375 15.631 267.247 15.6159 288.12 15.5886C311.567 15.5579 335.015 15.5407 358.462 15.5425C370.878 15.5432 383.294 15.5377 395.71 15.5162C406.28 15.498 416.851 15.4936 427.422 15.5072C432.816 15.5137 438.21 15.5138 443.604 15.4965C448.542 15.4808 453.48 15.4836 458.418 15.501C460.204 15.5041 461.991 15.5004 463.778 15.4893C481.734 15.385 481.734 15.385 489.242 21.9651C489.781 22.616 490.32 23.267 490.875 23.9377C491.43 24.5861 491.984 25.2345 492.555 25.9026C496.367 31.4355 496.281 36.476 496.241 42.9786C496.243 44.4979 496.243 44.4979 496.246 46.048C496.249 49.4459 496.238 52.8437 496.227 56.2417C496.227 58.6759 496.227 61.1101 496.228 63.5443C496.229 68.787 496.223 74.0296 496.212 79.2723C496.195 86.8522 496.19 94.4322 496.188 102.012C496.183 114.311 496.17 126.609 496.151 138.907C496.133 150.853 496.119 162.799 496.11 174.745C496.11 175.482 496.109 176.218 496.109 176.977C496.106 180.672 496.103 184.366 496.101 188.061C496.08 218.707 496.045 249.354 496 280C490.72 280 485.44 280 480 280C480 214 480 148 480 80.0002C435.12 80.0002 390.24 80.0002 344 80.0002C344 74.7202 344 69.4402 344 64.0002C388.88 64.0002 433.76 64.0002 480 64.0002C480.45 42.8206 480.45 42.8206 477 35.0002C473.037 32.6272 469.188 32.7497 464.652 32.7485C463.919 32.7456 463.185 32.7427 462.429 32.7397C459.963 32.7324 457.498 32.7394 455.032 32.7462C453.25 32.7439 451.467 32.7408 449.684 32.7368C444.78 32.7284 439.875 32.7326 434.971 32.7388C429.684 32.7433 424.397 32.7363 419.11 32.7308C408.75 32.7219 398.39 32.7238 388.031 32.7296C379.613 32.7341 371.196 32.7348 362.778 32.7326C361.581 32.7323 360.384 32.732 359.151 32.7316C356.72 32.731 354.289 32.7304 351.858 32.7297C329.047 32.724 306.236 32.7306 283.425 32.7413C263.841 32.7502 244.257 32.7487 224.673 32.7395C201.945 32.7288 179.217 32.7245 156.49 32.7307C154.067 32.7313 151.645 32.732 149.223 32.7326C147.435 32.733 147.435 32.733 145.611 32.7335C137.201 32.7352 128.791 32.7323 120.381 32.7276C110.135 32.722 99.8902 32.7235 89.6449 32.7342C84.4149 32.7394 79.1851 32.7415 73.9552 32.7349C69.1711 32.7289 64.3872 32.7322 59.6031 32.7428C57.869 32.7451 56.1349 32.7439 54.4008 32.7391C52.0498 32.733 49.6992 32.7392 47.3482 32.7485C46.0405 32.7489 44.7328 32.7492 43.3855 32.7495C40.0449 32.9969 37.8711 33.2813 35.0003 35.0002C31.5508 42.8206 31.5508 42.8206 32.0003 64.0002C71.6003 64.0002 111.2 64.0002 152 64.0002C152 69.2802 152 74.5602 152 80.0002C112.4 80.0002 72.8003 80.0002 32.0003 80.0002C32.1199 121.113 32.1199 121.113 32.2581 162.225C32.2781 167.765 32.298 173.306 32.3176 178.847C32.3201 179.541 32.3226 180.236 32.3251 180.951C32.3649 192.165 32.3976 203.379 32.4278 214.593C32.4589 226.1 32.4976 237.607 32.543 249.114C32.5683 255.578 32.5901 262.042 32.6036 268.506C32.6164 274.587 32.6384 280.668 32.6676 286.75C32.6767 288.984 32.6824 291.219 32.6845 293.453C32.6878 296.499 32.7032 299.545 32.7218 302.591C32.7199 303.479 32.7179 304.368 32.7159 305.283C32.7092 311.418 32.7092 311.418 35.0003 317C38.5553 319.033 41.7221 319.256 45.7646 319.279C46.9158 319.29 48.067 319.301 49.2531 319.313C50.5068 319.315 51.7605 319.317 53.0523 319.319C54.3929 319.328 55.7335 319.339 57.0741 319.35C60.7059 319.377 64.3377 319.392 67.9696 319.405C71.768 319.421 75.5662 319.447 79.3646 319.473C86.5538 319.52 93.7431 319.556 100.932 319.59C109.119 319.628 117.305 319.677 125.491 319.728C142.327 319.831 159.164 319.92 176 320C176 325.28 176 330.56 176 336C157.494 336.093 138.987 336.164 120.48 336.207C111.887 336.228 103.293 336.256 94.7 336.302C87.2082 336.342 79.7165 336.368 72.2247 336.377C68.2594 336.382 64.2943 336.394 60.3291 336.423C56.5928 336.45 52.8569 336.459 49.1205 336.453C47.1038 336.454 45.0872 336.476 43.0706 336.498C34.7873 336.46 29.1637 335.649 22.7581 330.035C22.2192 329.384 21.6804 328.733 21.1253 328.063C20.571 327.414 20.0167 326.766 19.4456 326.098C16.7483 322.183 15.7507 318.668 15.743 313.941C15.7365 312.939 15.7301 311.938 15.7234 310.907C15.7265 309.814 15.7296 308.721 15.7328 307.595C15.7283 306.429 15.7238 305.262 15.7191 304.06C15.7086 300.826 15.7071 297.592 15.7095 294.358C15.7099 290.868 15.6989 287.379 15.6894 283.889C15.6728 277.054 15.6673 270.219 15.6662 263.383C15.6652 257.827 15.6611 252.27 15.6548 246.713C15.6371 230.957 15.6279 215.2 15.6294 199.444C15.6295 198.595 15.6296 197.745 15.6297 196.87C15.6297 196.02 15.6298 195.169 15.6299 194.293C15.6307 180.512 15.6116 166.731 15.5834 152.95C15.5546 138.798 15.5408 124.646 15.5426 110.493C15.5432 102.548 15.5377 94.6039 15.5162 86.6593C15.498 79.8948 15.4937 73.1305 15.5072 66.3661C15.5138 62.9159 15.5139 59.4661 15.4965 56.0159C15.4811 52.2724 15.4903 48.5298 15.5058 44.7863C15.4955 43.7002 15.4852 42.6141 15.4746 41.4951C15.5437 33.9161 16.8349 28.6124 21.9651 22.758C22.6161 22.2192 23.2671 21.6804 23.9378 21.1252C24.5862 20.5709 25.2346 20.0166 25.9026 19.4455C30.6257 16.1912 34.9396 15.7099 40.5585 15.7429Z" fill="white"/>
<path d="M256 79.9998C273.367 79.1422 289.723 84.5832 302.909 95.979C317.375 109.186 327.386 125.634 328.312 145.554C328.904 166.245 324.892 184.81 310.625 200.437C296.485 215.18 279.987 223.81 259.365 224.4C238.968 224.637 221.021 219.532 206.077 205.2C193.06 192.198 183.901 176.069 183.812 157.25C183.874 155.517 183.936 153.785 184 152C189.61 152 195.22 152 201 152C201.227 154.042 201.454 156.084 201.688 158.187C203.953 173.599 210.44 186.099 222.75 195.937C236.813 205.872 253.084 208.192 269.82 205.351C277.391 203.217 283.667 199.607 290 195C290.951 194.36 290.951 194.36 291.922 193.707C301.402 186.64 308.165 173.445 310 162C311.551 145.301 309.005 131.754 299 118C298.573 117.366 298.147 116.731 297.707 116.078C289.798 105.467 275.649 99.4402 262.965 97.5467C260.649 97.2992 258.325 97.1386 256 96.9998C256 91.3898 256 85.7798 256 79.9998Z" fill="white"/>
<path d="M360 216C394.32 216 428.64 216 464 216C464 221.28 464 226.56 464 232C429.68 232 395.36 232 360 232C360 226.72 360 221.44 360 216Z" fill="white"/>
<path d="M72 216C98.4 216 124.8 216 152 216C152 221.28 152 226.56 152 232C125.6 232 99.2 232 72 232C72 226.72 72 221.44 72 216Z" fill="white"/>
<path d="M344 248C367.76 248 391.52 248 416 248C416 253.28 416 258.56 416 264C392.24 264 368.48 264 344 264C344 258.72 344 253.44 344 248Z" fill="white"/>
<path d="M96 248C119.76 248 143.52 248 168 248C168 253.28 168 258.56 168 264C144.24 264 120.48 264 96 264C96 258.72 96 253.44 96 248Z" fill="white"/>
<path d="M48 280C66.48 280 84.96 280 104 280C104 285.28 104 290.56 104 296C85.52 296 67.04 296 48 296C48 290.72 48 285.44 48 280Z" fill="white"/>
<path d="M72 104C90.48 104 108.96 104 128 104C128 109.28 128 114.56 128 120C109.52 120 91.04 120 72 120C72 114.72 72 109.44 72 104Z" fill="white"/>
<path d="M120 280C135.84 280 151.68 280 168 280C168 285.28 168 290.56 168 296C152.16 296 136.32 296 120 296C120 290.72 120 285.44 120 280Z" fill="white"/>
<path d="M80 168C95.84 168 111.68 168 128 168C128 173.28 128 178.56 128 184C112.16 184 96.32 184 80 184C80 178.72 80 173.44 80 168Z" fill="white"/>
<path d="M384 136C399.84 136 415.68 136 432 136C432 141.28 432 146.56 432 152C416.16 152 400.32 152 384 152C384 146.72 384 141.44 384 136Z" fill="white"/>
<path d="M416 104C431.84 104 447.68 104 464 104C464 109.28 464 114.56 464 120C448.16 120 432.32 120 416 120C416 114.72 416 109.44 416 104Z" fill="white"/>
<path d="M424 168C437.2 168 450.4 168 464 168C464 173.28 464 178.56 464 184C450.8 184 437.6 184 424 184C424 178.72 424 173.44 424 168Z" fill="white"/>
<path d="M432 248C442.56 248 453.12 248 464 248C464 253.28 464 258.56 464 264C453.44 264 442.88 264 432 264C432 258.72 432 253.44 432 248Z" fill="white"/>
<path d="M48 248C58.56 248 69.12 248 80 248C80 253.28 80 258.56 80 264C69.44 264 58.88 264 48 264C48 258.72 48 253.44 48 248Z" fill="white"/>
<path d="M96 136C106.56 136 117.12 136 128 136C128 141.28 128 146.56 128 152C117.44 152 106.88 152 96 152C96 146.72 96 141.44 96 136Z" fill="white"/>
<path d="M48 136C58.56 136 69.12 136 80 136C80 141.28 80 146.56 80 152C69.44 152 58.88 152 48 152C48 146.72 48 141.44 48 136Z" fill="white"/>
<path d="M384 168C391.92 168 399.84 168 408 168C408 173.28 408 178.56 408 184C400.08 184 392.16 184 384 184C384 178.72 384 173.44 384 168Z" fill="white"/>
<path d="M48 168C53.28 168 58.56 168 64 168C64 173.28 64 178.56 64 184C58.72 184 53.44 184 48 184C48 178.72 48 173.44 48 168Z" fill="white"/>
<path d="M448 136C453.28 136 458.56 136 464 136C464 141.28 464 146.56 464 152C458.72 152 453.44 152 448 152C448 146.72 448 141.44 448 136Z" fill="white"/>
<path d="M384 104C389.28 104 394.56 104 400 104C400 109.28 400 114.56 400 120C394.72 120 389.44 120 384 120C384 114.72 384 109.44 384 104Z" fill="white"/>
<path d="M99.9995 40C102.5 41.5 102.5 41.5 104 44C104.791 48.021 104.621 50.9641 102.5 54.5C98.9636 56.6215 96.0205 56.791 91.9995 56C89.4995 54.5 89.4995 54.5 87.9995 52C87.2085 47.979 87.378 45.0359 89.4995 41.5C93.0354 39.3785 95.9785 39.209 99.9995 40Z" fill="white"/>
<path d="M75.9995 40C78.4995 41.5 78.4995 41.5 79.9995 44C80.7905 48.021 80.6211 50.9641 78.4995 54.5C74.9636 56.6215 72.0205 56.791 67.9995 56C65.4995 54.5 65.4995 54.5 63.9995 52C63.2085 47.979 63.378 45.0359 65.4995 41.5C69.0354 39.3785 71.9785 39.209 75.9995 40Z" fill="white"/>
<path d="M51.9995 40C54.4995 41.5 54.4995 41.5 55.9995 44C56.7905 48.021 56.6211 50.9641 54.4995 54.5C50.9636 56.6215 48.0205 56.791 43.9995 56C41.4995 54.5 41.4995 54.5 39.9995 52C39.2085 47.979 39.378 45.0359 41.4995 41.5C45.0354 39.3785 47.9785 39.209 51.9995 40Z" fill="white"/>
</svg>
