<svg width="200" height="200" viewBox="0 0 200 200" fill="none" xmlns="http://www.w3.org/2000/svg">
<path d="M74.2494 21.5959C75.5142 21.5832 76.7791 21.5705 78.0824 21.5574C79.4597 21.5595 80.8371 21.5625 82.2144 21.5663C83.6317 21.5618 85.0489 21.5565 86.466 21.5504C89.4343 21.5415 92.4022 21.5439 95.3705 21.5539C99.1682 21.5654 102.965 21.5452 106.763 21.516C109.689 21.4976 112.615 21.4979 115.541 21.5036C116.941 21.5037 118.341 21.4977 119.741 21.4853C121.701 21.4704 123.661 21.4837 125.62 21.4982C126.734 21.4984 127.848 21.4985 128.996 21.4987C132.726 22.1211 134.34 23.3494 137 25.9999C139.075 29.2886 139.254 31.9026 139.267 35.7555C139.276 36.9303 139.284 38.1051 139.293 39.3155C139.292 40.6008 139.291 41.8861 139.29 43.2104C139.296 44.5805 139.303 45.9507 139.31 47.3208C139.328 51.0399 139.333 54.7589 139.334 58.478C139.336 60.8024 139.34 63.1268 139.345 65.4513C139.364 73.563 139.372 81.6747 139.37 89.7865C139.369 97.3438 139.39 104.901 139.422 112.458C139.448 118.95 139.459 125.442 139.457 131.933C139.457 135.809 139.462 139.685 139.484 143.56C139.503 147.206 139.503 150.852 139.489 154.498C139.486 156.47 139.502 158.442 139.52 160.413C139.442 171.298 139.442 171.298 135 176C131.493 178.337 130.03 178.267 125.879 178.306C123.987 178.33 123.987 178.33 122.056 178.355C120.676 178.361 119.297 178.367 117.918 178.371C116.501 178.38 115.085 178.389 113.669 178.398C110.699 178.415 107.729 178.423 104.759 178.425C100.963 178.431 97.167 178.468 93.3706 178.514C90.4443 178.544 87.5182 178.551 84.5917 178.552C83.1927 178.556 81.7937 178.569 80.3948 178.59C68.0922 178.759 68.0922 178.759 64.1571 175.653C61.0531 171.836 60.873 169.126 60.8592 164.358C60.8535 163.183 60.8477 162.008 60.8419 160.798C60.8407 159.507 60.8396 158.217 60.8385 156.887C60.8338 155.516 60.8288 154.144 60.8234 152.772C60.8103 149.045 60.8039 145.318 60.7994 141.59C60.7965 139.262 60.7924 136.933 60.7879 134.604C60.7742 127.319 60.7646 120.033 60.7607 112.748C60.7562 104.337 60.7387 95.9269 60.7097 87.5164C60.6881 81.0153 60.678 74.5142 60.6767 68.013C60.6756 64.13 60.6697 60.2472 60.6518 56.3643C60.6354 52.7117 60.6332 49.0594 60.642 45.4068C60.6431 43.4289 60.6294 41.4511 60.6152 39.4733C60.6208 38.2928 60.6264 37.1122 60.6321 35.8959C60.6306 34.872 60.6292 33.8481 60.6277 32.7932C61.1708 28.7145 62.9119 26.0818 65.7965 23.2127C68.7325 21.5965 70.9037 21.6121 74.2494 21.5959ZM63.9996 28.9999C62.9679 32.095 62.8664 34.2385 62.8524 37.4834C62.8453 38.6232 62.8381 39.7629 62.8307 40.9373C62.8281 42.1888 62.8254 43.4402 62.8226 44.7297C62.816 46.0469 62.8095 47.3642 62.8027 48.7214C62.7817 53.0916 62.7713 57.4618 62.7613 61.832C62.7573 63.3372 62.7532 64.8424 62.749 66.3477C62.7299 73.4191 62.7157 80.4906 62.7074 87.562C62.6976 95.7219 62.6713 103.881 62.6309 112.041C62.6007 118.35 62.5859 124.66 62.5826 130.969C62.5802 134.736 62.5713 138.503 62.5461 142.271C62.5228 145.816 62.5186 149.36 62.5289 152.906C62.5296 154.822 62.5105 156.739 62.4908 158.656C62.5076 167.155 62.5076 167.155 66.9996 174C70.1257 176.238 72.8972 176.262 76.6827 176.29C77.8242 176.303 78.9658 176.316 80.1419 176.329C81.3711 176.331 82.6003 176.334 83.8668 176.336C85.1343 176.343 86.4018 176.349 87.7076 176.356C90.3893 176.366 93.0705 176.372 95.752 176.371C99.1775 176.37 102.602 176.398 106.027 176.432C109.307 176.46 112.587 176.458 115.867 176.461C117.092 176.475 118.317 176.49 119.579 176.504C126.401 176.603 126.401 176.603 132.695 174.346C136.642 170.328 137.249 165.793 137.26 160.314C137.267 159.205 137.274 158.097 137.282 156.954C137.279 155.753 137.277 154.551 137.274 153.313C137.282 151.397 137.282 151.397 137.29 149.443C137.303 145.951 137.304 142.459 137.301 138.967C137.3 136.048 137.305 133.128 137.31 130.208C137.321 123.317 137.321 116.426 137.315 109.535C137.309 102.437 137.322 95.339 137.343 88.2408C137.36 82.1361 137.366 76.0315 137.363 69.9269C137.361 66.2854 137.364 62.644 137.378 59.0025C137.393 54.9404 137.384 50.8787 137.372 46.8166C137.38 45.6169 137.387 44.4172 137.395 43.1811C137.351 36.1417 137.266 30.4284 132.179 25.0887C129.366 23.6835 127.275 23.6055 124.133 23.58C122.951 23.5641 121.77 23.5482 120.552 23.5318C119.279 23.5316 118.006 23.5314 116.695 23.5312C114.727 23.5197 114.727 23.5197 112.72 23.5081C109.944 23.4947 107.168 23.4931 104.393 23.4989C100.846 23.5048 97.3007 23.4743 93.7542 23.4338C90.3594 23.4017 86.9649 23.4061 83.5699 23.4062C82.301 23.3898 81.0321 23.3734 79.7247 23.3565C72.7602 23.411 68.5979 23.4961 63.9996 28.9999Z" fill="white"/>
<path d="M75.0817 25.4825C76.3097 25.4699 77.5378 25.4573 78.8031 25.4443C80.1395 25.4515 81.4758 25.4597 82.8121 25.4689C84.1869 25.4662 85.5617 25.4623 86.9364 25.4573C89.8148 25.4514 92.6926 25.4599 95.5709 25.4786C99.2567 25.5014 102.941 25.4883 106.627 25.4643C109.465 25.4499 112.303 25.4545 115.141 25.4649C116.499 25.4675 117.858 25.4643 119.217 25.4549C121.117 25.4448 123.017 25.463 124.918 25.4825C126.538 25.4873 126.538 25.4873 128.192 25.4922C131.761 26.1378 132.757 27.1868 135 30.0001C135.503 32.6676 135.503 32.6676 135.508 35.7692C135.519 36.9469 135.53 38.1246 135.542 39.338C135.534 40.6264 135.526 41.9148 135.517 43.2423C135.523 44.6157 135.53 45.9891 135.538 47.3625C135.557 51.0898 135.55 54.8167 135.537 58.544C135.527 62.4446 135.536 66.3452 135.542 70.2457C135.55 76.7961 135.54 83.3463 135.521 89.8966C135.499 97.4698 135.506 105.043 135.528 112.616C135.547 119.118 135.549 125.62 135.539 132.122C135.532 136.005 135.532 139.889 135.545 143.772C135.556 147.423 135.548 151.074 135.525 154.725C135.517 156.704 135.529 158.683 135.542 160.662C135.525 162.429 135.525 162.429 135.508 164.231C135.506 165.255 135.505 166.278 135.503 167.333C134.864 170.718 133.686 171.906 131 174C128.192 174.508 128.192 174.508 124.918 174.518C123.69 174.53 122.461 174.543 121.196 174.556C119.86 174.549 118.523 174.541 117.187 174.531C115.812 174.534 114.438 174.538 113.063 174.543C110.185 174.549 107.307 174.54 104.428 174.522C100.743 174.499 97.058 174.512 93.3723 174.536C90.5343 174.55 87.6966 174.546 84.8587 174.535C83.4999 174.533 82.1412 174.536 80.7824 174.545C78.8822 174.555 76.9819 174.537 75.0817 174.518C73.461 174.513 73.461 174.513 71.8075 174.508C68.2383 173.862 67.2421 172.813 64.9996 170C64.4963 167.333 64.4963 167.333 64.4917 164.231C64.4748 162.465 64.4748 162.465 64.4575 160.662C64.4656 159.374 64.4737 158.085 64.4821 156.758C64.4766 155.385 64.4695 154.011 64.4608 152.638C64.4426 148.91 64.4497 145.184 64.4623 141.456C64.4725 137.556 64.4631 133.655 64.4568 129.755C64.4495 123.204 64.4591 116.654 64.4782 110.104C64.4999 102.53 64.4929 94.9576 64.4708 87.3844C64.4527 80.8824 64.4501 74.3805 64.4606 67.8784C64.4668 63.9949 64.4677 60.1117 64.4545 56.2282C64.4429 52.5771 64.4509 48.9266 64.474 45.2756C64.4818 43.2964 64.47 41.3171 64.4575 39.338C64.4688 38.1603 64.4801 36.9826 64.4917 35.7692C64.4932 34.7456 64.4947 33.7221 64.4963 32.6676C65.6317 26.6507 69.5077 25.499 75.0817 25.4825ZM67.9996 31.0001C66.9756 34.0723 66.8715 36.1653 66.8659 39.3832C66.8617 40.5006 66.8574 41.618 66.853 42.7693C66.8535 43.9959 66.8539 45.2225 66.8544 46.4862C66.851 47.7774 66.8477 49.0687 66.8442 50.399C66.8354 53.9424 66.833 57.4858 66.8324 61.0291C66.8314 63.9865 66.8278 66.9438 66.8242 69.9011C66.8161 76.8775 66.8136 83.854 66.8143 90.8304C66.8149 98.0292 66.8044 105.228 66.7886 112.427C66.7755 118.606 66.7702 124.785 66.7708 130.964C66.771 134.656 66.7682 138.347 66.7576 142.038C66.7461 146.153 66.7507 150.269 66.7567 154.385C66.7511 155.609 66.7455 156.834 66.7397 158.095C66.7439 159.216 66.7481 160.336 66.7524 161.49C66.7519 162.463 66.7513 163.436 66.7507 164.439C67.0117 167.124 67.5424 168.744 68.9996 171C71.6111 172.306 73.5629 172.149 76.4874 172.177C77.6356 172.19 78.7837 172.203 79.9666 172.216C81.2125 172.223 82.4583 172.231 83.7418 172.238C85.6544 172.251 85.6544 172.251 87.6056 172.263C90.3075 172.277 93.0092 172.288 95.7111 172.295C99.1703 172.306 102.629 172.341 106.088 172.38C109.389 172.413 112.69 172.417 115.992 172.426C117.234 172.443 118.475 172.461 119.755 172.479C120.909 172.476 122.064 172.473 123.253 172.47C124.776 172.479 124.776 172.479 126.33 172.488C129.798 171.854 130.809 170.727 133 168C133.592 165.341 133.592 165.341 133.494 162.376C133.503 161.231 133.511 160.085 133.52 158.905C133.508 157.652 133.497 156.4 133.485 155.109C133.488 153.774 133.492 152.438 133.497 151.102C133.507 147.478 133.491 143.855 133.471 140.231C133.454 136.439 133.457 132.648 133.458 128.856C133.456 122.49 133.439 116.124 133.411 109.758C133.38 102.395 133.369 95.032 133.371 87.6689C133.372 80.5878 133.362 73.5068 133.345 66.4258C133.338 63.4111 133.334 60.3964 133.333 57.3817C133.331 53.8333 133.319 50.2852 133.299 46.7369C133.29 44.8112 133.292 42.8854 133.293 40.9597C133.284 39.817 133.276 38.6743 133.267 37.4971C133.264 36.5021 133.26 35.5072 133.257 34.4821C133.168 31.7484 133.168 31.7484 131 29.0001C127.96 27.9868 125.872 27.8617 122.69 27.839C121.062 27.8246 121.062 27.8246 119.402 27.8099C118.23 27.8056 117.059 27.8014 115.851 27.797C114.044 27.7884 114.044 27.7884 112.201 27.7797C109.65 27.7703 107.1 27.7637 104.549 27.7599C100.647 27.7502 96.7455 27.7192 92.8434 27.6876C90.3668 27.6811 87.8903 27.6758 85.4137 27.672C84.2459 27.6597 83.078 27.6473 81.8748 27.6346C80.7837 27.6376 79.6926 27.6406 78.5685 27.6437C77.6116 27.64 76.6547 27.6364 75.6687 27.6326C72.4543 28.0752 70.5832 29.0573 67.9996 31.0001Z" fill="white"/>
<path d="M87 166C95.58 166 104.16 166 113 166C113 166.99 113 167.98 113 169C104.42 169 95.84 169 87 169C87 168.01 87 167.02 87 166Z" fill="white"/>
</svg>
