<svg width="750" height="500" viewBox="0 0 750 500" fill="none" xmlns="http://www.w3.org/2000/svg">
<path d="M735.73 201.028C739.016 116.595 681.68 42.393 600.19 26.024C551.474 16.24 491.694 8.64899 439.923 14.969C330.164 28.368 395.142 32.834 405.678 33.727C416.215 34.62 458.362 45.339 404.8 48.912C351.238 52.485 299.432 27.474 227.43 20.328C155.428 13.182 66.743 23.901 35.133 94.467C3.52298 165.033 4.40098 318.67 24.597 381.197C44.793 443.724 62.354 332.962 75.525 352.613C88.696 372.264 142.258 452.656 279.237 472.307C416.216 491.958 644.514 456.229 677.002 427.645C709.491 399.061 694.563 416.926 700.71 431.218C706.856 445.51 727.93 404.421 731.442 315.99C732.946 278.135 734.008 245.255 735.73 201.028Z" fill="#0071F2"/>
<path opacity="0.7" d="M735.73 201.028C739.016 116.595 681.68 42.393 600.19 26.024C551.474 16.24 491.694 8.64899 439.923 14.969C330.164 28.368 395.142 32.834 405.678 33.727C416.215 34.62 458.362 45.339 404.8 48.912C351.238 52.485 299.432 27.474 227.43 20.328C155.428 13.182 66.743 23.901 35.133 94.467C3.52298 165.033 4.40098 318.67 24.597 381.197C44.793 443.724 62.354 332.962 75.525 352.613C88.696 372.264 142.258 452.656 279.237 472.307C416.216 491.958 644.514 456.229 677.002 427.645C709.491 399.061 694.563 416.926 700.71 431.218C706.856 445.51 727.93 404.421 731.442 315.99C732.946 278.135 734.008 245.255 735.73 201.028Z" fill="white"/>
<path d="M26.6309 454.416H731.398" stroke="#263238" stroke-miterlimit="10" stroke-linecap="round" stroke-linejoin="round"/>
<path d="M709.582 208.391L699.01 218.963L709.582 229.535L720.153 218.963L709.582 208.391Z" stroke="#9C9C9C" stroke-miterlimit="10" stroke-linecap="round" stroke-linejoin="round"/>
<path d="M56.6148 76.2398L46.043 86.8116L56.6148 97.3835L67.1867 86.8116L56.6148 76.2398Z" stroke="#9C9C9C" stroke-miterlimit="10" stroke-linecap="round" stroke-linejoin="round"/>
<path d="M443.153 362.338L435.046 370.445L443.153 378.552L451.26 370.445L443.153 362.338Z" stroke="#9C9C9C" stroke-miterlimit="10" stroke-linecap="round" stroke-linejoin="round"/>
<path d="M449.04 38.0789L440.934 46.1858L449.04 54.2927L457.147 46.1858L449.04 38.0789Z" stroke="#9C9C9C" stroke-miterlimit="10" stroke-linecap="round" stroke-linejoin="round"/>
<path d="M31.0464 261.131L22.9395 269.238L31.0464 277.345L39.1533 269.238L31.0464 261.131Z" stroke="#9C9C9C" stroke-miterlimit="10" stroke-linecap="round" stroke-linejoin="round"/>
<path d="M38.8735 62.7721L30.7666 70.879L38.8735 78.9859L46.9804 70.879L38.8735 62.7721Z" stroke="#9C9C9C" stroke-miterlimit="10" stroke-linecap="round" stroke-linejoin="round"/>
<path d="M328.138 425.144L320.031 433.251L328.138 441.358L336.245 433.251L328.138 425.144Z" stroke="#9C9C9C" stroke-miterlimit="10" stroke-linecap="round" stroke-linejoin="round"/>
<path d="M719.282 194.922L711.175 203.029L719.282 211.136L727.389 203.029L719.282 194.922Z" stroke="#9C9C9C" stroke-miterlimit="10" stroke-linecap="round" stroke-linejoin="round"/>
<path d="M720.218 377.068L712.111 385.175L720.218 393.282L728.325 385.175L720.218 377.068Z" stroke="#9C9C9C" stroke-miterlimit="10" stroke-linecap="round" stroke-linejoin="round"/>
<path d="M716.383 68.453V85.021" stroke="#9C9C9C" stroke-miterlimit="10" stroke-linecap="round" stroke-linejoin="round"/>
<path d="M708.099 76.7371H724.667" stroke="#9C9C9C" stroke-miterlimit="10" stroke-linecap="round" stroke-linejoin="round"/>
<path d="M55.416 117.74V134.307" stroke="#9C9C9C" stroke-miterlimit="10" stroke-linecap="round" stroke-linejoin="round"/>
<path d="M47.1318 126.024H63.6998" stroke="#9C9C9C" stroke-miterlimit="10" stroke-linecap="round" stroke-linejoin="round"/>
<path d="M710.76 313.148V338.921" stroke="#9C9C9C" stroke-miterlimit="10" stroke-linecap="round" stroke-linejoin="round"/>
<path d="M697.873 326.035H723.646" stroke="#9C9C9C" stroke-miterlimit="10" stroke-linecap="round" stroke-linejoin="round"/>
<path d="M427.982 304.739L446.207 322.963" stroke="#9C9C9C" stroke-miterlimit="10" stroke-linecap="round" stroke-linejoin="round"/>
<path d="M427.982 322.963L446.207 304.739" stroke="#9C9C9C" stroke-miterlimit="10" stroke-linecap="round" stroke-linejoin="round"/>
<path d="M24.0449 413.898L37.1399 426.993" stroke="#9C9C9C" stroke-miterlimit="10" stroke-linecap="round" stroke-linejoin="round"/>
<path d="M24.0449 426.993L37.1399 413.898" stroke="#9C9C9C" stroke-miterlimit="10" stroke-linecap="round" stroke-linejoin="round"/>
<path d="M338.01 25.8929L351.105 38.9889" stroke="#9C9C9C" stroke-miterlimit="10" stroke-linecap="round" stroke-linejoin="round"/>
<path d="M338.01 38.9889L351.105 25.8929" stroke="#9C9C9C" stroke-miterlimit="10" stroke-linecap="round" stroke-linejoin="round"/>
<path d="M442.208 76.814L404.521 48.129V63.224H348.762V90.404H404.521V105.498L442.208 76.814Z" stroke="#263238" stroke-miterlimit="10" stroke-linecap="round" stroke-linejoin="round"/>
<path d="M676.886 454.416H484.6C478.374 454.416 473.328 449.369 473.328 443.144V47.579C473.328 41.353 478.375 36.307 484.6 36.307H676.886C683.112 36.307 688.158 41.354 688.158 47.579V443.143C688.159 449.369 683.112 454.416 676.886 454.416Z" fill="white" stroke="#263238" stroke-miterlimit="10" stroke-linecap="round" stroke-linejoin="round"/>
<path d="M473.327 418.896V443.144C473.327 449.37 478.374 454.416 484.599 454.416H676.885C683.111 454.416 688.157 449.369 688.157 443.144V418.896H473.327Z" fill="#0071F2" stroke="#263238" stroke-miterlimit="10"/>
<path d="M566.303 206.074H598.742C602.108 206.074 604.837 203.345 604.837 199.979V167.54C604.837 164.174 602.108 161.445 598.742 161.445H566.303C562.937 161.445 560.208 164.174 560.208 167.54V199.979C560.208 203.346 562.937 206.074 566.303 206.074Z" fill="#263238" stroke="#263238" stroke-miterlimit="10"/>
<path d="M594.514 184.628L572.829 172.108V197.148L594.514 184.628Z" fill="#0071F2" stroke="#263238" stroke-miterlimit="10"/>
<path d="M658.682 78.135H617.111C608.251 78.135 601.069 70.953 601.069 62.093C601.069 53.233 608.251 46.051 617.111 46.051H658.682C667.542 46.051 674.724 53.233 674.724 62.093C674.724 70.952 667.542 78.135 658.682 78.135Z" fill="#0071F2" stroke="#263238" stroke-miterlimit="10"/>
<path d="M616.629 76.352C624.504 76.352 630.888 69.968 630.888 62.093C630.888 54.218 624.504 47.834 616.629 47.834C608.754 47.834 602.37 54.218 602.37 62.093C602.37 69.968 608.754 76.352 616.629 76.352Z" fill="white" stroke="#263238" stroke-miterlimit="10" stroke-linecap="round" stroke-linejoin="round"/>
<path d="M488.524 64.989H516.359" stroke="#263238" stroke-miterlimit="10" stroke-linecap="round" stroke-linejoin="round"/>
<path d="M488.524 72.28H516.359" stroke="#263238" stroke-miterlimit="10" stroke-linecap="round" stroke-linejoin="round"/>
<path d="M488.524 79.5701H516.359" stroke="#263238" stroke-miterlimit="10" stroke-linecap="round" stroke-linejoin="round"/>
<path d="M643.78 285.684H492.196V401.664H643.78V285.684Z" fill="#0071F2" stroke="#263238" stroke-miterlimit="10"/>
<path d="M643.78 331.745L620.629 309.543L578.736 357.26L553.932 338.703L492.196 401.664H643.78V331.745Z" fill="#263238" stroke="#263238" stroke-miterlimit="10"/>
<path d="M525.996 334.727C534.78 334.727 541.902 327.606 541.902 318.821C541.902 310.036 534.78 302.915 525.996 302.915C517.211 302.915 510.09 310.036 510.09 318.821C510.09 327.606 517.211 334.727 525.996 334.727Z" fill="#263238" stroke="#263238" stroke-miterlimit="10"/>
<path d="M487.15 91.686H672.832" stroke="#263238" stroke-miterlimit="10" stroke-linecap="round" stroke-linejoin="round"/>
<path d="M668.515 311.357C675.45 309.729 679.752 302.787 678.124 295.852C676.496 288.917 669.555 284.615 662.62 286.242C655.685 287.87 651.382 294.812 653.01 301.747C654.638 308.682 661.579 312.985 668.515 311.357Z" fill="#263238" stroke="#263238" stroke-miterlimit="10" stroke-linecap="round" stroke-linejoin="round"/>
<path d="M670.566 294.46C670.566 291.715 668.34 289.489 665.595 289.489C662.85 289.489 660.624 291.715 660.624 294.46C660.624 297.205 662.85 299.431 665.595 299.431C668.341 299.431 670.566 297.205 670.566 294.46Z" fill="white" stroke="#263238" stroke-miterlimit="10" stroke-linecap="round" stroke-linejoin="round"/>
<path d="M665.595 300.377C661.059 300.377 657.383 304.054 657.383 308.589C657.383 308.652 657.391 308.713 657.392 308.775C659.621 310.614 662.479 311.719 665.595 311.719C668.711 311.719 671.569 310.614 673.798 308.775C673.799 308.712 673.808 308.652 673.808 308.589C673.808 304.054 670.131 300.377 665.595 300.377Z" fill="white" stroke="#263238" stroke-miterlimit="10" stroke-linecap="round" stroke-linejoin="round"/>
<path d="M668.515 353.747C675.451 352.119 679.753 345.177 678.125 338.242C676.497 331.307 669.556 327.005 662.621 328.632C655.686 330.26 651.383 337.202 653.011 344.137C654.639 351.072 661.58 355.375 668.515 353.747Z" fill="#263238" stroke="#263238" stroke-miterlimit="10" stroke-linecap="round" stroke-linejoin="round"/>
<path d="M670.566 336.851C670.566 334.106 668.34 331.88 665.595 331.88C662.85 331.88 660.624 334.106 660.624 336.851C660.624 339.596 662.85 341.822 665.595 341.822C668.341 341.822 670.566 339.597 670.566 336.851Z" fill="white" stroke="#263238" stroke-miterlimit="10" stroke-linecap="round" stroke-linejoin="round"/>
<path d="M665.595 342.768C661.059 342.768 657.383 346.445 657.383 350.98C657.383 351.043 657.391 351.104 657.392 351.166C659.621 353.005 662.479 354.11 665.595 354.11C668.711 354.11 671.569 353.005 673.798 351.166C673.799 351.103 673.808 351.043 673.808 350.98C673.808 346.445 670.131 342.768 665.595 342.768Z" fill="white" stroke="#263238" stroke-miterlimit="10" stroke-linecap="round" stroke-linejoin="round"/>
<path d="M668.515 396.136C675.451 394.508 679.753 387.566 678.125 380.631C676.497 373.696 669.556 369.394 662.621 371.021C655.686 372.649 651.383 379.591 653.011 386.526C654.639 393.461 661.58 397.764 668.515 396.136Z" fill="#263238" stroke="#263238" stroke-miterlimit="10" stroke-linecap="round" stroke-linejoin="round"/>
<path d="M670.566 379.242C670.566 376.497 668.34 374.271 665.595 374.271C662.85 374.271 660.624 376.497 660.624 379.242C660.624 381.987 662.85 384.213 665.595 384.213C668.341 384.213 670.566 381.988 670.566 379.242Z" fill="white" stroke="#263238" stroke-miterlimit="10" stroke-linecap="round" stroke-linejoin="round"/>
<path d="M665.595 385.16C661.059 385.16 657.383 388.837 657.383 393.372C657.383 393.435 657.391 393.496 657.392 393.558C659.621 395.397 662.479 396.502 665.595 396.502C668.711 396.502 671.569 395.397 673.798 393.558C673.799 393.495 673.808 393.435 673.808 393.372C673.808 388.836 670.131 385.16 665.595 385.16Z" fill="white" stroke="#263238" stroke-miterlimit="10" stroke-linecap="round" stroke-linejoin="round"/>
<path d="M654.928 142.585H507.488C497.59 142.585 489.567 134.561 489.567 124.664C489.567 114.766 497.591 106.743 507.488 106.743H654.927C664.825 106.743 672.848 114.767 672.848 124.664C672.849 134.561 664.826 142.585 654.928 142.585Z" fill="#A3A3A3" stroke="#263238" stroke-miterlimit="10"/>
<path d="M573.223 142.585H507.489C497.591 142.585 489.568 134.561 489.568 124.664C489.568 114.766 497.592 106.743 507.489 106.743H573.223C583.121 106.743 591.144 114.767 591.144 124.664C591.144 134.561 583.121 142.585 573.223 142.585Z" fill="#0071F2" stroke="#263238" stroke-miterlimit="10"/>
<path d="M498.291 206.074H530.73C534.096 206.074 536.825 203.345 536.825 199.979V167.54C536.825 164.174 534.096 161.445 530.73 161.445H498.291C494.925 161.445 492.196 164.174 492.196 167.54V199.979C492.196 203.346 494.925 206.074 498.291 206.074Z" fill="#0071F2" stroke="#263238" stroke-miterlimit="10"/>
<path d="M532.952 187.592V181.028L527.368 180.733C527.124 179.67 526.751 178.657 526.264 177.711L530.011 173.547L525.37 168.906L521.376 172.499C520.42 171.927 519.383 171.476 518.288 171.163L518 165.696H511.436L511.147 171.163C510.095 171.463 509.098 171.893 508.173 172.433L503.955 168.638L499.314 173.279L503.219 177.619C502.771 178.471 502.415 179.379 502.164 180.33L496.105 180.65V187.214L502.332 187.543C502.593 188.373 502.935 189.166 503.349 189.914L499.047 194.695L503.688 199.336L508.474 195.029C509.182 195.418 509.931 195.742 510.712 195.995L511.058 202.545H517.622L517.956 196.221C518.794 196.006 519.6 195.709 520.364 195.339L525.103 199.603L529.744 194.962L525.737 190.509C526.244 189.697 526.662 188.826 526.981 187.907L532.952 187.592ZM514.717 190.76C510.787 190.76 507.602 187.574 507.602 183.645C507.602 179.716 510.787 176.53 514.717 176.53C518.646 176.53 521.832 179.716 521.832 183.645C521.832 187.575 518.646 190.76 514.717 190.76Z" fill="#263238" stroke="#263238" stroke-miterlimit="10"/>
<path d="M634.315 206.074H666.754C670.12 206.074 672.849 203.345 672.849 199.979V167.54C672.849 164.174 670.12 161.445 666.754 161.445H634.315C630.949 161.445 628.22 164.174 628.22 167.54V199.979C628.22 203.346 630.949 206.074 634.315 206.074Z" fill="#0071F2" stroke="#263238" stroke-miterlimit="10"/>
<path d="M665.045 189.681C668.321 181.685 664.494 172.547 656.498 169.271C648.501 165.995 639.363 169.822 636.088 177.818C632.812 185.815 636.639 194.953 644.635 198.229C652.631 201.504 661.769 197.678 665.045 189.681Z" fill="#263238" stroke="#263238" stroke-miterlimit="10"/>
<path d="M658.478 175.816H642.59V191.704H658.478V175.816Z" fill="white" stroke="#263238" stroke-miterlimit="10" stroke-linecap="round" stroke-linejoin="round"/>
<path d="M566.303 264.92H598.742C602.108 264.92 604.837 262.191 604.837 258.825V226.386C604.837 223.02 602.108 220.291 598.742 220.291H566.303C562.937 220.291 560.208 223.02 560.208 226.386V258.825C560.208 262.191 562.937 264.92 566.303 264.92Z" fill="white" stroke="#263238" stroke-miterlimit="10" stroke-linecap="round" stroke-linejoin="round"/>
<path d="M597.766 232.43H567.626V253.481H597.766V232.43Z" fill="#0071F2" stroke="#263238" stroke-miterlimit="10" stroke-linecap="round" stroke-linejoin="round"/>
<path d="M567.626 232.43L582.696 242.955L597.766 232.43H567.626Z" fill="#0071F2" stroke="#263238" stroke-miterlimit="10" stroke-linecap="round" stroke-linejoin="round"/>
<path d="M498.291 264.92H530.73C534.096 264.92 536.825 262.191 536.825 258.825V226.386C536.825 223.02 534.096 220.291 530.73 220.291H498.291C494.925 220.291 492.196 223.02 492.196 226.386V258.825C492.196 262.191 494.925 264.92 498.291 264.92Z" fill="#0071F2" stroke="#263238" stroke-miterlimit="10"/>
<path d="M525.04 236.167C524.67 234.851 524.177 233.493 523.724 232.753C523.066 231.642 522.654 231.354 520.392 231.354H516.28V251.386C516.28 254.594 516.608 255.047 520.516 255.294V256.446H508.546V255.294C512.372 255.047 512.702 254.635 512.702 251.386V231.354H508.959C506.697 231.354 506.038 231.601 505.338 232.835C504.845 233.658 504.516 234.645 503.981 236.167H502.748C502.995 233.658 503.241 231.066 503.365 228.763H504.311C504.928 229.75 505.381 229.709 506.532 229.709H522.82C523.972 229.709 524.301 229.544 524.918 228.763H525.906C525.906 230.696 526.071 233.658 526.276 236.044L525.04 236.167Z" fill="#263238"/>
<path d="M634.315 264.92H666.754C670.12 264.92 672.849 262.191 672.849 258.825V226.386C672.849 223.02 670.12 220.291 666.754 220.291H634.315C630.949 220.291 628.22 223.02 628.22 226.386V258.825C628.22 262.191 630.949 264.92 634.315 264.92Z" fill="#263238" stroke="#263238" stroke-miterlimit="10"/>
<path d="M650.534 258.235C659.166 258.235 666.164 251.237 666.164 242.605C666.164 233.973 659.166 226.975 650.534 226.975C641.902 226.975 634.904 233.973 634.904 242.605C634.904 251.237 641.902 258.235 650.534 258.235Z" stroke="#0071F2" stroke-miterlimit="10"/>
<path d="M650.534 258.235C654.358 258.235 657.458 251.237 657.458 242.605C657.458 233.973 654.358 226.975 650.534 226.975C646.71 226.975 643.61 233.973 643.61 242.605C643.61 251.237 646.71 258.235 650.534 258.235Z" stroke="#0071F2" stroke-miterlimit="10"/>
<path d="M640.433 230.738H660.862" stroke="#0071F2" stroke-miterlimit="10"/>
<path d="M635.737 236.828H665.556" stroke="#0071F2" stroke-miterlimit="10"/>
<path d="M640.433 254.592H660.862" stroke="#0071F2" stroke-miterlimit="10"/>
<path d="M635.737 248.502H665.556" stroke="#0071F2" stroke-miterlimit="10"/>
<path d="M635.23 242.68H666.063" stroke="#0071F2" stroke-miterlimit="10"/>
<path d="M292.757 454.416H100.471C94.2452 454.416 89.1992 449.369 89.1992 443.144V47.579C89.1992 41.353 94.2462 36.307 100.471 36.307H292.757C298.983 36.307 304.029 41.354 304.029 47.579V443.143C304.03 449.369 298.983 454.416 292.757 454.416Z" fill="white" stroke="#263238" stroke-miterlimit="10" stroke-linecap="round" stroke-linejoin="round"/>
<path d="M89.1992 418.896V443.144C89.1992 449.37 94.2462 454.416 100.471 454.416H292.757C298.983 454.416 304.029 449.369 304.029 443.144V418.896H89.1992Z" fill="#0071F2" stroke="#263238" stroke-miterlimit="10"/>
<path d="M216.953 164.991H172.324V209.62H216.953V164.991Z" fill="#263238" stroke="#263238" stroke-miterlimit="10"/>
<path d="M103.696 164.991H59.0674V209.62H103.696V164.991Z" fill="#263238" stroke="#263238" stroke-miterlimit="10"/>
<path d="M216.953 223.836H172.324V268.465H216.953V223.836Z" fill="#263238" stroke="#263238" stroke-miterlimit="10"/>
<path d="M278.798 223.836H234.169V268.465H278.798V223.836Z" fill="#263238" stroke="#263238" stroke-miterlimit="10"/>
<path d="M103.696 223.836H59.0674V268.465H103.696V223.836Z" fill="#263238" stroke="#263238" stroke-miterlimit="10"/>
<path d="M218.98 161.445H174.351V206.074H218.98V161.445Z" fill="white" stroke="#263238" stroke-miterlimit="10" stroke-linecap="round" stroke-linejoin="round"/>
<path d="M105.722 161.445H61.0928V206.074H105.722V161.445Z" fill="#0071F2" stroke="#263238" stroke-miterlimit="10"/>
<path d="M218.98 220.291H174.351V264.92H218.98V220.291Z" fill="#0071F2" stroke="#263238" stroke-miterlimit="10"/>
<path d="M280.823 220.291H236.194V264.92H280.823V220.291Z" fill="#0071F2" stroke="#263238" stroke-miterlimit="10"/>
<path d="M105.722 220.291H61.0928V264.92H105.722V220.291Z" fill="white" stroke="#263238" stroke-miterlimit="10" stroke-linecap="round" stroke-linejoin="round"/>
<path d="M315.622 49.762H274.051C265.191 49.762 258.009 56.944 258.009 65.804C258.009 74.664 265.191 81.846 274.051 81.846H315.622C324.482 81.846 331.664 74.664 331.664 65.804C331.664 56.944 324.482 49.762 315.622 49.762Z" fill="#263238" stroke="#263238" stroke-miterlimit="10"/>
<path d="M318.619 78.135H277.048C268.188 78.135 261.006 70.953 261.006 62.093C261.006 53.233 268.188 46.051 277.048 46.051H318.619C327.479 46.051 334.661 53.233 334.661 62.093C334.661 70.952 327.479 78.135 318.619 78.135Z" fill="#0071F2" stroke="#263238" stroke-miterlimit="10"/>
<path d="M276.566 76.352C284.441 76.352 290.825 69.968 290.825 62.093C290.825 54.218 284.441 47.834 276.566 47.834C268.691 47.834 262.307 54.218 262.307 62.093C262.307 69.968 268.691 76.352 276.566 76.352Z" fill="white" stroke="#263238" stroke-miterlimit="10" stroke-linecap="round" stroke-linejoin="round"/>
<path d="M107.403 64.989H135.238" stroke="#263238" stroke-miterlimit="10" stroke-linecap="round" stroke-linejoin="round"/>
<path d="M107.403 72.28H135.238" stroke="#263238" stroke-miterlimit="10" stroke-linecap="round" stroke-linejoin="round"/>
<path d="M107.403 79.5701H135.238" stroke="#263238" stroke-miterlimit="10" stroke-linecap="round" stroke-linejoin="round"/>
<path d="M276.404 312.856C283.358 312.856 288.996 307.218 288.996 300.264C288.996 293.31 283.358 287.672 276.404 287.672C269.449 287.672 263.812 293.31 263.812 300.264C263.812 307.218 269.449 312.856 276.404 312.856Z" fill="white" stroke="#263238" stroke-miterlimit="10" stroke-linecap="round" stroke-linejoin="round"/>
<path d="M288.833 343.371C289.951 336.507 285.293 330.036 278.429 328.918C271.565 327.799 265.094 332.457 263.976 339.321C262.858 346.185 267.516 352.656 274.379 353.774C281.243 354.892 287.714 350.235 288.833 343.371Z" fill="white" stroke="#263238" stroke-miterlimit="10" stroke-linecap="round" stroke-linejoin="round"/>
<path d="M276.404 395.037C283.358 395.037 288.996 389.399 288.996 382.445C288.996 375.491 283.358 369.853 276.404 369.853C269.449 369.853 263.812 375.491 263.812 382.445C263.812 389.399 269.449 395.037 276.404 395.037Z" fill="white" stroke="#263238" stroke-miterlimit="10" stroke-linecap="round" stroke-linejoin="round"/>
<path d="M106.095 91.686H291.777" stroke="#263238" stroke-miterlimit="10" stroke-linecap="round" stroke-linejoin="round"/>
<path d="M201.276 290.748H49.6924V406.728H201.276V290.748Z" fill="#263238" stroke="#263238" stroke-miterlimit="10"/>
<path d="M49.6924 406.729L201.275 290.748" stroke="#263238" stroke-miterlimit="10"/>
<path d="M49.6924 290.748L201.275 406.729" stroke="#263238" stroke-miterlimit="10"/>
<path d="M205.834 285.684H54.25V401.664H205.834V285.684Z" fill="white" stroke="#263238" stroke-miterlimit="10" stroke-linecap="round" stroke-linejoin="round"/>
<path d="M54.25 401.664L205.834 285.684" stroke="#263238" stroke-miterlimit="10" stroke-linecap="round" stroke-linejoin="round"/>
<path d="M54.25 285.684L205.834 401.664" stroke="#263238" stroke-miterlimit="10" stroke-linecap="round" stroke-linejoin="round"/>
<path d="M325.931 145.117H178.492C168.594 145.117 160.571 137.093 160.571 127.196C160.571 117.298 168.595 109.275 178.492 109.275H325.931C335.829 109.275 343.852 117.299 343.852 127.196C343.853 137.094 335.829 145.117 325.931 145.117Z" fill="#263238" stroke="#263238" stroke-miterlimit="10"/>
<path d="M329.983 142.585H182.544C172.646 142.585 164.623 134.561 164.623 124.664C164.623 114.766 172.647 106.743 182.544 106.743H329.983C339.881 106.743 347.904 114.767 347.904 124.664C347.904 134.561 339.881 142.585 329.983 142.585Z" fill="white" stroke="#263238" stroke-miterlimit="10" stroke-linecap="round" stroke-linejoin="round"/>
<path d="M234.485 162.262V208.041H276.488V164.26L234.485 162.262Z" fill="#263238" stroke="#263238" stroke-miterlimit="10"/>
<path d="M281.847 205.245H238.152L234.485 162.262H278.18L281.847 205.245Z" fill="#0071F2" stroke="#263238" stroke-miterlimit="10"/>
<path d="M314.842 234.79C314.842 234.79 287.48 214.508 286.141 213.36C284.802 212.212 281.166 207.811 279.827 206.28C278.488 204.749 270.834 202.453 270.834 202.453C270.834 202.453 266.816 199.583 266.05 198.435C265.285 197.287 262.989 199.009 264.328 201.305C265.667 203.601 268.92 205.515 268.92 205.515H252.847C252.847 205.515 260.309 212.403 261.649 213.743C262.988 215.082 277.339 215.656 277.339 215.656C277.339 215.656 288.628 232.111 297.43 239.957C306.232 247.802 316.756 253.351 318.669 252.968C320.582 252.585 321.348 248.95 320.774 247.419C320.2 245.888 314.842 234.79 314.842 234.79Z" fill="white" stroke="#263238" stroke-miterlimit="10"/>
<path d="M258.396 206.471L264.328 209.724C264.328 209.724 272.173 206.28 274.278 206.854C276.383 207.428 278.487 210.107 278.487 210.107" stroke="#263238" stroke-miterlimit="10"/>
<path d="M343.967 307.11L347.896 375.74C347.896 375.74 345.539 392.243 347.634 399.053C349.73 405.864 351.039 424.724 351.039 424.724C351.039 424.724 348.944 427.867 349.467 428.915C349.991 429.963 351.824 436.773 351.824 436.773L352.61 440.44C352.61 440.44 357.587 438.083 359.421 438.083C361.255 438.083 365.184 440.964 365.184 440.964C365.184 440.964 369.375 433.891 369.113 431.796C368.851 429.7 367.017 427.605 367.017 426.295C367.017 424.985 367.541 422.366 367.541 420.27C367.541 418.174 367.279 419.746 367.279 413.983C367.279 408.22 369.375 361.594 369.375 360.808C369.375 360.022 374.614 321.778 374.614 321.778L383.782 362.38C383.782 362.38 382.21 384.907 383.782 399.315C385.354 413.722 385.092 427.081 385.092 427.081C385.092 427.081 382.211 432.058 382.996 432.844C383.782 433.63 385.354 436.249 385.354 436.249C385.354 436.249 384.568 439.13 385.092 440.702C385.616 442.274 385.616 442.274 385.616 442.274L400.809 436.773L404.476 437.821C404.476 437.821 405.262 435.463 404.738 433.368C404.214 431.272 402.904 429.177 403.166 428.129C403.428 427.081 403.69 425.51 403.952 423.414C404.214 421.318 403.69 418.437 403.69 416.341C403.69 414.245 406.572 360.284 406.309 358.975C406.047 357.665 403.428 306.848 403.428 306.848L343.967 307.11Z" fill="#0071F2" stroke="#263238" stroke-miterlimit="10"/>
<path d="M376.336 317.418L387.967 313.361" stroke="#263238" stroke-miterlimit="10"/>
<path d="M386.777 433.954C386.777 433.954 402.661 429.019 400.502 428.557C398.343 428.094 391.403 430.253 390.787 430.562" stroke="#263238" stroke-miterlimit="10"/>
<path d="M353.931 436.73C353.931 436.73 366.731 431.487 366.885 432.258C367.039 433.029 363.955 434.725 363.955 434.725" stroke="#263238" stroke-miterlimit="10"/>
<path d="M366.577 430.099C366.577 430.099 353.315 427.477 352.389 426.552C351.463 425.627 354.856 425.164 354.856 425.164" stroke="#263238" stroke-miterlimit="10"/>
<path d="M352.611 440.441C352.611 440.441 350.538 449.529 349.921 451.688C349.304 453.847 348.379 457.24 349.458 458.473C350.537 459.707 355.626 460.478 360.87 460.169C366.113 459.86 367.655 458.473 367.964 457.085C368.272 455.697 366.885 450.3 366.422 448.141C365.959 445.982 365.185 440.965 365.185 440.965C365.185 440.965 361.366 438.512 359.422 438.084C357.478 437.655 352.611 440.441 352.611 440.441Z" fill="white" stroke="#263238" stroke-miterlimit="10"/>
<path d="M348.991 456.113C348.922 457.103 349.02 457.97 349.459 458.473C350.539 459.707 355.628 460.478 360.871 460.169C366.114 459.86 367.656 458.473 367.965 457.085C368.025 456.817 368.02 456.396 367.971 455.88C366.19 456.594 363.415 457.413 359.863 457.52C355.854 457.642 351.62 456.782 348.991 456.113Z" stroke="#263238" stroke-miterlimit="10"/>
<path d="M385.617 442.275C385.617 442.275 385.237 453.231 385.853 454.464C386.47 455.698 393.872 455.698 396.956 456.314C400.04 456.931 403.895 458.165 405.9 458.473C407.905 458.781 417.466 458.627 418.854 457.856C420.242 457.085 420.088 454.617 418.7 453.23C417.312 451.842 414.999 451.688 412.377 449.683C409.755 447.678 405.438 443.052 404.975 441.664C404.512 440.276 404.476 437.821 404.476 437.821L400.809 436.773L385.617 442.275Z" fill="white" stroke="#263238" stroke-miterlimit="10"/>
<path d="M418.944 453.529C417.782 454.528 415.649 455.943 412.402 456.544C407.129 457.521 401.465 454.786 396.777 454.2C392.954 453.722 387.444 452.206 385.542 451.662C385.589 453.045 385.683 454.123 385.853 454.463C386.47 455.697 393.872 455.697 396.956 456.313C400.04 456.93 403.895 458.164 405.9 458.472C407.905 458.78 417.466 458.626 418.854 457.855C420.151 457.137 420.087 454.947 418.944 453.529Z" stroke="#263238" stroke-miterlimit="10"/>
<path d="M368.88 205.666C368.88 205.666 347.641 208.919 344.962 210.067C342.283 211.215 336.926 218.486 336.926 218.486L316.946 231.728L313.502 233.067C313.502 233.067 319.625 254.88 320.773 255.071C321.921 255.262 344.006 245.082 344.006 245.082L342.858 287.369L340.945 310.33C340.945 310.33 347.259 311.478 365.628 312.052C383.997 312.626 406.384 309.756 406.958 309.756C407.532 309.756 407.915 265.556 407.915 265.556L408.298 256.563L422.649 246.422C422.649 246.422 410.594 217.529 409.638 214.276C408.681 211.023 407.533 209.492 404.472 207.962C401.411 206.431 388.973 204.135 388.973 204.135L368.88 205.666Z" fill="#263238" stroke="#263238" stroke-miterlimit="10"/>
<path d="M368.789 218.236L361.891 208.686L366.945 205.469L368.789 218.236Z" fill="white" stroke="#263238" stroke-miterlimit="10" stroke-linecap="round" stroke-linejoin="round"/>
<path d="M361.891 208.686L360.053 217.416L365.72 214.352L361.891 208.686Z" fill="white" stroke="#263238" stroke-miterlimit="10" stroke-linecap="round" stroke-linejoin="round"/>
<path d="M359.472 161.589C359.472 161.589 354.363 171.356 354.814 172.858C355.265 174.361 355.415 175.713 355.415 175.713C355.415 175.713 348.653 183.526 349.855 184.879C351.057 186.231 353.161 187.584 353.161 187.584C353.161 187.584 354.213 196.299 354.213 196.9C354.213 197.501 353.462 201.257 354.964 202.459C356.467 203.661 358.27 203.661 359.472 203.511C360.674 203.361 364.581 202.159 364.581 202.159C364.581 202.159 367.887 219.589 368.788 218.236C369.69 216.884 386.819 202.159 386.819 202.159L386.218 193.895C386.218 193.895 395.083 180.672 395.384 177.818C395.685 174.963 391.327 162.492 389.824 160.539C388.321 158.586 372.845 154.679 367.286 155.13C361.726 155.579 357.819 158.584 359.472 161.589Z" fill="white" stroke="#263238" stroke-miterlimit="10" stroke-linecap="round" stroke-linejoin="round"/>
<path d="M372.094 198.702C373.296 197.199 374.648 179.77 375.4 178.417C376.151 177.065 380.208 176.013 381.711 177.065C383.214 178.117 383.214 185.179 381.711 187.583C380.208 189.987 378.405 189.236 380.96 191.64C383.514 194.044 386.219 193.894 386.219 193.894C386.219 193.894 395.084 180.671 395.385 177.817C395.686 174.962 391.328 162.491 389.825 160.538C388.322 158.585 372.846 154.678 367.287 155.129C361.728 155.58 357.821 158.585 359.474 161.59C359.474 161.59 362.629 160.989 366.085 161.891C369.541 162.793 370.142 164.596 369.541 165.046C368.94 165.497 364.432 167.751 365.033 169.704C365.634 171.657 372.696 175.865 372.696 175.865C372.696 175.865 371.494 183.077 371.193 185.632C370.892 188.186 367.737 191.191 367.737 191.191C367.737 191.191 359.172 186.082 356.167 186.834C353.162 187.585 353.162 187.585 353.162 187.585C353.162 187.585 354.214 196.3 354.214 196.901C354.214 197.502 353.463 201.258 354.965 202.46C356.468 203.662 358.271 203.662 359.473 203.512C360.675 203.362 364.582 202.16 364.582 202.16C364.582 202.16 370.892 200.205 372.094 198.702Z" fill="#263238" stroke="#263238" stroke-miterlimit="10" stroke-linecap="round" stroke-linejoin="round"/>
<path d="M361.576 174.361C359.623 171.656 357.369 172.858 357.369 172.858" stroke="#263238" stroke-miterlimit="10" stroke-linecap="round" stroke-linejoin="round"/>
<path d="M356.167 191.34C356.167 191.34 358.721 191.34 361.576 189.988" stroke="white" stroke-miterlimit="10" stroke-linecap="round" stroke-linejoin="round"/>
<path d="M360.374 178.568C360.374 179.564 359.97 180.371 359.472 180.371C358.974 180.371 358.57 179.564 358.57 178.568C358.57 177.572 358.974 176.765 359.472 176.765C359.97 176.765 360.374 177.572 360.374 178.568Z" fill="#263238"/>
<path d="M370.459 211.841L368.788 218.236L373.223 214.812L370.459 211.841Z" stroke="#263238" stroke-miterlimit="10" stroke-linecap="round" stroke-linejoin="round"/>
<path d="M370.459 211.841L374.64 221.074L390.494 203.13L386.661 198.949L370.459 211.841Z" fill="white" stroke="#263238" stroke-miterlimit="10" stroke-linecap="round" stroke-linejoin="round"/>
<path d="M344.005 245.083L340.753 223.078" stroke="white" stroke-miterlimit="10"/>
<path d="M394.521 228.245L402.013 251.284" stroke="white" stroke-miterlimit="10"/>
<path d="M404.337 253.307C404.337 253.307 407.553 268.026 407.702 269.812C407.851 271.597 413.504 277.995 417.224 277.995C420.944 277.995 427.044 272.639 427.639 270.705C428.234 268.771 424.812 262.82 420.795 261.629C416.777 260.439 405.825 251.67 404.337 253.307Z" fill="white" stroke="#263238" stroke-miterlimit="10"/>
<path d="M428.009 266.139L431.724 272.154L418.33 268.589L409.788 269.146L428.009 266.139Z" fill="white" stroke="#263238" stroke-miterlimit="10"/>
<path d="M413.671 265.986C413.671 265.986 408.969 264.653 409.731 265.986C410.493 267.32 416.243 274.654 417.672 275.226C419.101 275.798 423.197 275.607 424.721 275.036C426.245 274.464 432.649 273.557 433.888 273.081C435.126 272.605 438.461 272.128 438.365 271.176C438.27 270.223 435.221 269.938 433.316 270.319C431.411 270.7 428.341 268.083 428.341 268.083L413.671 265.986Z" fill="white" stroke="#263238" stroke-miterlimit="10"/>
<path d="M393.948 269.957L365.245 264.982L430.301 265.556L452.499 269.957H393.948Z" fill="#A3A3A3" stroke="#263238" stroke-miterlimit="10"/>
<path d="M452.499 269.957H393.948L406.572 228.819H465.123L452.499 269.957Z" fill="#A3A3A3" stroke="#263238" stroke-miterlimit="10"/>
<path d="M427.596 272.456C427.596 272.456 427.25 264.167 427.856 263.668C428.462 263.169 429.809 263.067 430.131 264.443C430.453 265.818 430.59 270.477 430.801 271.869C431.012 273.261 430.511 274.456 430.193 274.606C429.875 274.756 427.105 274.463 427.105 274.463" fill="white"/>
<path d="M427.596 272.456C427.596 272.456 427.25 264.167 427.856 263.668C428.462 263.169 429.809 263.067 430.131 264.443C430.453 265.818 430.59 270.477 430.801 271.869C431.012 273.261 430.511 274.456 430.193 274.606C429.875 274.756 427.105 274.463 427.105 274.463" stroke="#263238" stroke-miterlimit="10"/>
<path d="M423.578 272.94C423.467 272.205 423.918 264.116 423.918 264.116C423.918 264.116 424.282 262.558 425.431 263.028C426.581 263.498 426.893 266.35 426.94 266.665C426.988 266.98 427.921 271.563 428.064 272.507C428.207 273.452 427.982 274.344 426.757 274.959C425.532 275.574 422.721 275.322 422.721 275.322" fill="white"/>
<path d="M423.578 272.94C423.467 272.205 423.918 264.116 423.918 264.116C423.918 264.116 424.282 262.558 425.431 263.028C426.581 263.498 426.893 266.35 426.94 266.665C426.988 266.98 427.921 271.563 428.064 272.507C428.207 273.452 427.982 274.344 426.757 274.959C425.532 275.574 422.721 275.322 422.721 275.322" stroke="#263238" stroke-miterlimit="10"/>
<path d="M420.819 273.714C420.848 272.971 421.908 264.089 421.908 264.089C421.908 264.089 422.558 262.627 423.599 263.305C424.64 263.983 424.409 266.843 424.397 267.161C424.384 267.479 424.438 272.156 424.401 273.11C424.363 274.065 423.975 274.899 422.656 275.273C421.337 275.646 419.92 275.484 419.92 275.484" fill="white"/>
<path d="M420.819 273.714C420.848 272.971 421.908 264.089 421.908 264.089C421.908 264.089 422.558 262.627 423.599 263.305C424.64 263.983 424.409 266.843 424.397 267.161C424.384 267.479 424.438 272.156 424.401 273.11C424.363 274.065 423.975 274.899 422.656 275.273C421.337 275.646 419.92 275.484 419.92 275.484" stroke="#263238" stroke-miterlimit="10"/>
<path d="M418.248 272.374C418.271 271.788 419.108 264.776 419.108 264.776C419.108 264.776 419.621 263.622 420.443 264.158C421.265 264.693 421.083 266.951 421.073 267.202C421.063 267.453 421.106 271.145 421.076 271.899C421.046 272.653 420.74 273.312 419.698 273.606C418.656 273.901 417.538 273.773 417.538 273.773" fill="white"/>
<path d="M418.248 272.374C418.271 271.788 419.108 264.776 419.108 264.776C419.108 264.776 419.621 263.622 420.443 264.158C421.265 264.693 421.083 266.951 421.073 267.202C421.063 267.453 421.106 271.145 421.076 271.899C421.046 272.653 420.74 273.312 419.698 273.606C418.656 273.901 417.538 273.773 417.538 273.773" stroke="#263238" stroke-miterlimit="10"/>
<path d="M447.128 116.653C429.01 116.653 414.322 131.341 414.322 149.459C414.322 156.716 416.683 163.42 420.673 168.853L408.358 184.916L428.409 176.394C433.718 180.091 440.168 182.265 447.128 182.265C465.246 182.265 479.934 167.577 479.934 149.459C479.934 131.341 465.247 116.653 447.128 116.653Z" fill="white" stroke="#263238" stroke-miterlimit="10" stroke-linecap="round" stroke-linejoin="round"/>
<path d="M423.6 141.96V150.36C423.6 151.2 423.807 151.847 424.22 152.3C424.633 152.753 425.24 152.98 426.04 152.98C426.84 152.98 427.453 152.753 427.88 152.3C428.307 151.847 428.52 151.2 428.52 150.36V141.96H431.94V150.34C431.94 151.593 431.673 152.653 431.14 153.52C430.607 154.387 429.887 155.04 428.98 155.48C428.087 155.92 427.087 156.14 425.98 156.14C424.873 156.14 423.88 155.927 423 155.5C422.133 155.06 421.447 154.407 420.94 153.54C420.433 152.66 420.18 151.593 420.18 150.34V141.96H423.6ZM437.762 141.96V156H434.342V141.96H437.762ZM447.86 137L442.5 159.74H439.2L444.56 137H447.86ZM452.663 141.96V150.36C452.663 151.2 452.869 151.847 453.283 152.3C453.696 152.753 454.303 152.98 455.103 152.98C455.903 152.98 456.516 152.753 456.943 152.3C457.369 151.847 457.583 151.2 457.583 150.36V141.96H461.003V150.34C461.003 151.593 460.736 152.653 460.203 153.52C459.669 154.387 458.949 155.04 458.043 155.48C457.149 155.92 456.149 156.14 455.043 156.14C453.936 156.14 452.943 155.927 452.063 155.5C451.196 155.06 450.509 154.407 450.003 153.54C449.496 152.66 449.243 151.593 449.243 150.34V141.96H452.663ZM472.004 156L469.144 151.7L466.624 156H462.744L467.244 148.86L462.644 141.96H466.624L469.444 146.2L471.924 141.96H475.804L471.344 149.04L475.984 156H472.004Z" fill="black"/>
</svg>
