<svg width="512" height="512" viewBox="0 0 512 512" fill="none" xmlns="http://www.w3.org/2000/svg">
<g clip-path="url(#clip0_226_430)">
<path d="M361.688 -0.374798C363.006 -0.39929 364.324 -0.423782 365.682 -0.449016C366.946 -0.452884 368.21 -0.456751 369.512 -0.460735C370.661 -0.468953 371.811 -0.477171 372.995 -0.485638C376.647 0.104791 377.817 1.05888 380 4.0002C380.535 7.7402 380.668 9.95362 378.61 13.1799C374.572 15.9965 370.563 15.5986 365.75 15.6252C356.508 15.7552 348.552 15.9932 341 22.0002C331.236 32.8489 334.685 39.1861 334 57.0002C387.46 57.0002 440.92 57.0002 496 57.0002C497.235 35.5279 497.235 35.5279 487.438 20.6252C481.077 16.3846 475.381 15.877 467.773 15.8742C467.076 15.8724 466.38 15.8705 465.662 15.8686C464.159 15.8646 462.657 15.8625 461.154 15.8621C457.957 15.8587 454.76 15.8373 451.563 15.8169C445.62 15.7789 439.677 15.7476 433.734 15.7497C429.59 15.7505 425.447 15.7272 421.303 15.6878C419.727 15.6774 418.15 15.6759 416.574 15.6835C414.371 15.6931 412.171 15.672 409.969 15.6438C408.716 15.6401 407.464 15.6365 406.174 15.6327C403 15.0002 403 15.0002 400.561 12.6865C399 10.0002 399 10.0002 399.063 6.3752C400.322 1.84255 400.322 1.84255 403 0.000202298C405.583 -0.301044 407.926 -0.420006 410.51 -0.40385C411.655 -0.414145 411.655 -0.414145 412.822 -0.424648C415.351 -0.442978 417.878 -0.439066 420.406 -0.433391C422.169 -0.437954 423.932 -0.443259 425.695 -0.449276C429.398 -0.458222 433.1 -0.455771 436.802 -0.445843C441.522 -0.434413 446.241 -0.454464 450.96 -0.48376C454.606 -0.502218 458.253 -0.501809 461.899 -0.496122C463.637 -0.49597 465.375 -0.501944 467.113 -0.514414C480.906 -0.599346 491.414 0.540442 501.77 10.5666C509.019 18.4756 512.236 25.7733 512.274 36.6486C512.28 37.3868 512.285 38.125 512.29 38.8855C512.305 41.342 512.306 43.7983 512.307 46.2548C512.314 48.0228 512.323 49.7907 512.332 51.5586C512.354 56.3476 512.363 61.1365 512.368 65.9255C512.371 68.9174 512.378 71.9094 512.385 74.9014C512.409 85.3385 512.422 95.7757 512.426 106.213C512.429 115.945 512.459 125.677 512.501 135.41C512.536 143.767 512.551 152.125 512.552 160.483C512.553 165.474 512.562 170.465 512.59 175.456C512.616 180.145 512.618 184.834 512.602 189.524C512.601 191.246 512.607 192.968 512.623 194.69C512.644 197.038 512.633 199.385 512.615 201.733C512.618 203.705 512.618 203.705 512.621 205.716C512 209 512 209 509.653 211.423C506.409 213.352 504.713 213.632 501 213C498.152 210.768 497.15 209.45 496 206C495.91 204.199 495.878 202.394 495.88 200.59C495.879 199.469 495.877 198.349 495.876 197.194C495.879 195.958 495.883 194.723 495.887 193.451C495.887 191.473 495.887 191.473 495.886 189.455C495.886 185.885 495.892 182.315 495.899 178.746C495.905 175.397 495.905 172.048 495.906 168.7C495.911 158.904 495.925 149.108 495.938 139.313C495.958 117.43 495.979 95.5465 496 73.0002C442.54 73.0002 389.08 73.0002 334 73.0002C334 98.7402 334 124.48 334 151C353.8 150.67 373.6 150.34 394 150C389.71 145.71 385.42 141.42 381 137C379.556 134.112 379.623 132.204 380 129C382.374 125.789 383.935 124.284 387.813 123.25C392.664 124.392 395.394 127.663 399 131C399.926 131.854 400.851 132.707 401.804 133.586C404.378 135.979 406.911 138.41 409.43 140.861C410.483 141.876 411.544 142.882 412.613 143.879C414.181 145.343 415.717 146.835 417.25 148.336C418.619 149.644 418.619 149.644 420.016 150.978C422.327 154.497 422.795 156.6 422.552 160.749C421.529 164.924 418.796 167.33 415.727 170.188C415.088 170.816 414.449 171.445 413.791 172.092C411.756 174.084 409.691 176.041 407.625 178C406.243 179.346 404.863 180.693 403.485 182.043C392.426 192.81 392.426 192.81 388.188 193.375C385 193 385 193 382.125 190.875C380 188 380 188 379.25 185.188C380.988 177.802 388.947 172.054 394 167C364.3 166.505 364.3 166.505 334 166C334 196.36 334 226.72 334 258C387.46 258 440.92 258 496 258C496 251.73 496 245.46 496 239C498 234 498 234 501 232C504.717 231.515 506.455 231.658 509.657 233.666C512 236 512 236 512.622 238.661C512.619 240.179 512.619 240.179 512.615 241.727C512.625 242.879 512.634 244.031 512.644 245.218C512.627 246.46 512.611 247.701 512.594 248.981C512.594 250.263 512.594 251.546 512.594 252.867C512.592 255.584 512.574 258.299 512.542 261.015C512.503 264.474 512.498 267.931 512.506 271.39C512.51 274.712 512.489 278.034 512.469 281.356C512.469 282.587 512.469 283.819 512.468 285.088C512.304 297.132 509.602 305.303 501.114 313.914C494.102 320.389 487.044 324.106 477.43 324.147C475.729 324.158 475.729 324.158 473.994 324.169C472.134 324.173 472.134 324.173 470.236 324.177C468.927 324.184 467.618 324.19 466.268 324.197C461.928 324.218 457.587 324.229 453.246 324.238C451.748 324.243 450.25 324.247 448.752 324.251C441.71 324.27 434.668 324.284 427.626 324.292C419.517 324.302 411.409 324.328 403.3 324.369C397.02 324.399 390.741 324.414 384.461 324.417C380.716 324.42 376.972 324.428 373.228 324.454C369.699 324.477 366.171 324.481 362.642 324.471C360.746 324.47 358.851 324.489 356.955 324.509C345.242 324.439 336.688 321.622 328.231 313.434C319.264 303.65 317.694 295.313 317.773 282.364C317.773 281.105 317.773 279.845 317.772 278.548C317.772 275.112 317.783 271.677 317.797 268.242C317.81 264.645 317.811 261.048 317.814 257.451C317.82 250.648 317.836 243.845 317.856 237.042C317.879 229.293 317.89 221.545 317.9 213.796C317.92 197.864 317.956 181.932 318 166C314.628 166.289 311.258 166.591 307.887 166.895C306.937 166.976 305.987 167.057 305.009 167.141C292.889 168.249 282.272 171.96 273.961 181.289C272.064 183.833 270.469 186.18 269 189C268.501 189.939 268.501 189.939 267.991 190.896C263.469 201.017 264.435 212.047 264.461 222.895C264.451 225.132 264.439 227.37 264.425 229.608C264.393 235.479 264.383 241.351 264.379 247.223C264.37 256.608 264.334 265.993 264.286 275.378C264.274 278.633 264.275 281.889 264.277 285.145C264.241 304.405 262.997 321.056 251 337C250.55 337.615 250.1 338.23 249.637 338.863C241.616 349.053 228.646 355.746 216 358C212.494 358.224 209.011 358.192 205.5 358.125C204.582 358.116 203.665 358.107 202.719 358.098C200.479 358.075 198.24 358.042 196 358C196.003 358.636 196.006 359.272 196.009 359.927C196.075 375.427 196.125 390.928 196.156 406.428C196.171 413.924 196.192 421.42 196.227 428.915C196.257 435.452 196.276 441.988 196.283 448.524C196.286 451.983 196.296 455.441 196.317 458.899C196.342 462.767 196.342 466.636 196.341 470.504C196.352 471.64 196.362 472.777 196.374 473.948C196.328 485.6 193.296 493.614 185.114 501.914C176.785 509.604 169.285 512.137 158.073 512.193C157.171 512.201 156.27 512.209 155.341 512.218C152.363 512.243 149.385 512.259 146.406 512.274C145.389 512.279 144.372 512.284 143.324 512.29C137.944 512.316 132.564 512.336 127.184 512.35C122.728 512.364 118.272 512.392 113.816 512.432C108.436 512.482 103.057 512.506 97.6769 512.513C95.626 512.52 93.575 512.535 91.5241 512.559C88.6582 512.591 85.794 512.591 82.928 512.584C82.079 512.6 81.2301 512.617 80.3554 512.633C76.2195 512.589 74.6068 512.547 71.4384 509.69C69.4765 506.02 69.902 503.954 71.0002 500C72.0578 498.314 72.0578 498.314 74.0002 497C76.7465 496.701 79.269 496.583 82.0166 496.6C82.8332 496.593 83.6499 496.586 84.4913 496.578C87.1962 496.558 89.9007 496.559 92.6057 496.559C94.488 496.547 96.3703 496.534 98.2525 496.519C103.216 496.483 108.179 496.462 113.143 496.447C121.069 496.422 128.996 496.383 136.923 496.325C139.686 496.309 142.448 496.305 145.211 496.302C146.92 496.293 148.628 496.282 150.337 496.271C151.098 496.274 151.86 496.277 152.644 496.279C160.314 496.207 166.842 494.899 173 490C180.895 481.228 179.239 476.709 180 463C125.88 463 71.7602 463 16.0002 463C16.0585 480.071 16.0585 480.071 24.5627 491.375C29.965 494.977 34.7752 495.561 41.1565 496.035C44.5611 496.372 46.7055 496.779 49.469 498.852C51.7332 502.029 51.543 504.201 51.0002 508C49.5042 510.188 49.5042 510.188 47.0002 512C43.9907 512.406 41.4374 512.572 38.4377 512.5C37.6314 512.486 36.8251 512.472 35.9944 512.457C25.2127 512.078 18.0285 508.984 10.2307 501.434C1.8724 492.314 -0.304725 484.324 -0.267181 472.21C-0.271713 471.134 -0.276246 470.057 -0.280914 468.949C-0.293559 465.348 -0.291936 461.747 -0.290283 458.146C-0.296268 455.562 -0.303074 452.977 -0.310638 450.393C-0.327224 444.105 -0.332746 437.817 -0.333862 431.529C-0.334814 426.416 -0.338943 421.302 -0.345276 416.188C-0.362882 401.676 -0.372106 387.164 -0.370605 372.652C-0.370486 371.48 -0.370484 371.48 -0.370361 370.283C-0.37028 369.501 -0.370201 368.718 -0.370117 367.912C-0.369305 355.232 -0.388422 342.553 -0.416626 329.873C-0.445386 316.841 -0.459185 303.808 -0.457458 290.775C-0.456796 283.464 -0.462222 276.152 -0.483795 268.841C-0.503961 261.963 -0.503309 255.085 -0.48877 248.206C-0.48668 245.686 -0.491377 243.165 -0.503479 240.644C-0.518962 237.195 -0.509617 233.747 -0.494232 230.298C-0.509663 228.813 -0.509648 228.813 -0.525391 227.297C-0.418202 216.375 2.99294 208.053 10.5667 200.231C20.5569 191.074 29.0744 189.7 42.2883 189.71C43.6311 189.704 44.9739 189.697 46.3167 189.689C49.9491 189.672 53.5815 189.667 57.214 189.666C59.4884 189.664 61.7628 189.66 64.0372 189.655C71.9861 189.636 79.935 189.628 87.884 189.63C95.2703 189.631 102.656 189.61 110.042 189.578C116.403 189.552 122.763 189.541 129.123 189.543C132.914 189.543 136.704 189.537 140.494 189.516C144.063 189.497 147.632 189.497 151.201 189.511C153.118 189.514 155.035 189.498 156.952 189.48C168.705 189.565 177.279 192.346 185.77 200.567C194.591 210.191 196.308 218.43 196.227 231.178C196.228 232.388 196.228 233.599 196.228 234.846C196.227 238.147 196.217 241.448 196.203 244.749C196.19 248.206 196.189 251.662 196.187 255.119C196.181 261.657 196.164 268.194 196.144 274.732C196.122 282.178 196.111 289.624 196.101 297.07C196.08 312.38 196.045 327.69 196 343C198.877 342.707 201.753 342.406 204.629 342.102C205.842 341.979 205.842 341.979 207.08 341.854C219.282 340.546 230.221 336.151 238.141 326.352C245.662 315.071 247.15 304.124 247.142 290.843C247.146 289.858 247.149 288.873 247.153 287.859C247.16 285.731 247.165 283.604 247.169 281.477C247.176 278.099 247.192 274.722 247.21 271.345C247.262 261.746 247.311 252.147 247.326 242.548C247.336 236.664 247.366 230.781 247.408 224.897C247.42 222.666 247.425 220.436 247.423 218.205C247.408 198.614 249.768 181.983 263.809 167.063C276.149 155.448 290.334 150.604 307 150.875C308.061 150.884 309.122 150.893 310.215 150.903C312.81 150.926 315.405 150.959 318 151C317.997 150.382 317.993 149.763 317.989 149.126C317.901 134.034 317.834 118.942 317.793 103.85C317.772 96.551 317.744 89.2526 317.698 81.9541C317.658 75.5884 317.633 69.2229 317.624 62.8572C317.619 59.4904 317.607 56.1239 317.577 52.7571C317.548 48.9873 317.544 45.2182 317.546 41.4482C317.532 40.347 317.517 39.2457 317.503 38.1111C317.562 26.7941 320.686 18.3698 328.567 10.2307C338.761 0.887633 348.16 -0.36145 361.688 -0.374798ZM21.5901 212.453C12.2572 223.228 16.0002 228.175 16.0002 246C70.1202 246 124.24 246 180 246C182.209 222.961 182.209 222.961 175 213C166.365 204.893 158.631 204.85 147.247 204.855C146.069 204.852 144.891 204.848 143.677 204.845C140.458 204.837 137.239 204.834 134.02 204.833C132.005 204.832 129.991 204.83 127.976 204.827C120.939 204.818 113.901 204.814 106.863 204.815C100.318 204.815 93.7733 204.805 87.2284 204.789C81.5959 204.776 75.9635 204.771 70.331 204.771C66.9728 204.772 63.6147 204.769 60.2566 204.758C56.5085 204.748 52.7606 204.751 49.0125 204.757C47.9098 204.752 46.8072 204.746 45.6712 204.74C36.5186 204.778 28.3347 205.503 21.5901 212.453ZM16.0002 262C16.0002 323.05 16.0002 384.1 16.0002 447C70.1202 447 124.24 447 180 447C180 417.63 180 388.26 180 358C167.46 358 154.92 358 142 358C140.02 361.96 138.04 365.92 136 370C128.533 377.045 119.464 377.31 109.594 377.266C108.147 377.269 108.147 377.269 106.671 377.272C104.644 377.273 102.617 377.269 100.59 377.261C97.5088 377.25 94.4286 377.261 91.3479 377.274C89.3674 377.272 87.387 377.27 85.4065 377.266C84.4969 377.27 83.5872 377.274 82.65 377.278C74.7673 377.221 66.9315 376.658 60.5571 371.592C55.4633 366.384 53.3812 360.426 53.2546 353.248C53.2738 352.362 53.293 351.476 53.3127 350.563C53.3242 349.64 53.3356 348.717 53.3474 347.766C53.6113 340.635 54.8876 335.254 60.0002 330C65.4345 325.17 71.6965 324.22 78.7502 323.75C81.9584 323.997 84.1654 324.499 87.0002 326C88.5252 329.05 88.2359 331.643 88.0002 335C86.2815 337.499 85.2156 337.954 82.2229 338.59C80.119 338.822 78.0148 339.051 75.9104 339.278C72.3757 340.155 71.0973 341.031 69.0002 344C68.3681 347.13 68.3681 347.13 68.5002 350.5C68.4899 351.624 68.4796 352.748 68.469 353.906C69.1029 357.598 70.0657 358.746 73.0002 361C75.7314 361.911 77.3787 362.135 80.1929 362.161C81.0342 362.171 81.8755 362.181 82.7422 362.19C83.6485 362.195 84.5548 362.199 85.4885 362.203C86.4245 362.209 87.3605 362.215 88.3248 362.221C90.306 362.23 92.2873 362.237 94.2686 362.24C97.2907 362.25 100.312 362.281 103.334 362.313C105.261 362.319 107.187 362.324 109.114 362.328C110.014 362.341 110.914 362.353 111.841 362.366C116.972 362.348 120.576 361.904 125 359C127.366 355.129 127.391 351.457 127 347C125.744 343.497 124.995 341.581 121.75 339.688C118.881 338.902 118.881 338.902 115.375 338.625C112 338 112 338 110.063 336.313C108.24 332.345 108.646 329.064 110 325C117.534 323.811 123.985 323.684 131 327C136 331 136 331 142 343C154.54 343 167.08 343 180 343C180 316.27 180 289.54 180 262C125.88 262 71.7602 262 16.0002 262ZM334 274C332.322 291.887 332.322 291.887 339 301C347.585 309.059 355.251 309.15 366.57 309.145C367.729 309.149 368.887 309.152 370.081 309.156C373.905 309.165 377.73 309.167 381.555 309.168C383.544 309.171 385.534 309.173 387.523 309.176C393.777 309.184 400.03 309.186 406.283 309.186C412.719 309.185 419.155 309.195 425.59 309.211C431.13 309.224 436.669 309.23 442.208 309.229C445.51 309.229 448.812 309.233 452.114 309.242C455.8 309.252 459.486 309.249 463.172 309.243C464.256 309.249 465.339 309.254 466.456 309.26C475.001 309.225 482.09 308.529 489 303C498.048 293.677 496 289.006 496 274C442.54 274 389.08 274 334 274Z" fill="white"/>
<path d="M76.1108 215.839C77.1523 215.829 78.1938 215.819 79.2669 215.81C80.3919 215.805 81.5169 215.801 82.676 215.797C83.8339 215.791 84.9918 215.785 86.1848 215.779C88.6369 215.77 91.0889 215.763 93.541 215.76C97.2874 215.75 101.033 215.719 104.78 215.687C107.162 215.681 109.544 215.676 111.926 215.672C113.045 215.659 114.164 215.647 115.317 215.634C120.915 215.65 125.233 215.685 130 219C131.427 221.853 131.311 223.834 131 227C129.036 230.152 127.987 231.767 124.306 232.635C123.279 232.639 122.252 232.643 121.194 232.647C119.442 232.67 119.442 232.67 117.654 232.695C116.397 232.684 115.139 232.674 113.844 232.664C112.55 232.669 111.255 232.673 109.921 232.678C107.184 232.686 104.448 232.675 101.711 232.652C98.2063 232.623 94.7038 232.64 91.1994 232.67C87.8516 232.692 84.5043 232.676 81.1565 232.664C79.2704 232.679 79.2704 232.679 77.3463 232.695C76.1783 232.679 75.0103 232.663 73.8069 232.647C72.7797 232.643 71.7525 232.639 70.6942 232.635C68.0002 232 68.0002 232 65.6334 229.686C64.0002 227 64.0002 227 64.0627 223.375C65.3177 218.857 65.3177 218.857 68.0002 217C70.9852 216.005 72.9925 215.862 76.1108 215.839Z" fill="white"/>
<path d="M390.693 26.58C392.445 26.5561 392.445 26.5561 394.233 26.5317C395.495 26.5315 396.758 26.5313 398.058 26.5311C399.354 26.5235 400.65 26.5159 401.985 26.5081C404.728 26.4946 407.471 26.493 410.214 26.4989C413.726 26.5048 417.237 26.4742 420.749 26.4338C424.102 26.4017 427.455 26.406 430.808 26.4061C432.069 26.3897 433.329 26.3733 434.628 26.3564C435.799 26.3658 436.971 26.3751 438.177 26.3846C439.207 26.3826 440.238 26.3805 441.299 26.3784C444 26.9999 444 26.9999 446.368 29.3118C448 31.9999 448 31.9999 447.937 35.6249C446.682 40.1427 446.682 40.1427 444 41.9999C441.01 42.9963 438.997 43.1378 435.873 43.161C434.829 43.1706 433.784 43.1802 432.707 43.1901C431.579 43.1944 430.451 43.1986 429.289 43.203C427.548 43.2116 427.548 43.2116 425.773 43.2203C423.317 43.2297 420.86 43.2363 418.404 43.2401C414.647 43.2498 410.89 43.2808 407.133 43.3124C404.747 43.3189 402.362 43.3242 399.976 43.328C398.29 43.3465 398.29 43.3465 396.57 43.3654C395.519 43.3624 394.468 43.3594 393.385 43.3563C392.003 43.3618 392.003 43.3618 390.593 43.3674C386.764 42.8248 383.968 41.276 381.625 38.1874C380.751 35.1299 381.158 33.0442 382 29.9999C384.453 26.5973 386.641 26.6131 390.693 26.58Z" fill="white"/>
</g>
<defs>
<clipPath id="clip0_226_430">
<rect width="512" height="512" fill="white"/>
</clipPath>
</defs>
</svg>
