<svg width="122" height="123" viewBox="0 0 122 123" fill="none" xmlns="http://www.w3.org/2000/svg">
<g clip-path="url(#clip0_225_121)">
<path d="M53.611 0C68.404 0 81.815 6.02 91.531 15.695C101.248 25.407 107.226 38.785 107.226 53.611C107.226 64.429 103.999 74.539 98.494 82.956L121.699 108.248L105.689 122.88L83.309 98.259C74.813 103.922 64.586 107.226 53.611 107.226C38.822 107.226 25.408 101.206 15.696 91.531C5.978 81.813 0 68.44 0 53.611C0 38.822 6.02 25.407 15.696 15.695C25.408 5.978 38.786 0 53.611 0ZM37.86 33.543C45.671 24.922 54.693 20.234 61.453 27.902C63.23 27.985 64.812 28.573 66.137 29.822C68.922 32.441 69.352 37.332 68.08 41.218V44.61C68.941 45.174 69.5 46.239 69.75 47.447C69.916 48.224 69.959 49.085 69.875 49.904C69.793 50.751 69.584 51.56 69.246 52.231C68.766 53.189 68.029 53.86 67.029 54.008C66.052 55.049 65.099 56.159 64.248 57.233C63.314 58.409 62.514 59.519 61.957 60.435C61.527 61.138 61.666 61.601 61.824 62.123C61.898 62.388 61.98 62.66 62.033 62.956C63.744 63.322 65.289 63.618 66.674 63.877C75.483 65.529 78.227 66.043 78.227 77.509C78.227 78.097 77.75 78.57 77.164 78.57H33.478C32.89 78.57 32.418 78.097 32.418 77.509C32.418 66.043 35.147 65.53 43.972 63.877C45.365 63.618 46.933 63.322 48.641 62.956C48.705 62.725 48.78 62.513 48.854 62.304C49.03 61.8 49.21 61.296 48.687 60.444C48.127 59.532 47.331 58.418 46.396 57.242C45.544 56.173 44.586 55.058 43.61 54.017C42.616 53.869 41.88 53.198 41.399 52.245C41.062 51.584 40.853 50.765 40.765 49.913C40.695 49.094 40.737 48.233 40.894 47.456C41.144 46.248 41.69 45.198 42.541 44.629L41.398 43.948C41.092 40.556 41.986 34.666 37.845 33.551L37.86 33.543ZM65.971 40.316C65.78 38.919 65.414 37.743 64.901 36.767C64.241 35.934 63.272 35.231 62.024 34.319L61.885 34.213C61.625 34.024 61.362 33.834 61.088 33.668C56.91 36.379 54.883 35.745 51.51 36.305C48.456 36.81 45.976 37.943 44.676 40.021V45.292C44.676 45.796 44.329 46.217 43.857 46.324C43.436 46.449 43.122 47.088 42.95 47.888C42.825 48.466 42.793 49.105 42.857 49.716C42.908 50.304 43.047 50.849 43.269 51.28C43.468 51.669 43.718 51.932 44.014 51.932H44.074C44.379 51.932 44.661 52.057 44.851 52.256C45.976 53.431 47.077 54.703 48.044 55.921C49.021 57.138 49.872 58.337 50.483 59.345C51.519 61.049 51.172 62.025 50.839 62.987C50.742 63.274 50.64 63.547 50.64 63.82C50.64 64.351 50.237 64.796 49.738 64.87C47.697 65.328 45.925 65.657 44.362 65.949C37.143 67.304 34.719 67.758 34.552 76.452H76.114C75.948 67.758 73.522 67.305 66.309 65.949C64.721 65.657 62.916 65.319 60.848 64.847C60.353 64.74 60.03 64.301 60.03 63.82C60.03 63.408 59.923 63.051 59.826 62.705C59.535 61.72 59.28 60.835 60.187 59.345C60.793 58.337 61.653 57.138 62.62 55.921C63.589 54.704 64.688 53.432 65.813 52.266C66.036 52.025 66.35 51.919 66.655 51.942H66.665C66.956 51.933 67.21 51.678 67.409 51.29C67.632 50.859 67.766 50.313 67.821 49.726C67.882 49.115 67.841 48.476 67.725 47.898C67.557 47.088 67.243 46.44 66.799 46.325C66.317 46.2 66.002 45.765 66.002 45.293V40.328L65.971 40.316ZM87.283 19.943C78.668 11.327 66.752 5.978 53.611 5.978C40.474 5.978 28.554 11.327 19.944 19.943C11.328 28.553 5.979 40.474 5.979 53.61C5.979 66.751 11.329 78.666 19.944 87.282C28.555 95.897 40.475 101.247 53.611 101.247C66.752 101.247 78.668 95.897 87.283 87.282C95.898 78.666 101.248 66.751 101.248 53.61C101.248 40.474 95.898 28.554 87.283 19.943Z" fill="white"/>
</g>
<defs>
<clipPath id="clip0_225_121">
<rect width="121.699" height="122.88" fill="white"/>
</clipPath>
</defs>
</svg>
