<svg width="200" height="200" viewBox="0 0 200 200" fill="none" xmlns="http://www.w3.org/2000/svg">
<g clip-path="url(#clip0_222_9)">
<path d="M54.6721 53.4823C55.7586 53.4753 56.8452 53.4683 57.9647 53.461C61.5601 53.4434 65.1548 53.4551 68.7502 53.4686C71.246 53.4659 73.7418 53.462 76.2375 53.457C81.4697 53.4511 86.7017 53.4593 91.9338 53.4784C97.9802 53.5001 104.026 53.4931 110.072 53.4711C115.892 53.4507 121.712 53.4529 127.532 53.4646C130.007 53.4673 132.482 53.464 134.958 53.4547C138.415 53.4445 141.871 53.46 145.328 53.4823C146.355 53.4742 147.382 53.4661 148.439 53.4577C155.233 53.5391 155.233 53.5391 158.636 55.5822C160.516 58.9134 160.501 61.3778 160.502 65.1993C160.51 66.2756 160.51 66.2756 160.518 67.3736C160.531 69.7404 160.514 72.1059 160.496 74.4725C160.496 76.1187 160.498 77.7649 160.501 79.4111C160.502 82.8586 160.49 86.3056 160.467 89.753C160.438 94.1741 160.441 98.5944 160.454 103.016C160.461 106.414 160.453 109.811 160.441 113.21C160.436 114.84 160.436 116.47 160.44 118.1C160.443 120.377 160.426 122.653 160.404 124.93C160.399 126.226 160.393 127.522 160.388 128.857C160 132 160 132 158.777 133.92C156.441 135.34 154.891 135.361 152.162 135.34C151.181 135.34 150.2 135.34 149.189 135.34C148.133 135.324 147.077 135.309 145.988 135.293C144.905 135.289 143.822 135.284 142.706 135.28C139.241 135.263 135.777 135.225 132.313 135.187C129.966 135.172 127.619 135.159 125.272 135.146C119.514 135.113 113.757 135.063 108 135C108 137.31 108 139.62 108 142C110.64 142 113.28 142 116 142C115.505 143.98 115.505 143.98 115 146C105.1 146 95.2002 146 85.0002 146C84.6702 144.68 84.3402 143.36 84.0002 142C86.6402 142 89.2802 142 92.0002 142C92.0002 139.69 92.0002 137.38 92.0002 135C91.393 135.007 90.7858 135.013 90.1602 135.02C83.8502 135.086 77.5402 135.132 71.2299 135.165C68.8738 135.18 66.5177 135.2 64.1616 135.226C60.7783 135.262 57.3954 135.28 54.0119 135.293C52.4274 135.316 52.4274 135.316 50.8109 135.34C49.3397 135.34 49.3397 135.34 47.8388 135.34C46.975 135.347 46.1112 135.354 45.2212 135.361C43.0002 135 43.0002 135 41.2231 133.92C39.3413 130.965 39.6107 128.407 39.5962 124.93C39.5893 124.214 39.5824 123.498 39.5754 122.761C39.5571 120.394 39.5609 118.027 39.5666 115.66C39.5621 114.015 39.5568 112.37 39.5507 110.724C39.5418 107.275 39.5442 103.826 39.5542 100.377C39.5657 95.9571 39.5455 91.538 39.5163 87.1181C39.4979 83.7201 39.4982 80.3221 39.5039 76.924C39.504 75.2945 39.498 73.665 39.4856 72.0356C39.4707 69.7563 39.4813 67.4785 39.4985 65.1993C39.4987 63.9026 39.4988 62.606 39.499 61.27C40.0002 57.9999 40.0002 57.9999 41.3646 55.5822C45.6033 53.0374 49.8204 53.444 54.6721 53.4823ZM44.0002 59.9999C43.7069 62.6709 43.7069 62.6709 43.7732 65.8265C43.7733 67.0476 43.7735 68.2687 43.7736 69.5269C43.7838 70.8642 43.7943 72.2016 43.8049 73.5389C43.8086 74.9037 43.8115 76.2685 43.8135 77.6332C43.8211 81.2271 43.8408 84.8207 43.8629 88.4145C43.8833 92.0809 43.8926 95.7474 43.9026 99.4139C43.923 106.609 43.9621 113.804 44.0002 121C54.5602 121 65.1202 121 76.0002 121C76.6602 118.03 77.3202 115.06 78.0002 112C79.9627 107.688 82.649 103.175 87.0002 101C90.0002 102 90.0002 102 91.0002 104C89.8865 104.34 89.8865 104.34 88.7502 104.687C84.3844 106.771 82.5519 109.648 80.7502 114.062C79.8353 117.141 79.8353 117.141 80.0002 121C93.2002 121 106.4 121 120 121C118.999 113.994 118.174 109.894 112.875 105.062C111.069 103.836 111.069 103.836 109 104C109.66 103.01 110.32 102.02 111 101C115.464 102.364 117.456 104.099 120 108C121.958 112.298 123.07 116.349 124 121C134.56 121 145.12 121 156 121C156.042 113.088 156.082 105.177 156.104 97.265C156.114 93.5809 156.128 89.8968 156.151 86.2127C156.173 82.6661 156.185 79.1195 156.19 75.5727C156.194 74.2179 156.201 72.8631 156.212 71.5083C156.226 69.6144 156.227 67.7204 156.227 65.8265C156.232 64.7473 156.236 63.6681 156.241 62.5562C156.259 59.8331 156.259 59.8331 154 57.9999C152 57.6967 152 57.6967 149.673 57.7459C148.764 57.7402 147.856 57.7346 146.92 57.7288C145.42 57.7349 145.42 57.7349 143.891 57.7411C142.84 57.7376 141.79 57.7341 140.708 57.7304C137.222 57.7216 133.736 57.7275 130.25 57.7342C127.836 57.7329 125.423 57.7309 123.009 57.7284C117.945 57.7255 112.881 57.7298 107.817 57.7391C101.313 57.7505 94.8091 57.7439 88.3052 57.732C83.3194 57.7248 78.3336 57.727 73.3477 57.7322C70.9491 57.7336 68.5504 57.7319 66.1517 57.7273C62.8042 57.7222 59.457 57.7299 56.1096 57.7411C55.11 57.737 54.1105 57.733 53.0807 57.7288C52.1721 57.7344 51.2635 57.7401 50.3274 57.7459C49.5354 57.7466 48.7434 57.7474 47.9274 57.7482C45.7618 57.8319 45.7618 57.8319 44.0002 59.9999ZM44.0002 125C44.0002 126.65 44.0002 128.3 44.0002 130C45.5693 131.569 47.1094 131.126 49.2898 131.127C50.678 131.131 50.678 131.131 52.0943 131.135C53.1177 131.133 54.1411 131.131 55.1955 131.129C56.8027 131.132 56.8027 131.132 58.4423 131.135C62.0033 131.139 65.5642 131.136 69.1252 131.133C71.5876 131.133 74.05 131.134 76.5124 131.136C81.6809 131.137 86.8493 131.135 92.0178 131.13C98.6596 131.125 105.301 131.128 111.943 131.134C117.03 131.137 122.117 131.136 127.204 131.134C129.654 131.133 132.104 131.134 134.553 131.136C137.971 131.139 141.388 131.135 144.805 131.129C146.34 131.132 146.34 131.132 147.906 131.135C148.832 131.133 149.757 131.13 150.711 131.127C151.924 131.126 151.924 131.126 153.162 131.126C155.018 131.201 155.018 131.201 156 130C156 128.35 156 126.7 156 125C119.04 125 82.0802 125 44.0002 125ZM96.0002 135C96.0002 137.31 96.0002 139.62 96.0002 142C98.6402 142 101.28 142 104 142C104 139.69 104 137.38 104 135C101.36 135 98.7202 135 96.0002 135Z" fill="white"/>
<path d="M26.9999 0.000160575C30.4695 1.53246 33.6505 3.44828 36.8749 5.43766C37.7412 5.95393 38.6074 6.4702 39.4999 7.00211C45.7475 10.7477 45.7475 10.7477 46.9999 12.0002C47.3101 16.4304 47.2784 20.8729 47.3124 25.3127C47.3414 26.5624 47.3704 27.8122 47.4003 29.0998C47.4087 30.3005 47.4171 31.5013 47.4257 32.7384C47.4403 33.8423 47.4549 34.9461 47.4699 36.0834C46.8873 39.6994 45.8259 40.7456 42.9999 43.0002C40.5007 44.7662 37.8485 46.2415 35.1874 47.7502C34.501 48.1614 33.8146 48.5726 33.1074 48.9963C28.5857 51.5715 25.3074 52.8914 19.9999 52.0002C16.5364 50.4537 13.3498 48.5523 10.1249 46.5627C9.25869 46.0464 8.39244 45.5301 7.49994 44.9982C1.2524 41.2526 1.2524 41.2526 -6.21676e-05 40.0002C-0.45082 35.4484 -0.511759 30.8833 -0.625062 26.3127C-0.695961 25.032 -0.766859 23.7513 -0.839906 22.4318C-1.02294 13.1691 -1.02294 13.1691 1.85004 9.8859C4.16866 8.32918 6.45449 7.14138 8.99994 6.00016C10.0028 5.37368 11.0057 4.74719 12.039 4.10172C12.8924 3.61446 13.7457 3.12719 14.6249 2.62516C15.4835 2.12243 16.342 1.61969 17.2265 1.10172C20.8913 -0.353885 23.0616 -0.524679 26.9999 0.000160575ZM17.7695 6.18766C16.967 6.63883 16.1646 7.09 15.3378 7.55485C14.5044 8.0318 13.6711 8.50875 12.8124 9.00016C11.545 9.71559 11.545 9.71559 10.2519 10.4455C8.16462 11.6247 6.08088 12.8098 3.99994 14.0002C3.73733 17.7071 3.57837 21.4117 3.43744 25.1252C3.36203 26.1719 3.28662 27.2186 3.20892 28.297C3.11976 31.4276 3.1704 33.976 3.99994 37.0002C6.63931 39.782 9.57385 41.3412 12.9999 43.0002C13.8817 43.5661 14.7634 44.132 15.6718 44.715C16.3576 45.1185 17.0434 45.522 17.7499 45.9377C18.7941 46.5699 18.7941 46.5699 19.8593 47.215C22.58 48.2129 24.2522 47.7736 26.9999 47.0002C26.6209 43.7094 26.6209 43.7094 24.9999 41.0002C24.9591 39.0006 24.9574 36.9997 24.9999 35.0002C24.3129 34.8906 23.6258 34.781 22.9179 34.6681C21.5663 34.4303 21.5663 34.4303 20.1874 34.1877C19.2941 34.0368 18.4008 33.886 17.4804 33.7306C14.759 32.9292 13.6927 32.2465 11.9999 30.0002C10.935 25.9687 10.7772 23.656 12.1249 19.6877C14.3043 16.564 15.2913 15.7588 18.9999 15.0002C22.8287 15.1345 25.1971 15.4508 28.3749 17.6252C30.5775 20.8442 30.9329 23.1101 30.9999 27.0002C29.5624 30.4377 29.5624 30.4377 27.9999 33.0002C29.1446 33.3405 29.1446 33.3405 30.3124 33.6877C33.5473 35.2675 34.4164 36.833 35.9999 40.0002C39.9307 39.4256 39.9307 39.4256 42.9999 37.0002C43.2778 34.5742 43.2778 34.5742 43.1953 31.7736C43.1856 30.2267 43.1856 30.2267 43.1757 28.6486C43.159 27.5684 43.1422 26.4881 43.1249 25.3752C43.1159 24.2872 43.1069 23.1992 43.0976 22.0783C43.074 19.3854 43.041 16.6929 42.9999 14.0002C40.0682 12.3231 37.1287 10.6604 34.1874 9.00016C33.3541 8.52321 32.5207 8.04625 31.662 7.55485C30.8596 7.10368 30.0572 6.6525 29.2304 6.18766C28.1228 5.55924 28.1228 5.55924 26.9929 4.91813C23.2438 3.19125 21.128 4.28212 17.7695 6.18766ZM16.1249 20.1252C14.4533 22.9112 14.5362 24.82 14.9999 28.0002C16.5189 30.0978 16.5189 30.0978 18.9999 31.0002C22.4987 30.9288 24.3111 30.5813 26.9999 28.3127C28.3042 25.9118 28.3042 25.9118 27.3124 22.8127C26.305 19.8938 26.305 19.8938 23.9999 19.0002C19.8693 18.624 19.8693 18.624 16.1249 20.1252ZM29.9999 38.0002C29.9999 39.3202 29.9999 40.6402 29.9999 42.0002C30.6599 42.6602 31.3199 43.3202 31.9999 44.0002C32.3299 43.3402 32.6599 42.6802 32.9999 42.0002C32.0099 40.6802 31.0199 39.3602 29.9999 38.0002Z" fill="white"/>
<path d="M27.0002 148C30.4752 149.499 33.6506 151.403 36.8752 153.375C37.7414 153.883 38.6077 154.391 39.5002 154.914C45.8475 158.695 45.8475 158.695 47.0002 161C47.4331 165.408 47.5105 169.824 47.6252 174.25C47.7315 176.093 47.7315 176.093 47.84 177.973C48.0228 186.851 48.0228 186.851 45.1501 190.079C42.8321 191.636 40.5374 192.841 38.0002 194C36.9973 194.627 35.9944 195.253 34.9611 195.899C34.1078 196.386 33.2544 196.873 32.3752 197.375C31.5167 197.878 30.6581 198.381 29.7736 198.899C25.5112 200.592 22.1011 200.87 17.7883 199.085C15.3688 197.842 13.0286 196.51 10.6877 195.125C9.8775 194.665 9.06733 194.205 8.2326 193.731C2.35228 190.352 2.35228 190.352 0.000180364 188C-1.38447 179.468 -3.28364 165.711 1.17206 157.962C4.49721 154.705 8.65459 153.386 13.0002 152C14.3164 151.206 15.6152 150.381 16.8752 149.5C20.7657 147.633 22.691 147.528 27.0002 148ZM17.7697 154.188C17.0463 154.594 16.3229 155 15.5776 155.418C14.6652 155.94 13.7527 156.462 12.8127 157C9.90456 158.65 6.99643 160.3 4.00018 162C4.00018 169.92 4.00018 177.84 4.00018 186C4.66018 186 5.32018 186 6.00018 186C6.14713 185.336 6.29409 184.672 6.44549 183.988C8.04754 177.682 9.55935 174.627 15.0002 171C14.6025 174.38 13.9561 176.062 11.9377 178.875C9.85695 181.919 9.85695 181.919 9.00018 185.438C10.5086 190.811 14.1957 192.155 18.8869 194.813C22.3378 196.129 23.5749 196.235 27.0002 195C29.7076 193.616 29.7076 193.616 32.3127 191.938C33.6372 191.116 33.6372 191.116 34.9885 190.277C35.6523 189.856 36.3162 189.434 37.0002 189C36.7366 182.952 36.123 179.655 32.0002 175C32.0002 173.68 32.0002 172.36 32.0002 171C38.0419 175.028 39.4544 179.017 41.0002 186C41.6602 186 42.3202 186 43.0002 186C43.2628 182.293 43.4217 178.589 43.5627 174.875C43.6758 173.305 43.6758 173.305 43.7912 171.703C43.8804 168.573 43.8291 166.024 43.0002 163C40.3633 160.211 37.4345 158.65 34.0002 157C33.0953 156.446 32.1903 155.892 31.258 155.32C30.5542 154.926 29.8503 154.532 29.1252 154.125C28.4059 153.715 27.6866 153.305 26.9455 152.883C23.2195 151.192 21.0964 152.3 17.7697 154.188Z" fill="white"/>
<path d="M180 148C183.464 149.546 186.65 151.448 189.875 153.437C190.741 153.954 191.608 154.47 192.5 155.002C198.748 158.748 198.748 158.748 200 160C200.451 164.552 200.512 169.117 200.625 173.687C200.732 175.609 200.732 175.609 200.84 177.568C201.023 186.831 201.023 186.831 198.15 190.114C195.832 191.671 193.546 192.859 191 194C189.997 194.626 188.994 195.253 187.961 195.898C187.108 196.386 186.254 196.873 185.375 197.375C184.517 197.878 183.658 198.38 182.774 198.898C179.109 200.354 176.939 200.525 173 200C169.531 198.468 166.35 196.552 163.125 194.562C162.259 194.046 161.393 193.53 160.5 192.998C154.253 189.252 154.253 189.252 153 188C152.69 183.57 152.722 179.127 152.688 174.687C152.659 173.438 152.63 172.188 152.6 170.9C152.587 169.099 152.587 169.099 152.574 167.262C152.56 166.158 152.545 165.054 152.53 163.917C153.113 160.301 154.174 159.255 157 157C159.499 155.234 162.152 153.759 164.813 152.25C165.499 151.839 166.186 151.428 166.893 151.004C171.414 148.429 174.693 147.109 180 148ZM171.024 154.152C170.271 154.599 169.518 155.046 168.742 155.506C167.961 155.978 167.18 156.451 166.375 156.937C165.586 157.406 164.797 157.875 163.985 158.357C160.287 160.404 160.287 160.404 157 163C156.913 164.708 156.893 166.419 156.903 168.129C156.906 169.163 156.909 170.198 156.912 171.264C156.925 172.897 156.925 172.897 156.938 174.562C156.942 175.655 156.947 176.747 156.951 177.873C156.963 180.582 156.98 183.291 157 186C159.883 187.711 162.783 189.39 165.688 191.062C166.504 191.548 167.321 192.033 168.162 192.533C168.958 192.988 169.754 193.442 170.574 193.91C171.302 194.334 172.03 194.759 172.78 195.196C176.265 196.458 178.756 195.574 182.037 194.06C182.681 193.688 183.325 193.317 183.989 192.934C185.047 192.329 185.047 192.329 186.127 191.713C186.848 191.292 187.57 190.871 188.313 190.437C189.053 190.013 189.794 189.588 190.557 189.15C192.375 188.106 194.188 187.054 196 186C196.263 182.293 196.422 178.588 196.563 174.875C196.676 173.305 196.676 173.305 196.791 171.703C196.88 168.573 196.829 166.024 196 163C193.363 160.211 190.435 158.65 187 157C186.095 156.446 185.19 155.891 184.258 155.32C183.554 154.926 182.85 154.531 182.125 154.125C181.406 153.715 180.687 153.305 179.946 152.883C176.287 151.222 174.249 152.224 171.024 154.152Z" fill="white"/>
<path d="M182.212 0.915767C184.631 2.15886 186.971 3.49013 189.312 4.87524C190.122 5.33543 190.933 5.79563 191.767 6.26977C197.648 9.64814 197.648 9.64814 200 12.0002C201.384 20.5328 203.284 34.2891 198.828 42.0383C195.503 45.2957 191.345 46.6145 187 48.0002C185.684 48.7942 184.385 49.6197 183.125 50.5002C179.234 52.3677 177.309 52.4724 173 52.0002C169.525 50.5019 166.349 48.5974 163.125 46.6252C161.825 45.8634 161.825 45.8634 160.5 45.0862C154.153 41.3057 154.153 41.3057 153 39.0002C152.567 34.5922 152.489 30.1762 152.375 25.7502C152.304 24.5218 152.233 23.2933 152.16 22.0276C151.977 13.1492 151.977 13.1492 154.85 9.92163C157.168 8.36483 159.463 7.15925 162 6.00024C163.003 5.37375 164.006 4.74727 165.039 4.1018C165.892 3.61454 166.746 3.12727 167.625 2.62524C168.483 2.12251 169.342 1.61977 170.226 1.1018C174.489 -0.591152 177.899 -0.869331 182.212 0.915767ZM170.769 6.18774C169.967 6.63891 169.164 7.09008 168.338 7.55493C167.504 8.03188 166.671 8.50883 165.812 9.00024C164.545 9.71567 164.545 9.71567 163.252 10.4456C161.164 11.6248 159.081 12.8099 157 14.0002C156.737 17.7072 156.578 21.4118 156.437 25.1252C156.362 26.172 156.286 27.2187 156.209 28.2971C156.12 31.4277 156.17 33.976 157 37.0002C159.639 39.7821 162.574 41.3412 166 43.0002C166.882 43.5661 167.763 44.132 168.672 44.7151C169.357 45.1186 170.043 45.522 170.75 45.9377C171.794 46.57 171.794 46.57 172.859 47.2151C175.775 48.2845 177.043 47.9899 180 47.0002C182.666 45.6294 185.205 44.0839 187.75 42.5002C188.434 42.0839 189.119 41.6675 189.824 41.2385C193.09 39.3569 193.09 39.3569 196 37.0002C196.087 35.2925 196.107 33.5813 196.097 31.8713C196.094 30.8369 196.091 29.8024 196.088 28.7366C196.079 27.648 196.071 26.5593 196.062 25.4377C196.058 24.3453 196.053 23.2528 196.049 22.1272C196.037 19.4182 196.02 16.7092 196 14.0002C193.068 12.3232 190.129 10.6604 187.187 9.00024C186.354 8.52329 185.521 8.04633 184.662 7.55493C183.859 7.10375 183.057 6.65258 182.23 6.18774C181.123 5.55932 181.123 5.55932 179.993 4.91821C176.244 3.19133 174.128 4.2822 170.769 6.18774Z" fill="white"/>
<path d="M62 23C87.08 23 112.16 23 138 23C138 24.32 138 25.64 138 27C112.92 27 87.84 27 62 27C62 25.68 62 24.36 62 23Z" fill="white"/>
<path d="M63 171C87.42 171 111.84 171 137 171C137.495 172.98 137.495 172.98 138 175C112.92 175 87.84 175 62 175C62.33 173.68 62.66 172.36 63 171Z" fill="white"/>
<path d="M107.75 79.1875C111.633 82.3153 112.817 85.5617 113.438 90.4375C112.907 94.7591 111.876 97.7089 109 101C104.55 103.739 100.928 104.538 95.8595 103.645C91.9959 102.305 89.9495 99.3562 87.6877 96.125C86.2099 91.5575 86.4559 87.5268 88.5627 83.25C93.1442 76.0873 100.548 76.0774 107.75 79.1875ZM92.9377 84.5625C90.7148 87.8688 90.7148 87.8688 90.9377 91.625C92.1124 95.3565 92.7072 96.8891 96.0002 99C100.099 99.6559 100.099 99.6559 104 99C107.24 96.5952 107.24 96.5952 109 93C109.068 89.0458 108.567 86.8838 106.438 83.5625C103.611 81.7507 101.335 81.3059 97.9767 81.4883C95.6169 81.9484 95.6169 81.9484 92.9377 84.5625Z" fill="white"/>
<path d="M175 62C176.32 62.33 177.64 62.66 179 63C179 87.42 179 111.84 179 137C177.02 137.495 177.02 137.495 175 138C175 112.92 175 87.84 175 62Z" fill="white"/>
<path d="M22.0001 62C22.9901 62 23.9801 62 25.0001 62C25.0001 87.08 25.0001 112.16 25.0001 138C23.6801 137.67 22.3601 137.34 21.0001 137C20.977 127.369 20.9592 117.738 20.9483 108.107C20.9431 103.635 20.936 99.1633 20.9247 94.6917C20.9139 90.3799 20.9079 86.0681 20.9053 81.7563C20.9034 80.1076 20.8998 78.4589 20.8944 76.8102C20.8872 74.509 20.8861 72.2078 20.8866 69.9065C20.8844 68.5941 20.8822 67.2817 20.8799 65.9296C21.0001 63 21.0001 63 22.0001 62Z" fill="white"/>
<path d="M182 12.0001C184.723 14.1789 185.794 15.6942 186.34 19.1564C186.548 24.1616 185.686 26.7644 183 31.0001C182.156 34.3044 181.555 37.6364 181 41.0001C178.69 41.3301 176.38 41.6601 174 42.0001C171.153 38.8943 170.351 36.0159 169.527 32.0001C169.065 29.9464 169.065 29.9464 167.965 28.0275C166.273 24.4724 166.431 20.8436 167 17.0001C170.726 10.8334 175.241 10.0692 182 12.0001ZM172.187 16.1251C170.386 18.9698 170.559 20.666 171 24.0001C172.154 26.7736 173.516 29.39 175 32.0001C175.99 32.0001 176.98 32.0001 178 32.0001C181.18 27.1302 182.808 24.0067 182 18.0001C180.956 15.9556 180.956 15.9556 179 15.0001C176.145 14.5719 174.655 14.5935 172.187 16.1251Z" fill="white"/>
<path d="M178 162C181 164 181 164 181.875 167.375C182 171 182 171 180.687 173.437C179 175 179 175 177 175C177.124 176.33 177.124 176.33 177.25 177.687C177 181 177 181 175.5 183.875C172.456 186.463 170.798 186.683 166.902 186.422C163.91 185.758 162.692 184.504 161 182C159.658 178.6 159.917 177.24 161.125 173.75C163 171 163 171 165.687 170.125C166.45 170.084 167.214 170.042 168 170C168.155 168.577 168.155 168.577 168.312 167.125C169.535 161.566 172.97 161.581 178 162ZM174 166C173.01 167.485 173.01 167.485 172 169C172.33 169.66 172.66 170.32 173 171C174.32 171 175.64 171 177 171C177.33 170.01 177.66 169.02 178 168C176.68 167.34 175.36 166.68 174 166ZM167 174C166.34 174.66 165.68 175.32 165 176C165.32 178.603 165.32 178.603 166 181C168.397 181.679 168.397 181.679 171 182C171.66 181.34 172.32 180.68 173 180C172.679 177.397 172.679 177.397 172 175C169.603 174.32 169.603 174.32 167 174Z" fill="white"/>
<path d="M23.5625 157.438C27 158 27 158 29.375 159.625C31.3851 162.563 31.9273 164.44 32 168C30.7636 170.863 29.6685 172.493 27.1875 174.375C24.0477 175.272 22.1116 174.972 19 174C16.1817 171.404 15.1444 169.77 14.4375 166C15.4531 160.584 18.201 158.284 23.5625 157.438ZM20.3125 163.5C19.8794 163.995 19.4462 164.49 19 165C19.66 166.65 20.32 168.3 21 170C22.65 170 24.3 170 26 170C26.66 168.35 27.32 166.7 28 165C26.688 163.438 26.688 163.438 25 162C21.9974 161.668 21.9974 161.668 20.3125 163.5Z" fill="white"/>
<path d="M184 171C185.32 171 186.64 171 188 171C189.007 172.934 190.006 174.872 191 176.812C191.835 178.431 191.835 178.431 192.688 180.082C194 183 194 183 194 186C188.72 186 183.44 186 178 186C178.833 181.836 179.661 179.345 181.562 175.688C182.018 174.804 182.473 173.921 182.941 173.012C183.465 172.016 183.465 172.016 184 171ZM185 178C184.67 179.32 184.34 180.64 184 182C185.32 182 186.64 182 188 182C187.67 180.68 187.34 179.36 187 178C186.34 178 185.68 178 185 178Z" fill="white"/>
<path d="M24 178C24.66 178 25.32 178 26 178C26.33 178.99 26.66 179.98 27 181C27.825 181.309 28.65 181.619 29.5 181.938C30.325 182.288 31.15 182.639 32 183C32.8125 185.125 32.8125 185.125 33 187C31.1875 188.562 31.1875 188.562 29 190C28.01 189.67 27.02 189.34 26 189C26.33 187.68 26.66 186.36 27 185C26.34 184.67 25.68 184.34 25 184C24.67 186.31 24.34 188.62 24 191C19.2809 191 17.7296 189.712 14 187C14.1875 185.125 14.1875 185.125 15 183C17.5625 181.75 17.5625 181.75 20 181C20.33 181.99 20.66 182.98 21 184C21.99 182.02 22.98 180.04 24 178Z" fill="white"/>
<path d="M84 165C93.9 165 103.8 165 114 165C114 166.32 114 167.64 114 169C104.1 169 94.2 169 84 169C84 167.68 84 166.36 84 165Z" fill="white"/>
<path d="M181 84C182.32 84 183.64 84 185 84C185 93.9 185 103.8 185 114C183.68 114 182.36 114 181 114C181 104.1 181 94.2 181 84Z" fill="white"/>
<path d="M15 84C16.32 84 17.64 84 19 84C19 93.9 19 103.8 19 114C17.68 114 16.36 114 15 114C15 104.1 15 94.2 15 84Z" fill="white"/>
<path d="M169 84C169.99 84 170.98 84 172 84C172 93.9 172 103.8 172 114C170.68 114 169.36 114 168 114C167.976 109.888 167.957 105.777 167.945 101.665C167.94 100.265 167.933 98.8653 167.925 97.4656C167.913 95.4575 167.908 93.4495 167.903 91.4414C167.897 90.2317 167.892 89.022 167.887 87.7756C168 85 168 85 169 84Z" fill="white"/>
<path d="M28 84C29.32 84.33 30.64 84.66 32 85C32 94.57 32 104.14 32 114C30.68 114 29.36 114 28 114C28 104.1 28 94.2 28 84Z" fill="white"/>
<path d="M84 178C93.9 178 103.8 178 114 178C114.33 178.66 114.66 179.32 115 180C114.67 180.66 114.34 181.32 114 182C104.43 182 94.86 182 85 182C84.67 180.68 84.34 179.36 84 178Z" fill="white"/>
<path d="M85 29C94.57 29 104.14 29 114 29C114.33 29.99 114.66 30.98 115 32C114 33 114 33 111.133 33.1135C109.881 33.1083 108.629 33.1031 107.34 33.0977C106.343 33.0955 106.343 33.0955 105.326 33.0934C103.197 33.0878 101.067 33.0752 98.9375 33.0625C97.4967 33.0575 96.056 33.0529 94.6152 33.0488C91.0768 33.0378 87.5384 33.0205 84 33C84.33 31.68 84.66 30.36 85 29Z" fill="white"/>
<path d="M84 17C93.9 17 103.8 17 114 17C114.33 17.66 114.66 18.32 115 19C114.67 19.66 114.34 20.32 114 21C104.43 21 94.86 21 85 21C84.67 19.68 84.34 18.36 84 17Z" fill="white"/>
<path d="M131 90C137.27 90 143.54 90 150 90C150 91.32 150 92.64 150 94C143.73 94 137.46 94 131 94C131 92.68 131 91.36 131 90Z" fill="white"/>
<path d="M50 90C56.27 90 62.54 90 69 90C69 91.32 69 92.64 69 94C62.73 94 56.46 94 50 94C50 92.68 50 91.36 50 90Z" fill="white"/>
<path d="M131 84C134.3 84 137.6 84 141 84C141 85.32 141 86.64 141 88C137.7 88 134.4 88 131 88C131 86.68 131 85.36 131 84Z" fill="white"/>
<path d="M59 84C62.3 84 65.6 84 69 84C69 85.32 69 86.64 69 88C65.7 88 62.4 88 59 88C59 86.68 59 85.36 59 84Z" fill="white"/>
<path d="M132 96C134.64 96 137.28 96 140 96C140.33 97.32 140.66 98.64 141 100C137.7 100 134.4 100 131 100C131.33 98.68 131.66 97.36 132 96Z" fill="white"/>
<path d="M60 96C62.64 96 65.28 96 68 96C68.33 97.32 68.66 98.64 69 100C65.7 100 62.4 100 59 100C59.33 98.68 59.66 97.36 60 96Z" fill="white"/>
<path d="M182 77C182.99 77.33 183.98 77.66 185 78C184.67 79.32 184.34 80.64 184 82C183.01 81.67 182.02 81.34 181 81C181.33 79.68 181.66 78.36 182 77Z" fill="white"/>
<path d="M169 77C169.99 77.33 170.98 77.66 172 78C171.67 79.32 171.34 80.64 171 82C170.01 81.67 169.02 81.34 168 81C168.33 79.68 168.66 78.36 169 77Z" fill="white"/>
<path d="M29 77C29.99 77.33 30.98 77.66 32 78C31.67 79.32 31.34 80.64 31 82C30.01 81.67 29.02 81.34 28 81C28.33 79.68 28.66 78.36 29 77Z" fill="white"/>
<path d="M16 77C16.99 77.33 17.98 77.66 19 78C18.67 79.32 18.34 80.64 18 82C17.01 81.67 16.02 81.34 15 81C15.33 79.68 15.66 78.36 16 77Z" fill="white"/>
<path d="M78 178C79.32 178.33 80.64 178.66 82 179C82 179.99 82 180.98 82 182C80.68 182 79.36 182 78 182C78 180.68 78 179.36 78 178Z" fill="white"/>
<path d="M117 166C118.32 166 119.64 166 121 166C120.67 167.32 120.34 168.64 120 170C119.01 170 118.02 170 117 170C117 168.68 117 167.36 117 166Z" fill="white"/>
<path d="M78 166C79.32 166 80.64 166 82 166C81.67 167.32 81.34 168.64 81 170C80.01 170 79.02 170 78 170C78 168.68 78 167.36 78 166Z" fill="white"/>
<path d="M181 117C182.32 117 183.64 117 185 117C184.67 118.32 184.34 119.64 184 121C183.01 121 182.02 121 181 121C181 119.68 181 118.36 181 117Z" fill="white"/>
<path d="M15 117C16.32 117 17.64 117 19 117C19 118.32 19 119.64 19 121C17.68 120.67 16.36 120.34 15 120C15 119.01 15 118.02 15 117Z" fill="white"/>
<path d="M117 30C118.32 30.33 119.64 30.66 121 31C121 31.99 121 32.98 121 34C119.68 34 118.36 34 117 34C117 32.68 117 31.36 117 30Z" fill="white"/>
<path d="M78 30C79.32 30.33 80.64 30.66 82 31C82 31.99 82 32.98 82 34C80.68 34 79.36 34 78 34C78 32.68 78 31.36 78 30Z" fill="white"/>
<path d="M19 23C20.32 23 21.64 23 23 23C23 24.32 23 25.64 23 27C21.68 26.67 20.36 26.34 19 26C19 25.01 19 24.02 19 23Z" fill="white"/>
<path d="M118 178C118.99 178.33 119.98 178.66 121 179C121 179.99 121 180.98 121 182C119.68 182 118.36 182 117 182C117.33 180.68 117.66 179.36 118 178Z" fill="white"/>
<path d="M169 117C169.99 117 170.98 117 172 117C172 118.32 172 119.64 172 121C170.68 120.67 169.36 120.34 168 120C168.33 119.01 168.66 118.02 169 117Z" fill="white"/>
<path d="M28 117C29.32 117.33 30.64 117.66 32 118C31.67 118.99 31.34 119.98 31 121C30.01 121 29.02 121 28 121C28 119.68 28 118.36 28 117Z" fill="white"/>
<path d="M117 18C118.32 18 119.64 18 121 18C120.67 19.32 120.34 20.64 120 22C119.01 21.67 118.02 21.34 117 21C117 20.01 117 19.02 117 18Z" fill="white"/>
<path d="M78 18C79.32 18 80.64 18 82 18C81.67 19.32 81.34 20.64 81 22C80.01 21.67 79.02 21.34 78 21C78 20.01 78 19.02 78 18Z" fill="white"/>
</g>
<defs>
<clipPath id="clip0_222_9">
<rect width="200" height="200" fill="white"/>
</clipPath>
</defs>
</svg>
