<svg width="800" height="800" viewBox="0 0 800 800" fill="none" xmlns="http://www.w3.org/2000/svg">
<g clip-path="url(#clip0_228_6)">
<path d="M787.234 0H12.7656C5.71406 0 0 5.71406 0 12.7656V787.234C0 794.286 5.71406 800 12.7656 800H787.234C794.286 800 800 794.286 800 787.234V12.7656C800 5.71406 794.286 0 787.234 0ZM774.469 774.469H25.5313V25.5313H774.469V774.469Z" fill="white"/>
<path d="M736.171 51.0641H63.8301C56.7785 51.0641 51.0645 56.7782 51.0645 63.8297V114.894C51.0645 121.945 56.7785 127.659 63.8301 127.659H736.171C743.222 127.659 748.936 121.945 748.936 114.894V63.8297C748.936 56.7782 743.222 51.0641 736.171 51.0641ZM723.405 102.128H76.5957V76.5969H723.404V102.128H723.405Z" fill="white"/>
<path d="M736.171 547.519H63.8301C56.7785 547.519 51.0645 553.233 51.0645 560.284V736.17C51.0645 743.222 56.7785 748.936 63.8301 748.936H736.171C743.222 748.936 748.936 743.222 748.936 736.17V560.284C748.936 553.233 743.222 547.519 736.171 547.519ZM723.405 723.405H76.5957V573.05H723.404V723.405H723.405Z" fill="white"/>
<path d="M495.035 153.192H304.966C297.914 153.192 292.2 158.906 292.2 165.958V356.03C292.2 363.081 297.914 368.795 304.966 368.795H495.036C502.088 368.795 507.802 363.081 507.802 356.03V165.958C507.802 158.906 502.088 153.192 495.035 153.192ZM464.213 178.723L400 242.937L335.786 178.723H464.213ZM317.731 196.778L381.946 260.992L317.731 325.206V196.778ZM335.788 343.262L400 279.048L464.214 343.262H335.788ZM482.269 325.206L418.055 260.992L482.269 196.778V325.206Z" fill="white"/>
<path d="M736.17 153.192H546.099C539.047 153.192 533.333 158.906 533.333 165.958V356.03C533.333 363.081 539.047 368.795 546.099 368.795H736.17C743.222 368.795 748.936 363.081 748.936 356.03V165.958C748.936 158.906 743.222 153.192 736.17 153.192ZM705.349 178.723L641.135 242.937L576.921 178.723H705.349ZM558.864 196.778L623.078 260.992L558.864 325.206V196.778ZM576.919 343.262L641.135 279.048L705.349 343.262H576.919ZM723.405 325.206L659.191 260.992L723.405 196.778V325.206Z" fill="white"/>
<path d="M495.035 394.327H304.966C297.914 394.327 292.2 400.041 292.2 407.092C292.2 414.144 297.914 419.858 304.966 419.858H495.036C502.088 419.858 507.802 414.144 507.802 407.092C507.802 400.041 502.088 394.327 495.035 394.327Z" fill="white"/>
<path d="M736.17 394.327H546.099C539.047 394.327 533.333 400.041 533.333 407.092C533.333 414.144 539.047 419.858 546.099 419.858H736.17C743.222 419.858 748.936 414.144 748.936 407.092C748.936 400.041 743.222 394.327 736.17 394.327Z" fill="white"/>
<path d="M253.902 394.327H63.8301C56.7785 394.327 51.0645 400.041 51.0645 407.092C51.0645 414.144 56.7785 419.858 63.8301 419.858H253.902C260.954 419.858 266.668 414.144 266.668 407.092C266.668 400.041 260.954 394.327 253.902 394.327Z" fill="white"/>
<path d="M495.035 445.391H304.966C297.914 445.391 292.2 451.105 292.2 458.156C292.2 465.208 297.914 470.922 304.966 470.922H495.036C502.088 470.922 507.802 465.208 507.802 458.156C507.802 451.105 502.088 445.391 495.035 445.391Z" fill="white"/>
<path d="M736.17 445.391H546.099C539.047 445.391 533.333 451.105 533.333 458.156C533.333 465.208 539.047 470.922 546.099 470.922H736.17C743.222 470.922 748.936 465.208 748.936 458.156C748.936 451.105 743.222 445.391 736.17 445.391Z" fill="white"/>
<path d="M253.902 445.391H63.8301C56.7785 445.391 51.0645 451.105 51.0645 458.156C51.0645 465.208 56.7785 470.922 63.8301 470.922H253.902C260.954 470.922 266.668 465.208 266.668 458.156C266.668 451.105 260.954 445.391 253.902 445.391Z" fill="white"/>
<path d="M400.285 496.455H304.966C297.914 496.455 292.2 502.169 292.2 509.22C292.2 516.272 297.914 521.986 304.966 521.986H400.285C407.336 521.986 413.05 516.272 413.05 509.22C413.05 502.169 407.336 496.455 400.285 496.455Z" fill="white"/>
<path d="M641.417 496.455H546.099C539.047 496.455 533.333 502.169 533.333 509.22C533.333 516.272 539.047 521.986 546.099 521.986H641.417C648.469 521.986 654.183 516.272 654.183 509.22C654.183 502.169 648.47 496.455 641.417 496.455Z" fill="white"/>
<path d="M159.149 496.455H63.8301C56.7785 496.455 51.0645 502.169 51.0645 509.22C51.0645 516.272 56.7785 521.986 63.8301 521.986H159.149C166.2 521.986 171.914 516.272 171.914 509.22C171.914 502.169 166.202 496.455 159.149 496.455Z" fill="white"/>
<path d="M253.902 153.192H63.8301C56.7785 153.192 51.0645 158.906 51.0645 165.958V356.03C51.0645 363.081 56.7785 368.795 63.8301 368.795H253.902C260.954 368.795 266.668 363.081 266.668 356.03V165.958C266.668 158.906 260.954 153.192 253.902 153.192ZM223.08 178.723L158.866 242.937L94.652 178.723H223.08ZM76.5957 196.78L140.81 260.992L76.5957 325.208V196.78ZM94.6504 343.262L158.864 279.048L223.08 343.262H94.6504ZM241.136 325.206L176.922 260.992L241.136 196.778V325.206Z" fill="white"/>
</g>
<defs>
<clipPath id="clip0_228_6">
<rect width="800" height="800" fill="white"/>
</clipPath>
</defs>
</svg>
